<mxfile host="app.diagrams.net" modified="2022-05-31T02:48:04.695Z" agent="5.0 (Windows NT 10.0; Win64; x64) AppleWebKit/537.36 (KHTML, like Gecko) Chrome/102.0.5005.61 Safari/537.36" etag="V3oWvQ65KYttkoOdgDZr" version="18.1.3" type="github">
  <diagram id="q2s4eNC4ywc1LFU5KZEe" name="Page-1">
    <mxGraphModel dx="6104" dy="2456" grid="1" gridSize="10" guides="1" tooltips="1" connect="1" arrows="1" fold="1" page="0" pageScale="1" pageWidth="850" pageHeight="1100" background="none" math="0" shadow="0">
      <root>
        <mxCell id="0" />
        <mxCell id="1" parent="0" />
        <mxCell id="KCkjolmOv0YKm-Dr6y_E-64" value="" style="rounded=0;whiteSpace=wrap;html=1;fontSize=36;fillColor=none;fontColor=#ffffff;strokeColor=#001DBC;strokeWidth=8;" vertex="1" parent="1">
          <mxGeometry x="5180" y="2750" width="570" height="440" as="geometry" />
        </mxCell>
        <mxCell id="KCkjolmOv0YKm-Dr6y_E-63" value="" style="rounded=0;whiteSpace=wrap;html=1;fontSize=36;fillColor=none;fontColor=#ffffff;strokeColor=#006EAF;strokeWidth=8;" vertex="1" parent="1">
          <mxGeometry x="3593" y="2740" width="497" height="420" as="geometry" />
        </mxCell>
        <mxCell id="KCkjolmOv0YKm-Dr6y_E-61" value="" style="rounded=0;whiteSpace=wrap;html=1;fontSize=36;fillColor=none;fontColor=#ffffff;strokeColor=#B20000;strokeWidth=8;" vertex="1" parent="1">
          <mxGeometry x="4570" y="2750" width="550" height="1040" as="geometry" />
        </mxCell>
        <mxCell id="KCkjolmOv0YKm-Dr6y_E-60" value="" style="rounded=0;whiteSpace=wrap;html=1;fontSize=36;fillColor=none;fontColor=#000000;strokeColor=#FF9933;strokeWidth=8;" vertex="1" parent="1">
          <mxGeometry x="4160" y="2750" width="390" height="940" as="geometry" />
        </mxCell>
        <mxCell id="node41" value="&lt;p style=&quot;margin:0px;margin-top:4px;text-align:center;&quot;&gt;&lt;b&gt;AesEncryptUtil&lt;/b&gt;&lt;/p&gt;&lt;hr size=&quot;1&quot;/&gt;&lt;p style=&quot;margin:0 0 0 4px;line-height:1.6;&quot;&gt;+ desEncrypt(String): String&lt;br/&gt;+ desEncrypt(String, String, String): String?&lt;br/&gt;+ encrypt(String): String&lt;br/&gt;+ encrypt(String, String, String): String?&lt;/p&gt;" style="verticalAlign=top;align=left;overflow=fill;fontSize=14;fontFamily=Helvetica;html=1;rounded=0;shadow=0;comic=0;labelBackgroundColor=none;strokeWidth=1;" parent="1" vertex="1">
          <mxGeometry x="2387" y="1414" width="265" height="130" as="geometry" />
        </mxCell>
        <mxCell id="node44" value="&lt;p style=&quot;margin:0px;margin-top:4px;text-align:center;&quot;&gt;&lt;b&gt;ApplicationConfig&lt;/b&gt;&lt;/p&gt;&lt;hr size=&quot;1&quot;/&gt;&lt;p style=&quot;margin:0 0 0 4px;line-height:1.6;&quot;&gt;+ addCorsMappings(CorsRegistry): void&lt;/p&gt;" style="verticalAlign=top;align=left;overflow=fill;fontSize=14;fontFamily=Helvetica;html=1;rounded=0;shadow=0;comic=0;labelBackgroundColor=none;strokeWidth=1;" parent="1" vertex="1">
          <mxGeometry x="3139" y="1045" width="247" height="58" as="geometry" />
        </mxCell>
        <mxCell id="KCkjolmOv0YKm-Dr6y_E-50" style="edgeStyle=orthogonalEdgeStyle;rounded=0;orthogonalLoop=1;jettySize=auto;html=1;exitX=0.5;exitY=0;exitDx=0;exitDy=0;entryX=0.5;entryY=1;entryDx=0;entryDy=0;fontSize=36;" edge="1" parent="1" source="node49" target="KCkjolmOv0YKm-Dr6y_E-42">
          <mxGeometry relative="1" as="geometry" />
        </mxCell>
        <mxCell id="node49" value="&lt;p style=&quot;margin:0px;margin-top:4px;text-align:center;&quot;&gt;&lt;b&gt;AssistanceController&lt;/b&gt;&lt;/p&gt;&lt;hr size=&quot;1&quot;/&gt;&lt;p style=&quot;margin:0 0 0 4px;line-height:1.6;&quot;&gt;+ systemFunctionService: SystemFunctionService&lt;br/&gt;+ assistanceService: AssistanceService&lt;br/&gt;+ bankAccountService: BankAccountService&lt;/p&gt;&lt;hr size=&quot;1&quot;/&gt;&lt;p style=&quot;margin:0 0 0 4px;line-height:1.6;&quot;&gt;+ getAssistanceRequestByUserID(HttpServletRequest): Response&lt;br/&gt;+ getUnfinishedAssistanceRequestByUserID(HttpServletRequest): Response&lt;br/&gt;+ getUnityIDByUserID(HttpServletRequest, String): Response&lt;br/&gt;+ getSystemFunctionById(int): Response&lt;br/&gt;+ addAssistanceRequest(String, String, String, int, double, int, String): Response&lt;br/&gt;+ updateAssistanceRequestStatus(String, int): Response&lt;/p&gt;&lt;hr size=&quot;1&quot;/&gt;&lt;p style=&quot;margin:0 0 0 4px;line-height:1.6;&quot;&gt;+ bankAccountService: BankAccountService&lt;br/&gt;+ assistanceService: AssistanceService&lt;br/&gt;+ systemFunctionService: SystemFunctionService&lt;/p&gt;" style="verticalAlign=top;align=left;overflow=fill;fontSize=14;fontFamily=Helvetica;html=1;rounded=0;shadow=0;comic=0;labelBackgroundColor=none;strokeWidth=1;" parent="1" vertex="1">
          <mxGeometry x="4588" y="2770" width="512" height="347" as="geometry" />
        </mxCell>
        <mxCell id="node29" value="&lt;p style=&quot;margin:0px;margin-top:4px;text-align:center;&quot;&gt;&lt;i&gt;&amp;lt;&amp;lt;annotation&amp;gt;&amp;gt;&lt;/i&gt;&lt;br/&gt;&lt;b&gt;AssistanceLog&lt;/b&gt;&lt;/p&gt;&lt;hr size=&quot;1&quot;/&gt;&lt;p style=&quot;margin:0 0 0 4px;line-height:1.6;&quot;&gt;+ desc(): String&lt;/p&gt;" style="verticalAlign=top;align=left;overflow=fill;fontSize=14;fontFamily=Helvetica;html=1;rounded=0;shadow=0;comic=0;labelBackgroundColor=none;strokeWidth=1;" parent="1" vertex="1">
          <mxGeometry x="1520" y="1713" width="142" height="68" as="geometry" />
        </mxCell>
        <mxCell id="node23" value="&lt;p style=&quot;margin:0px;margin-top:4px;text-align:center;&quot;&gt;&lt;b&gt;AssistanceLogAspect&lt;/b&gt;&lt;/p&gt;&lt;hr size=&quot;1&quot;/&gt;&lt;p style=&quot;margin:0 0 0 4px;line-height:1.6;&quot;&gt;+ assistanceLog(): void&lt;br/&gt;+ doAround(ProceedingJoinPoint): Object&lt;br/&gt;+ doBefore(JoinPoint): void&lt;/p&gt;" style="verticalAlign=top;align=left;overflow=fill;fontSize=14;fontFamily=Helvetica;html=1;rounded=0;shadow=0;comic=0;labelBackgroundColor=none;strokeWidth=1;" parent="1" vertex="1">
          <mxGeometry x="1025" y="724" width="254" height="106" as="geometry" />
        </mxCell>
        <mxCell id="node15" value="&lt;p style=&quot;margin:0px;margin-top:4px;text-align:center;&quot;&gt;&lt;b&gt;AssistanceManager&lt;/b&gt;&lt;/p&gt;&lt;hr size=&quot;1&quot;/&gt;&lt;p style=&quot;margin:0 0 0 4px;line-height:1.6;&quot;&gt;+ doAbnormal(): void&lt;br/&gt;+ doNormal(): void&lt;/p&gt;" style="verticalAlign=top;align=left;overflow=fill;fontSize=14;fontFamily=Helvetica;html=1;rounded=0;shadow=0;comic=0;labelBackgroundColor=none;strokeWidth=1;" parent="1" vertex="1">
          <mxGeometry x="2452" y="891" width="180" height="82" as="geometry" />
        </mxCell>
        <mxCell id="node53" value="&lt;p style=&quot;margin:0px;margin-top:4px;text-align:center;&quot;&gt;&lt;b&gt;AssistanceRequest&lt;/b&gt;&lt;/p&gt;&lt;hr size=&quot;1&quot;/&gt;&lt;p style=&quot;margin:0 0 0 4px;line-height:1.6;&quot;&gt;+ assistanceID: String&lt;br/&gt;+ assistanceDate: Date&lt;br/&gt;+ amount: BigDecimal&lt;br/&gt;+ accountID: String&lt;br/&gt;+ functionID: int&lt;br/&gt;+ isFinished: int&lt;br/&gt;+ userID: String&lt;br/&gt;+ payeeAccountID: String&lt;/p&gt;&lt;hr size=&quot;1&quot;/&gt;&lt;p style=&quot;margin:0 0 0 4px;line-height:1.6;&quot;&gt;+ accountID: String&lt;br/&gt;+ payeeAccountID: String&lt;br/&gt;+ functionID: int&lt;br/&gt;+ amount: BigDecimal&lt;br/&gt;+ assistanceDate: Date&lt;br/&gt;+ isFinished: int&lt;br/&gt;+ assistanceID: String&lt;br/&gt;+ userID: String&lt;/p&gt;" style="verticalAlign=top;align=left;overflow=fill;fontSize=14;fontFamily=Helvetica;html=1;rounded=0;shadow=0;comic=0;labelBackgroundColor=none;strokeWidth=1;" parent="1" vertex="1">
          <mxGeometry x="1132" y="949" width="175" height="386" as="geometry" />
        </mxCell>
        <mxCell id="node52" value="&lt;p style=&quot;margin:0px;margin-top:4px;text-align:center;&quot;&gt;&lt;b&gt;AssistanceRequestDisp&lt;/b&gt;&lt;/p&gt;&lt;hr size=&quot;1&quot;/&gt;&lt;p style=&quot;margin:0 0 0 4px;line-height:1.6;&quot;&gt;+ assistanceID: String&lt;br/&gt;+ accountID: String&lt;br/&gt;+ userName: String&lt;br/&gt;+ functionName: String&lt;br/&gt;+ assistanceDate: String&lt;br/&gt;+ amount: Double&lt;/p&gt;&lt;hr size=&quot;1&quot;/&gt;&lt;p style=&quot;margin:0 0 0 4px;line-height:1.6;&quot;&gt;+ accountID: String&lt;br/&gt;+ assistanceDate: String&lt;br/&gt;+ functionName: String&lt;br/&gt;+ assistanceID: String&lt;br/&gt;+ amount: Double&lt;br/&gt;+ userName: String&lt;/p&gt;" style="verticalAlign=top;align=left;overflow=fill;fontSize=14;fontFamily=Helvetica;html=1;rounded=0;shadow=0;comic=0;labelBackgroundColor=none;strokeWidth=1;" parent="1" vertex="1">
          <mxGeometry x="1140" y="276" width="204" height="298" as="geometry" />
        </mxCell>
        <mxCell id="KCkjolmOv0YKm-Dr6y_E-15" style="edgeStyle=orthogonalEdgeStyle;rounded=0;orthogonalLoop=1;jettySize=auto;html=1;exitX=1;exitY=0.5;exitDx=0;exitDy=0;" edge="1" parent="1" source="node43" target="node54">
          <mxGeometry relative="1" as="geometry" />
        </mxCell>
        <mxCell id="node43" value="&lt;p style=&quot;margin:0px;margin-top:4px;text-align:center;&quot;&gt;&lt;i&gt;&amp;lt;&amp;lt;interface&amp;gt;&amp;gt;&lt;/i&gt;&lt;br/&gt;&lt;b&gt;AssistanceRequestMapper&lt;/b&gt;&lt;/p&gt;&lt;hr size=&quot;1&quot;/&gt;&lt;p style=&quot;margin:0 0 0 4px;line-height:1.6;&quot;&gt;+ getAssistanceRequestByUserID(String): List&amp;lt;AssistanceRequestDisp&amp;gt;&lt;br/&gt;+ getAssistanceRequestByTransactionId(String): List&amp;lt;AssistanceRequestDisp&amp;gt;&lt;br/&gt;+ getAssistanceRequestByAssistanceID(String): AssistanceRequest&lt;br/&gt;+ getUnityIDByUserID(String): unityUser&lt;br/&gt;+ addAssistanceRequest(String, String, String, String, int, double, Date, int): void&lt;br/&gt;+ updateAssistanceRequestStatus(String, int): void&lt;br/&gt;+ getUnfinishedAssistanceRequestByUserID(String): List&amp;lt;AssistanceRequestDisp&amp;gt;&lt;/p&gt;" style="verticalAlign=top;align=left;overflow=fill;fontSize=14;fontFamily=Helvetica;html=1;rounded=0;shadow=0;comic=0;labelBackgroundColor=none;strokeWidth=1;" parent="1" vertex="1">
          <mxGeometry x="4580" y="3560.5" width="530" height="209.5" as="geometry" />
        </mxCell>
        <mxCell id="KCkjolmOv0YKm-Dr6y_E-14" style="edgeStyle=orthogonalEdgeStyle;rounded=0;orthogonalLoop=1;jettySize=auto;html=1;exitX=0.5;exitY=0;exitDx=0;exitDy=0;entryX=0.5;entryY=1;entryDx=0;entryDy=0;" edge="1" parent="1" source="node2" target="node49">
          <mxGeometry relative="1" as="geometry" />
        </mxCell>
        <mxCell id="node2" value="&lt;p style=&quot;margin:0px;margin-top:4px;text-align:center;&quot;&gt;&lt;i&gt;&amp;lt;&amp;lt;interface&amp;gt;&amp;gt;&lt;/i&gt;&lt;br/&gt;&lt;b&gt;AssistanceService&lt;/b&gt;&lt;/p&gt;&lt;hr size=&quot;1&quot;/&gt;&lt;p style=&quot;margin:0 0 0 4px;line-height:1.6;&quot;&gt;+ getUnityUserByUserID(String): unityUser&lt;br/&gt;+ getUnfinishedAssistanceRequestByUserID(String): List&amp;lt;AssistanceRequestDisp&amp;gt;&lt;br/&gt;+ updateAssistanceRequestStatus(String, int): boolean&lt;br/&gt;+ getAssistanceRequestByUserID(String): List&amp;lt;AssistanceRequestDisp&amp;gt;&lt;br/&gt;+ getAssistanceRequestByTransactionID(String): List&amp;lt;AssistanceRequestDisp&amp;gt;&lt;br/&gt;+ getAssistanceRequestByAssistanceID(String): AssistanceRequest&lt;br/&gt;+ addAssistanceRequest(String, String, String, int, double, int): boolean&lt;/p&gt;" style="verticalAlign=top;align=left;overflow=fill;fontSize=14;fontFamily=Helvetica;html=1;rounded=0;shadow=0;comic=0;labelBackgroundColor=none;strokeWidth=1;" parent="1" vertex="1">
          <mxGeometry x="4580" y="3207.5" width="520" height="222.5" as="geometry" />
        </mxCell>
        <mxCell id="KCkjolmOv0YKm-Dr6y_E-33" style="edgeStyle=orthogonalEdgeStyle;rounded=0;orthogonalLoop=1;jettySize=auto;html=1;exitX=1;exitY=0.25;exitDx=0;exitDy=0;" edge="1" parent="1" source="node54" target="KCkjolmOv0YKm-Dr6y_E-26">
          <mxGeometry relative="1" as="geometry" />
        </mxCell>
        <mxCell id="KCkjolmOv0YKm-Dr6y_E-34" style="edgeStyle=orthogonalEdgeStyle;rounded=0;orthogonalLoop=1;jettySize=auto;html=1;exitX=1;exitY=0.5;exitDx=0;exitDy=0;entryX=0;entryY=0.5;entryDx=0;entryDy=0;" edge="1" parent="1" source="node54" target="KCkjolmOv0YKm-Dr6y_E-22">
          <mxGeometry relative="1" as="geometry" />
        </mxCell>
        <mxCell id="KCkjolmOv0YKm-Dr6y_E-35" style="edgeStyle=orthogonalEdgeStyle;rounded=0;orthogonalLoop=1;jettySize=auto;html=1;exitX=1;exitY=0.75;exitDx=0;exitDy=0;entryX=0;entryY=0.5;entryDx=0;entryDy=0;" edge="1" parent="1" source="node54" target="KCkjolmOv0YKm-Dr6y_E-32">
          <mxGeometry relative="1" as="geometry" />
        </mxCell>
        <mxCell id="node54" value="&lt;p style=&quot;margin:0px;margin-top:4px;text-align:center;&quot;&gt;&lt;b&gt;AssistanceServiceImpl&lt;/b&gt;&lt;/p&gt;&lt;hr size=&quot;1&quot;/&gt;&lt;p style=&quot;margin:0 0 0 4px;line-height:1.6;&quot;&gt;+ assistanceRequestMapper: AssistanceRequestMapper&lt;br/&gt;+ utilityService: UtilityService&lt;br/&gt;+ bankAccountService: BankAccountService&lt;/p&gt;&lt;hr size=&quot;1&quot;/&gt;&lt;p style=&quot;margin:0 0 0 4px;line-height:1.6;&quot;&gt;+ getAssistanceRequestByUserID(String): List&amp;lt;AssistanceRequestDisp&amp;gt;&lt;br/&gt;+ getUnityUserByUserID(String): unityUser&lt;br/&gt;+ updateAssistanceRequestStatus(String, int): boolean&lt;br/&gt;+ getUnfinishedAssistanceRequestByUserID(String): List&amp;lt;AssistanceRequestDisp&amp;gt;&lt;br/&gt;+ getAssistanceRequestByTransactionID(String): List&amp;lt;AssistanceRequestDisp&amp;gt;&lt;br/&gt;+ addAssistanceRequest(String, String, String, int, double, int): boolean&lt;br/&gt;+ getAssistanceRequestByAssistanceID(String): AssistanceRequest&lt;/p&gt;&lt;hr size=&quot;1&quot;/&gt;&lt;p style=&quot;margin:0 0 0 4px;line-height:1.6;&quot;&gt;+ assistanceRequestMapper: AssistanceRequestMapper&lt;br/&gt;+ bankAccountService: BankAccountService&lt;br/&gt;+ utilityService: UtilityService&lt;/p&gt;" style="verticalAlign=top;align=left;overflow=fill;fontSize=14;fontFamily=Helvetica;html=1;rounded=0;shadow=0;comic=0;labelBackgroundColor=none;strokeWidth=1;" parent="1" vertex="1">
          <mxGeometry x="5260" y="3424.5" width="580" height="385.5" as="geometry" />
        </mxCell>
        <mxCell id="node17" value="&lt;p style=&quot;margin:0px;margin-top:4px;text-align:center;&quot;&gt;&lt;b&gt;BankAccount&lt;/b&gt;&lt;/p&gt;&lt;hr size=&quot;1&quot;/&gt;&lt;p style=&quot;margin:0 0 0 4px;line-height:1.6;&quot;&gt;+ openDate: Date&lt;br/&gt;+ isReportLoss: Integer&lt;br/&gt;+ accountPassword: String&lt;br/&gt;+ accountID: String&lt;br/&gt;+ balance: BigDecimal&lt;br/&gt;+ openMoney: BigDecimal&lt;/p&gt;&lt;hr size=&quot;1&quot;/&gt;&lt;p style=&quot;margin:0 0 0 4px;line-height:1.6;&quot;&gt;+ equals(Object): boolean&lt;br/&gt;+ canEqual(Object): boolean&lt;br/&gt;+ hashCode(): int&lt;br/&gt;+ toString(): String&lt;/p&gt;&lt;hr size=&quot;1&quot;/&gt;&lt;p style=&quot;margin:0 0 0 4px;line-height:1.6;&quot;&gt;+ openDate: Date&lt;br/&gt;+ accountID: String&lt;br/&gt;+ balance: BigDecimal&lt;br/&gt;+ openMoney: BigDecimal&lt;br/&gt;+ accountPassword: String&lt;br/&gt;+ isReportLoss: Integer&lt;/p&gt;" style="verticalAlign=top;align=left;overflow=fill;fontSize=14;fontFamily=Helvetica;html=1;rounded=0;shadow=0;comic=0;labelBackgroundColor=none;strokeWidth=1;" parent="1" vertex="1">
          <mxGeometry x="2739" y="1346" width="185" height="388" as="geometry" />
        </mxCell>
        <mxCell id="node67" value="&lt;p style=&quot;margin:0px;margin-top:4px;text-align:center;&quot;&gt;&lt;i&gt;&amp;lt;&amp;lt;interface&amp;gt;&amp;gt;&lt;/i&gt;&lt;br/&gt;&lt;b&gt;BankAccountMapper&lt;/b&gt;&lt;/p&gt;&lt;hr size=&quot;1&quot;/&gt;&lt;p style=&quot;margin:0 0 0 4px;line-height:1.6;&quot;&gt;+ getAccountPassword(String): String&lt;br/&gt;+ openAccount(String, String, Date, BigDecimal, String, BigDecimal, Integer): void&lt;br/&gt;+ getAllAccountByUserId(String): List&amp;lt;BankAccount&amp;gt;&lt;br/&gt;+ getAccountInfoById(String): BankAccount&lt;br/&gt;+ updateMoney(String, BigDecimal): Integer&lt;/p&gt;" style="verticalAlign=top;align=left;overflow=fill;fontSize=14;fontFamily=Helvetica;html=1;rounded=0;shadow=0;comic=0;labelBackgroundColor=none;strokeWidth=1;" parent="1" vertex="1">
          <mxGeometry x="3171" y="663" width="386" height="142" as="geometry" />
        </mxCell>
        <mxCell id="node39" value="&lt;p style=&quot;margin:0px;margin-top:4px;text-align:center;&quot;&gt;&lt;i&gt;&amp;lt;&amp;lt;interface&amp;gt;&amp;gt;&lt;/i&gt;&lt;br/&gt;&lt;b&gt;BankAccountService&lt;/b&gt;&lt;/p&gt;&lt;hr size=&quot;1&quot;/&gt;&lt;p style=&quot;margin:0 0 0 4px;line-height:1.6;&quot;&gt;+ getAccountPassword(String): String&lt;br/&gt;+ getMoney(String, BigDecimal): void&lt;br/&gt;+ getBankAccountInfoById(String): BankAccount&lt;br/&gt;+ getAllAccountByUserId(String): List&amp;lt;BankAccount&amp;gt;&lt;br/&gt;+ transferMoney(String, String, BigDecimal): void&lt;br/&gt;+ saveMoney(String, BigDecimal): void&lt;br/&gt;+ openAccount(String, String): String&lt;/p&gt;" style="verticalAlign=top;align=left;overflow=fill;fontSize=14;fontFamily=Helvetica;html=1;rounded=0;shadow=0;comic=0;labelBackgroundColor=none;strokeWidth=1;" parent="1" vertex="1">
          <mxGeometry x="1724" y="-15" width="318" height="186" as="geometry" />
        </mxCell>
        <mxCell id="node58" value="&lt;p style=&quot;margin:0px;margin-top:4px;text-align:center;&quot;&gt;&lt;b&gt;BankAccountServiceImpl&lt;/b&gt;&lt;/p&gt;&lt;hr size=&quot;1&quot;/&gt;&lt;p style=&quot;margin:0 0 0 4px;line-height:1.6;&quot;&gt;+ openAccount(String, String): String&lt;br/&gt;+ getAccountPassword(String): String&lt;br/&gt;+ saveMoney(String, BigDecimal): void&lt;br/&gt;+ getMoney(String, BigDecimal): void&lt;br/&gt;+ getAllAccountByUserId(String): List&amp;lt;BankAccount&amp;gt;&lt;br/&gt;+ getBankAccountInfoById(String): BankAccount&lt;br/&gt;+ transferMoney(String, String, BigDecimal): void&lt;/p&gt;" style="verticalAlign=top;align=left;overflow=fill;fontSize=14;fontFamily=Helvetica;html=1;rounded=0;shadow=0;comic=0;labelBackgroundColor=none;strokeWidth=1;" parent="1" vertex="1">
          <mxGeometry x="1943" y="277" width="318" height="186" as="geometry" />
        </mxCell>
        <mxCell id="node36" value="&lt;p style=&quot;margin:0px;margin-top:4px;text-align:center;&quot;&gt;&lt;b&gt;BasicBusinessController&lt;/b&gt;&lt;/p&gt;&lt;hr size=&quot;1&quot;/&gt;&lt;p style=&quot;margin:0 0 0 4px;line-height:1.6;&quot;&gt;+ deleteSystemFunctionById(int): Response&lt;br/&gt;+ getSystemFunctionById(int): Response&lt;br/&gt;+ addSystemFunction(int, String, String): Response&lt;br/&gt;+ getMoney(String, BigDecimal, String): Response&lt;br/&gt;+ openAccount(String, String): Response&lt;br/&gt;+ saveMoney(String, BigDecimal, String): Response&lt;br/&gt;+ getAccountInfoById(String): Response&lt;br/&gt;+ getAllAccountId(HttpServletRequest): Response&lt;br/&gt;+ transferMoney(String, String, String, BigDecimal): Response&lt;/p&gt;&lt;hr size=&quot;1&quot;/&gt;&lt;p style=&quot;margin:0 0 0 4px;line-height:1.6;&quot;&gt;+ systemFunction: Response&lt;/p&gt;" style="verticalAlign=top;align=left;overflow=fill;fontSize=14;fontFamily=Helvetica;html=1;rounded=0;shadow=0;comic=0;labelBackgroundColor=none;strokeWidth=1;" parent="1" vertex="1">
          <mxGeometry x="3985" y="534" width="366" height="254" as="geometry" />
        </mxCell>
        <mxCell id="node5" value="&lt;p style=&quot;margin:0px;margin-top:4px;text-align:center;&quot;&gt;&lt;b&gt;Concierge&lt;/b&gt;&lt;/p&gt;&lt;hr size=&quot;1&quot;/&gt;&lt;p style=&quot;margin:0 0 0 4px;line-height:1.6;&quot;&gt;+ personalStatement: String&lt;br/&gt;+ age: int&lt;br/&gt;+ conciergeID: String&lt;br/&gt;+ gender: String&lt;br/&gt;+ conciergeName: String&lt;br/&gt;+ ConciergeLanguage: String&lt;/p&gt;&lt;hr size=&quot;1&quot;/&gt;&lt;p style=&quot;margin:0 0 0 4px;line-height:1.6;&quot;&gt;+ equals(Object): boolean&lt;br/&gt;+ toString(): String&lt;br/&gt;+ canEqual(Object): boolean&lt;br/&gt;+ hashCode(): int&lt;/p&gt;&lt;hr size=&quot;1&quot;/&gt;&lt;p style=&quot;margin:0 0 0 4px;line-height:1.6;&quot;&gt;+ age: int&lt;br/&gt;+ gender: String&lt;br/&gt;+ personalStatement: String&lt;br/&gt;+ conciergeID: String&lt;br/&gt;+ ConciergeLanguage: String&lt;br/&gt;+ conciergeName: String&lt;/p&gt;" style="verticalAlign=top;align=left;overflow=fill;fontSize=14;fontFamily=Helvetica;html=1;rounded=0;shadow=0;comic=0;labelBackgroundColor=none;strokeWidth=1;" parent="1" vertex="1">
          <mxGeometry x="2734" y="1808" width="190" height="388" as="geometry" />
        </mxCell>
        <mxCell id="node38" value="&lt;p style=&quot;margin:0px;margin-top:4px;text-align:center;&quot;&gt;&lt;b&gt;ConciergeController&lt;/b&gt;&lt;/p&gt;&lt;hr size=&quot;1&quot;/&gt;&lt;p style=&quot;margin:0 0 0 4px;line-height:1.6;&quot;&gt;+ ConciergeRequest(String, String): Response&lt;br/&gt;+ deleteConciergeRequest(String): Response&lt;br/&gt;+ ConciergeRequest(String): Response&lt;br/&gt;+ addConciergeRequest(String, String, Date): Response&lt;br/&gt;+ updateConciergeRequest(String, String): Response&lt;br/&gt;+ selectConciergeRequest(String): Response&lt;br/&gt;+ ConciergeRequestOnly(): Response&lt;/p&gt;" style="verticalAlign=top;align=left;overflow=fill;fontSize=14;fontFamily=Helvetica;html=1;rounded=0;shadow=0;comic=0;labelBackgroundColor=none;strokeWidth=1;" parent="1" vertex="1">
          <mxGeometry x="3857" y="965" width="331" height="186" as="geometry" />
        </mxCell>
        <mxCell id="node18" value="&lt;p style=&quot;margin:0px;margin-top:4px;text-align:center;&quot;&gt;&lt;b&gt;ConciergeRequest&lt;/b&gt;&lt;/p&gt;&lt;hr size=&quot;1&quot;/&gt;&lt;p style=&quot;margin:0 0 0 4px;line-height:1.6;&quot;&gt;+ booktime: Date&lt;br/&gt;+ gender: String&lt;br/&gt;+ ConciergeLanguage: String&lt;br/&gt;+ conciergeID: String&lt;br/&gt;+ conciergeName: String&lt;br/&gt;+ age: int&lt;br/&gt;+ personalStatement: String&lt;/p&gt;&lt;hr size=&quot;1&quot;/&gt;&lt;p style=&quot;margin:0 0 0 4px;line-height:1.6;&quot;&gt;+ equals(Object): boolean&lt;br/&gt;+ canEqual(Object): boolean&lt;br/&gt;+ hashCode(): int&lt;br/&gt;+ toString(): String&lt;/p&gt;&lt;hr size=&quot;1&quot;/&gt;&lt;p style=&quot;margin:0 0 0 4px;line-height:1.6;&quot;&gt;+ age: int&lt;br/&gt;+ gender: String&lt;br/&gt;+ conciergeID: String&lt;br/&gt;+ personalStatement: String&lt;br/&gt;+ booktime: Date&lt;br/&gt;+ ConciergeLanguage: String&lt;br/&gt;+ conciergeName: String&lt;/p&gt;" style="verticalAlign=top;align=left;overflow=fill;fontSize=14;fontFamily=Helvetica;html=1;rounded=0;shadow=0;comic=0;labelBackgroundColor=none;strokeWidth=1;" parent="1" vertex="1">
          <mxGeometry x="1642" y="729" width="190" height="432" as="geometry" />
        </mxCell>
        <mxCell id="node62" value="&lt;p style=&quot;margin:0px;margin-top:4px;text-align:center;&quot;&gt;&lt;i&gt;&amp;lt;&amp;lt;interface&amp;gt;&amp;gt;&lt;/i&gt;&lt;br/&gt;&lt;b&gt;ConciergeRequestMapper&lt;/b&gt;&lt;/p&gt;&lt;hr size=&quot;1&quot;/&gt;&lt;p style=&quot;margin:0 0 0 4px;line-height:1.6;&quot;&gt;+ selectConciergeRequest(String): int&lt;br/&gt;+ ConciergeRequest(String): List&amp;lt;ConciergeRequest&amp;gt;&lt;br/&gt;+ addConciergeRequest(UserConcierge): void&lt;br/&gt;+ ConciergeInfoFreeRequest(): List&amp;lt;Concierge&amp;gt;&lt;br/&gt;+ deleteConciergeRequest(String): void&lt;br/&gt;+ updateConciergeRequest(String, String): void&lt;br/&gt;+ ConciergeInfoRequest(String, String): List&amp;lt;Concierge&amp;gt;&lt;/p&gt;" style="verticalAlign=top;align=left;overflow=fill;fontSize=14;fontFamily=Helvetica;html=1;rounded=0;shadow=0;comic=0;labelBackgroundColor=none;strokeWidth=1;" parent="1" vertex="1">
          <mxGeometry x="287" y="937" width="337" height="186" as="geometry" />
        </mxCell>
        <mxCell id="node59" value="&lt;p style=&quot;margin:0px;margin-top:4px;text-align:center;&quot;&gt;&lt;i&gt;&amp;lt;&amp;lt;interface&amp;gt;&amp;gt;&lt;/i&gt;&lt;br/&gt;&lt;b&gt;ConciergeService&lt;/b&gt;&lt;/p&gt;&lt;hr size=&quot;1&quot;/&gt;&lt;p style=&quot;margin:0 0 0 4px;line-height:1.6;&quot;&gt;+ ConciergeInfoRequest(String): List&amp;lt;ConciergeRequest&amp;gt;&lt;br/&gt;+ updateConciergeRequest(String, String): boolean&lt;br/&gt;+ deleteConciergeRequest(String): boolean&lt;br/&gt;+ ConciergeRequest(String, String): List&amp;lt;Concierge&amp;gt;&lt;br/&gt;+ ConciergeFreeRequest(): List&amp;lt;Concierge&amp;gt;&lt;br/&gt;+ addConciergeRequest(UserConcierge): boolean&lt;br/&gt;+ selectConciergeRequest(String): int&lt;/p&gt;" style="verticalAlign=top;align=left;overflow=fill;fontSize=14;fontFamily=Helvetica;html=1;rounded=0;shadow=0;comic=0;labelBackgroundColor=none;strokeWidth=1;" parent="1" vertex="1">
          <mxGeometry x="400" y="641" width="342" height="186" as="geometry" />
        </mxCell>
        <mxCell id="node6" value="&lt;p style=&quot;margin:0px;margin-top:4px;text-align:center;&quot;&gt;&lt;b&gt;ConciergeServiceImpl&lt;/b&gt;&lt;/p&gt;&lt;hr size=&quot;1&quot;/&gt;&lt;p style=&quot;margin:0 0 0 4px;line-height:1.6;&quot;&gt;+ ConciergeFreeRequest(): List&amp;lt;Concierge&amp;gt;&lt;br/&gt;+ ConciergeInfoRequest(String): List&amp;lt;ConciergeRequest&amp;gt;&lt;br/&gt;+ updateConciergeRequest(String, String): boolean&lt;br/&gt;+ ConciergeRequest(String, String): List&amp;lt;Concierge&amp;gt;&lt;br/&gt;+ addConciergeRequest(UserConcierge): boolean&lt;br/&gt;+ selectConciergeRequest(String): int&lt;br/&gt;+ deleteConciergeRequest(String): boolean&lt;/p&gt;" style="verticalAlign=top;align=left;overflow=fill;fontSize=14;fontFamily=Helvetica;html=1;rounded=0;shadow=0;comic=0;labelBackgroundColor=none;strokeWidth=1;" parent="1" vertex="1">
          <mxGeometry x="-115" y="989" width="342" height="186" as="geometry" />
        </mxCell>
        <mxCell id="KCkjolmOv0YKm-Dr6y_E-12" style="edgeStyle=orthogonalEdgeStyle;rounded=0;orthogonalLoop=1;jettySize=auto;html=1;exitX=0.5;exitY=0;exitDx=0;exitDy=0;" edge="1" parent="1" source="node20" target="KCkjolmOv0YKm-Dr6y_E-2">
          <mxGeometry relative="1" as="geometry" />
        </mxCell>
        <mxCell id="node20" value="&lt;p style=&quot;margin:0px;margin-top:4px;text-align:center;&quot;&gt;&lt;b&gt;Consumer&lt;/b&gt;&lt;/p&gt;&lt;hr size=&quot;1&quot;/&gt;&lt;p style=&quot;margin:0 0 0 4px;line-height:1.6;&quot;&gt;+ getMessage(String): String&lt;/p&gt;" style="verticalAlign=top;align=left;overflow=fill;fontSize=14;fontFamily=Helvetica;html=1;rounded=0;shadow=0;comic=0;labelBackgroundColor=none;strokeWidth=1;" parent="1" vertex="1">
          <mxGeometry x="5210" y="3097" width="189" height="73" as="geometry" />
        </mxCell>
        <mxCell id="node19" value="&lt;p style=&quot;margin:0px;margin-top:4px;text-align:center;&quot;&gt;&lt;b&gt;ExceptionHandlerAdvice&lt;/b&gt;&lt;/p&gt;&lt;hr size=&quot;1&quot;/&gt;&lt;p style=&quot;margin:0 0 0 4px;line-height:1.6;&quot;&gt;+ handleIOexception(Exception): Response&lt;br/&gt;+ exception(Throwable): Response&lt;br/&gt;+ handleUnexpectedServer(Exception): Response&lt;br/&gt;+ badRequestException(IllegalArgumentException): Response&lt;br/&gt;+ handleTypeMismatchException(NullPointerException): Response&lt;/p&gt;" style="verticalAlign=top;align=left;overflow=fill;fontSize=14;fontFamily=Helvetica;html=1;rounded=0;shadow=0;comic=0;labelBackgroundColor=none;strokeWidth=1;" parent="1" vertex="1">
          <mxGeometry x="2720" y="527" width="390" height="142" as="geometry" />
        </mxCell>
        <mxCell id="node40" value="&lt;p style=&quot;margin:0px;margin-top:4px;text-align:center;&quot;&gt;&lt;b&gt;FileUploadResult&lt;/b&gt;&lt;/p&gt;&lt;hr size=&quot;1&quot;/&gt;&lt;p style=&quot;margin:0 0 0 4px;line-height:1.6;&quot;&gt;+ msg: String&lt;br/&gt;+ fileUrl: String&lt;br/&gt;+ success: boolean&lt;/p&gt;&lt;hr size=&quot;1&quot;/&gt;&lt;p style=&quot;margin:0 0 0 4px;line-height:1.6;&quot;&gt;+ success(String): FileUploadResult&lt;br/&gt;+ equals(Object): boolean&lt;br/&gt;+ canEqual(Object): boolean&lt;br/&gt;+ hashCode(): int&lt;br/&gt;+ toString(): String&lt;br/&gt;+ fail(String): FileUploadResult&lt;/p&gt;&lt;hr size=&quot;1&quot;/&gt;&lt;p style=&quot;margin:0 0 0 4px;line-height:1.6;&quot;&gt;+ fileUploadResult: FileUploadResult&lt;br/&gt;+ success: boolean&lt;br/&gt;+ msg: String&lt;br/&gt;+ fileUrl: String&lt;/p&gt;" style="verticalAlign=top;align=left;overflow=fill;fontSize=14;fontFamily=Helvetica;html=1;rounded=0;shadow=0;comic=0;labelBackgroundColor=none;strokeWidth=1;" parent="1" vertex="1">
          <mxGeometry x="1924" y="1185" width="228" height="322" as="geometry" />
        </mxCell>
        <mxCell id="node69" value="&lt;p style=&quot;margin:0px;margin-top:4px;text-align:center;&quot;&gt;&lt;b&gt;MessageController&lt;/b&gt;&lt;/p&gt;&lt;hr size=&quot;1&quot;/&gt;&lt;p style=&quot;margin:0 0 0 4px;line-height:1.6;&quot;&gt;+ consumer: Consumer&lt;br/&gt;+ producer: Producer&lt;/p&gt;&lt;hr size=&quot;1&quot;/&gt;&lt;p style=&quot;margin:0 0 0 4px;line-height:1.6;&quot;&gt;+ getMessage(HttpServletRequest): Response&lt;br/&gt;+ send(String, String): Response&lt;/p&gt;&lt;hr size=&quot;1&quot;/&gt;&lt;p style=&quot;margin:0 0 0 4px;line-height:1.6;&quot;&gt;+ producer: Producer&lt;br/&gt;+ consumer: Consumer&lt;/p&gt;" style="verticalAlign=top;align=left;overflow=fill;fontSize=14;fontFamily=Helvetica;html=1;rounded=0;shadow=0;comic=0;labelBackgroundColor=none;strokeWidth=1;" parent="1" vertex="1">
          <mxGeometry x="2760" y="781" width="275" height="168" as="geometry" />
        </mxCell>
        <mxCell id="node47" value="&lt;p style=&quot;margin:0px;margin-top:4px;text-align:center;&quot;&gt;&lt;i&gt;&amp;lt;&amp;lt;annotation&amp;gt;&amp;gt;&lt;/i&gt;&lt;br/&gt;&lt;b&gt;MessageLog&lt;/b&gt;&lt;/p&gt;&lt;hr size=&quot;1&quot;/&gt;&lt;p style=&quot;margin:0 0 0 4px;line-height:1.6;&quot;&gt;+ desc(): String&lt;/p&gt;" style="verticalAlign=top;align=left;overflow=fill;fontSize=14;fontFamily=Helvetica;html=1;rounded=0;shadow=0;comic=0;labelBackgroundColor=none;strokeWidth=1;" parent="1" vertex="1">
          <mxGeometry x="1772" y="1810" width="131" height="68" as="geometry" />
        </mxCell>
        <mxCell id="node12" value="&lt;p style=&quot;margin:0px;margin-top:4px;text-align:center;&quot;&gt;&lt;b&gt;MessageLogAspect&lt;/b&gt;&lt;/p&gt;&lt;hr size=&quot;1&quot;/&gt;&lt;p style=&quot;margin:0 0 0 4px;line-height:1.6;&quot;&gt;+ doBefore(JoinPoint): void&lt;br/&gt;+ messageLog(): void&lt;br/&gt;+ doAround(ProceedingJoinPoint): Object&lt;/p&gt;" style="verticalAlign=top;align=left;overflow=fill;fontSize=14;fontFamily=Helvetica;html=1;rounded=0;shadow=0;comic=0;labelBackgroundColor=none;strokeWidth=1;" parent="1" vertex="1">
          <mxGeometry x="1490" y="452" width="254" height="106" as="geometry" />
        </mxCell>
        <mxCell id="node70" value="&lt;p style=&quot;margin:0px;margin-top:4px;text-align:center;&quot;&gt;&lt;b&gt;MessageManager&lt;/b&gt;&lt;/p&gt;&lt;hr size=&quot;1&quot;/&gt;&lt;p style=&quot;margin:0 0 0 4px;line-height:1.6;&quot;&gt;+ doNormal(): void&lt;br/&gt;+ doAbnormal(): void&lt;/p&gt;" style="verticalAlign=top;align=left;overflow=fill;fontSize=14;fontFamily=Helvetica;html=1;rounded=0;shadow=0;comic=0;labelBackgroundColor=none;strokeWidth=1;" parent="1" vertex="1">
          <mxGeometry x="892" y="1348" width="170" height="82" as="geometry" />
        </mxCell>
        <mxCell id="node48" value="&lt;p style=&quot;margin:0px;margin-top:4px;text-align:center;&quot;&gt;&lt;b&gt;MessageRecv&lt;/b&gt;&lt;/p&gt;&lt;hr size=&quot;1&quot;/&gt;&lt;p style=&quot;margin:0 0 0 4px;line-height:1.6;&quot;&gt;+ message: String&lt;/p&gt;&lt;hr size=&quot;1&quot;/&gt;&lt;p style=&quot;margin:0 0 0 4px;line-height:1.6;&quot;&gt;+ message: String&lt;/p&gt;" style="verticalAlign=top;align=left;overflow=fill;fontSize=14;fontFamily=Helvetica;html=1;rounded=0;shadow=0;comic=0;labelBackgroundColor=none;strokeWidth=1;" parent="1" vertex="1">
          <mxGeometry x="1725" y="1645" width="142" height="84" as="geometry" />
        </mxCell>
        <mxCell id="node32" value="&lt;p style=&quot;margin:0px;margin-top:4px;text-align:center;&quot;&gt;&lt;b&gt;MessageResp&lt;/b&gt;&lt;/p&gt;&lt;hr size=&quot;1&quot;/&gt;&lt;p style=&quot;margin:0 0 0 4px;line-height:1.6;&quot;&gt;+ message: String&lt;/p&gt;&lt;hr size=&quot;1&quot;/&gt;&lt;p style=&quot;margin:0 0 0 4px;line-height:1.6;&quot;&gt;+ message: String&lt;/p&gt;" style="verticalAlign=top;align=left;overflow=fill;fontSize=14;fontFamily=Helvetica;html=1;rounded=0;shadow=0;comic=0;labelBackgroundColor=none;strokeWidth=1;" parent="1" vertex="1">
          <mxGeometry x="1254" y="1650" width="144" height="84" as="geometry" />
        </mxCell>
        <mxCell id="KCkjolmOv0YKm-Dr6y_E-13" style="edgeStyle=orthogonalEdgeStyle;rounded=0;orthogonalLoop=1;jettySize=auto;html=1;exitX=0.5;exitY=0;exitDx=0;exitDy=0;entryX=0.5;entryY=1;entryDx=0;entryDy=0;" edge="1" parent="1" source="node7" target="KCkjolmOv0YKm-Dr6y_E-2">
          <mxGeometry relative="1" as="geometry" />
        </mxCell>
        <mxCell id="node7" value="&lt;p style=&quot;margin:0px;margin-top:4px;text-align:center;&quot;&gt;&lt;b&gt;Producer&lt;/b&gt;&lt;/p&gt;&lt;hr size=&quot;1&quot;/&gt;&lt;p style=&quot;margin:0 0 0 4px;line-height:1.6;&quot;&gt;+ sendMessage(String, String): void&lt;/p&gt;" style="verticalAlign=top;align=left;overflow=fill;fontSize=14;fontFamily=Helvetica;html=1;rounded=0;shadow=0;comic=0;labelBackgroundColor=none;strokeWidth=1;" parent="1" vertex="1">
          <mxGeometry x="5440" y="3100" width="259.5" height="70" as="geometry" />
        </mxCell>
        <mxCell id="node26" value="&lt;p style=&quot;margin:0px;margin-top:4px;text-align:center;&quot;&gt;&lt;b&gt;ProjectServerApplication&lt;/b&gt;&lt;/p&gt;&lt;hr size=&quot;1&quot;/&gt;&lt;p style=&quot;margin:0 0 0 4px;line-height:1.6;&quot;&gt;+ main(String[]): void&lt;/p&gt;" style="verticalAlign=top;align=left;overflow=fill;fontSize=14;fontFamily=Helvetica;html=1;rounded=0;shadow=0;comic=0;labelBackgroundColor=none;strokeWidth=1;" parent="1" vertex="1">
          <mxGeometry x="1663" y="337" width="214" height="58" as="geometry" />
        </mxCell>
        <mxCell id="node33" value="&lt;p style=&quot;margin:0px;margin-top:4px;text-align:center;&quot;&gt;&lt;b&gt;Response&lt;/b&gt;&lt;/p&gt;&lt;hr size=&quot;1&quot;/&gt;&lt;p style=&quot;margin:0 0 0 4px;line-height:1.6;&quot;&gt;+ code: Integer&lt;br/&gt;+ data: Map&amp;lt;String, Object&amp;gt;&lt;br/&gt;+ success: boolean&lt;br/&gt;+ message: String&lt;/p&gt;&lt;hr size=&quot;1&quot;/&gt;&lt;p style=&quot;margin:0 0 0 4px;line-height:1.6;&quot;&gt;+ toString(): String&lt;br/&gt;+ equals(Object): boolean&lt;br/&gt;+ hashCode(): int&lt;br/&gt;+ canEqual(Object): boolean&lt;br/&gt;+ getResponse(ResponseCodeEnum): Response&lt;br/&gt;+ invalidRole(): Response&lt;br/&gt;+ emptyResponse(): Response&lt;br/&gt;+ invalidService(): Response&lt;br/&gt;+ code(Integer): Response&lt;br/&gt;+ invalidUser(): Response&lt;br/&gt;+ message(String): Response&lt;br/&gt;+ unknownError(): Response&lt;br/&gt;+ success(boolean): Response&lt;br/&gt;+ data(Map&amp;lt;String, Object&amp;gt;): Response&lt;br/&gt;+ data(String, Object): Response&lt;br/&gt;+ invalidPassword(): Response&lt;br/&gt;+ OK(): Response&lt;/p&gt;&lt;hr size=&quot;1&quot;/&gt;&lt;p style=&quot;margin:0 0 0 4px;line-height:1.6;&quot;&gt;+ data: Map&amp;lt;String, Object&amp;gt;&lt;br/&gt;+ code: Integer&lt;br/&gt;+ success: boolean&lt;br/&gt;+ message: String&lt;/p&gt;" style="verticalAlign=top;align=left;overflow=fill;fontSize=14;fontFamily=Helvetica;html=1;rounded=0;shadow=0;comic=0;labelBackgroundColor=none;strokeWidth=1;" parent="1" vertex="1">
          <mxGeometry x="663" y="1972" width="290" height="586" as="geometry" />
        </mxCell>
        <mxCell id="node65" value="&lt;p style=&quot;margin:0px;margin-top:4px;text-align:center;&quot;&gt;&lt;i&gt;&amp;lt;&amp;lt;enumeration&amp;gt;&amp;gt;&lt;/i&gt;&lt;br/&gt;&lt;b&gt;ResponseCodeEnum&lt;/b&gt;&lt;/p&gt;&lt;hr size=&quot;1&quot;/&gt;&lt;p style=&quot;margin:0 0 0 4px;line-height:1.6;&quot;&gt;+ code: Integer&lt;br/&gt;+ success: Boolean&lt;br/&gt;+ message: String&lt;/p&gt;&lt;hr size=&quot;1&quot;/&gt;&lt;p style=&quot;margin:0 0 0 4px;line-height:1.6;&quot;&gt;+ valueOf(String): ResponseCodeEnum&lt;br/&gt;+ values(): ResponseCodeEnum[]&lt;/p&gt;&lt;hr size=&quot;1&quot;/&gt;&lt;p style=&quot;margin:0 0 0 4px;line-height:1.6;&quot;&gt;+ code: Integer&lt;br/&gt;+ message: String&lt;br/&gt;+ success: Boolean&lt;/p&gt;" style="verticalAlign=top;align=left;overflow=fill;fontSize=14;fontFamily=Helvetica;html=1;rounded=0;shadow=0;comic=0;labelBackgroundColor=none;strokeWidth=1;" parent="1" vertex="1">
          <mxGeometry x="1340" y="634" width="242" height="212" as="geometry" />
        </mxCell>
        <mxCell id="node45" value="&lt;p style=&quot;margin:0px;margin-top:4px;text-align:center;&quot;&gt;&lt;b&gt;SecurityManager&lt;/b&gt;&lt;/p&gt;&lt;hr size=&quot;1&quot;/&gt;&lt;p style=&quot;margin:0 0 0 4px;line-height:1.6;&quot;&gt;+ doB(): void&lt;br/&gt;+ doA(): void&lt;/p&gt;" style="verticalAlign=top;align=left;overflow=fill;fontSize=14;fontFamily=Helvetica;html=1;rounded=0;shadow=0;comic=0;labelBackgroundColor=none;strokeWidth=1;" parent="1" vertex="1">
          <mxGeometry x="2378" y="1106" width="164" height="82" as="geometry" />
        </mxCell>
        <mxCell id="KCkjolmOv0YKm-Dr6y_E-48" style="edgeStyle=orthogonalEdgeStyle;rounded=0;orthogonalLoop=1;jettySize=auto;html=1;exitX=0.5;exitY=0;exitDx=0;exitDy=0;entryX=0.25;entryY=1;entryDx=0;entryDy=0;fontSize=36;" edge="1" parent="1" source="node16" target="KCkjolmOv0YKm-Dr6y_E-42">
          <mxGeometry relative="1" as="geometry" />
        </mxCell>
        <mxCell id="node16" value="&lt;p style=&quot;margin:0px;margin-top:4px;text-align:center;&quot;&gt;&lt;b&gt;SocketController&lt;/b&gt;&lt;/p&gt;&lt;hr size=&quot;1&quot;/&gt;&lt;p style=&quot;margin:0 0 0 4px;line-height:1.6;&quot;&gt;+ sendMessage(String): Response&lt;/p&gt;" style="verticalAlign=top;align=left;overflow=fill;fontSize=14;fontFamily=Helvetica;html=1;rounded=0;shadow=0;comic=0;labelBackgroundColor=none;strokeWidth=1;" parent="1" vertex="1">
          <mxGeometry x="3800" y="2770" width="260" height="77" as="geometry" />
        </mxCell>
        <mxCell id="node66" value="&lt;p style=&quot;margin:0px;margin-top:4px;text-align:center;&quot;&gt;&lt;b&gt;SystemFunction&lt;/b&gt;&lt;/p&gt;&lt;hr size=&quot;1&quot;/&gt;&lt;p style=&quot;margin:0 0 0 4px;line-height:1.6;&quot;&gt;+ functionName: String&lt;br/&gt;+ functionDescription: String&lt;br/&gt;+ functionID: int&lt;/p&gt;&lt;hr size=&quot;1&quot;/&gt;&lt;p style=&quot;margin:0 0 0 4px;line-height:1.6;&quot;&gt;+ functionName: String&lt;br/&gt;+ functionDescription: String&lt;br/&gt;+ functionID: int&lt;/p&gt;" style="verticalAlign=top;align=left;overflow=fill;fontSize=14;fontFamily=Helvetica;html=1;rounded=0;shadow=0;comic=0;labelBackgroundColor=none;strokeWidth=1;" parent="1" vertex="1">
          <mxGeometry x="1624" y="1349" width="189" height="166" as="geometry" />
        </mxCell>
        <mxCell id="node27" value="&lt;p style=&quot;margin:0px;margin-top:4px;text-align:center;&quot;&gt;&lt;i&gt;&amp;lt;&amp;lt;interface&amp;gt;&amp;gt;&lt;/i&gt;&lt;br/&gt;&lt;b&gt;SystemFunctionMapper&lt;/b&gt;&lt;/p&gt;&lt;hr size=&quot;1&quot;/&gt;&lt;p style=&quot;margin:0 0 0 4px;line-height:1.6;&quot;&gt;+ deleteSystemFunctionById(int): boolean&lt;br/&gt;+ addSystemFunction(int, String, String): boolean&lt;br/&gt;+ getSystemFunctionById(int): SystemFunction&lt;/p&gt;&lt;hr size=&quot;1&quot;/&gt;&lt;p style=&quot;margin:0 0 0 4px;line-height:1.6;&quot;&gt;+ systemFunction: List&amp;lt;SystemFunction&amp;gt;&lt;/p&gt;" style="verticalAlign=top;align=left;overflow=fill;fontSize=14;fontFamily=Helvetica;html=1;rounded=0;shadow=0;comic=0;labelBackgroundColor=none;strokeWidth=1;" parent="1" vertex="1">
          <mxGeometry x="396" y="1184" width="301" height="153" as="geometry" />
        </mxCell>
        <mxCell id="node0" value="&lt;p style=&quot;margin:0px;margin-top:4px;text-align:center;&quot;&gt;&lt;i&gt;&amp;lt;&amp;lt;interface&amp;gt;&amp;gt;&lt;/i&gt;&lt;br/&gt;&lt;b&gt;SystemFunctionService&lt;/b&gt;&lt;/p&gt;&lt;hr size=&quot;1&quot;/&gt;&lt;p style=&quot;margin:0 0 0 4px;line-height:1.6;&quot;&gt;+ getSystemFunctionById(int): SystemFunction&lt;br/&gt;+ addSystemFunction(int, String, String): boolean&lt;br/&gt;+ deleteSystemFunctionById(int): boolean&lt;/p&gt;&lt;hr size=&quot;1&quot;/&gt;&lt;p style=&quot;margin:0 0 0 4px;line-height:1.6;&quot;&gt;+ systemFunction: List&amp;lt;SystemFunction&amp;gt;&lt;/p&gt;" style="verticalAlign=top;align=left;overflow=fill;fontSize=14;fontFamily=Helvetica;html=1;rounded=0;shadow=0;comic=0;labelBackgroundColor=none;strokeWidth=1;" parent="1" vertex="1">
          <mxGeometry x="737" y="459" width="301" height="153" as="geometry" />
        </mxCell>
        <mxCell id="node37" value="&lt;p style=&quot;margin:0px;margin-top:4px;text-align:center;&quot;&gt;&lt;b&gt;SystemFunctionServiceImpl&lt;/b&gt;&lt;/p&gt;&lt;hr size=&quot;1&quot;/&gt;&lt;p style=&quot;margin:0 0 0 4px;line-height:1.6;&quot;&gt;+ addSystemFunction(int, String, String): boolean&lt;br/&gt;+ deleteSystemFunctionById(int): boolean&lt;br/&gt;+ getSystemFunctionById(int): SystemFunction&lt;/p&gt;&lt;hr size=&quot;1&quot;/&gt;&lt;p style=&quot;margin:0 0 0 4px;line-height:1.6;&quot;&gt;+ systemFunction: List&amp;lt;SystemFunction&amp;gt;&lt;/p&gt;" style="verticalAlign=top;align=left;overflow=fill;fontSize=14;fontFamily=Helvetica;html=1;rounded=0;shadow=0;comic=0;labelBackgroundColor=none;strokeWidth=1;" parent="1" vertex="1">
          <mxGeometry x="39" y="755" width="301" height="132" as="geometry" />
        </mxCell>
        <mxCell id="node46" value="&lt;p style=&quot;margin:0px;margin-top:4px;text-align:center;&quot;&gt;&lt;b&gt;TestController&lt;/b&gt;&lt;/p&gt;&lt;hr size=&quot;1&quot;/&gt;&lt;p style=&quot;margin:0 0 0 4px;line-height:1.6;&quot;&gt;+ test(MultipartFile): Response&lt;/p&gt;" style="verticalAlign=top;align=left;overflow=fill;fontSize=14;fontFamily=Helvetica;html=1;rounded=0;shadow=0;comic=0;labelBackgroundColor=none;strokeWidth=1;" parent="1" vertex="1">
          <mxGeometry x="2989" y="1373" width="198" height="58" as="geometry" />
        </mxCell>
        <mxCell id="node13" value="&lt;p style=&quot;margin:0px;margin-top:4px;text-align:center;&quot;&gt;&lt;b&gt;TradeRecord&lt;/b&gt;&lt;/p&gt;&lt;hr size=&quot;1&quot;/&gt;&lt;p style=&quot;margin:0 0 0 4px;line-height:1.6;&quot;&gt;+ accountID: String&lt;br/&gt;+ tradeTime: Date&lt;br/&gt;+ payeeAccountID: String&lt;br/&gt;+ functionID: Integer&lt;br/&gt;+ tradeAmount: BigDecimal&lt;br/&gt;+ recordID: String&lt;/p&gt;&lt;hr size=&quot;1&quot;/&gt;&lt;p style=&quot;margin:0 0 0 4px;line-height:1.6;&quot;&gt;+ equals(Object): boolean&lt;br/&gt;+ canEqual(Object): boolean&lt;br/&gt;+ toString(): String&lt;br/&gt;+ hashCode(): int&lt;/p&gt;&lt;hr size=&quot;1&quot;/&gt;&lt;p style=&quot;margin:0 0 0 4px;line-height:1.6;&quot;&gt;+ accountID: String&lt;br/&gt;+ tradeAmount: BigDecimal&lt;br/&gt;+ tradeTime: Date&lt;br/&gt;+ payeeAccountID: String&lt;br/&gt;+ functionID: Integer&lt;br/&gt;+ recordID: String&lt;/p&gt;" style="verticalAlign=top;align=left;overflow=fill;fontSize=14;fontFamily=Helvetica;html=1;rounded=0;shadow=0;comic=0;labelBackgroundColor=none;strokeWidth=1;" parent="1" vertex="1">
          <mxGeometry x="3247" y="1430" width="185" height="388" as="geometry" />
        </mxCell>
        <mxCell id="node9" value="&lt;p style=&quot;margin:0px;margin-top:4px;text-align:center;&quot;&gt;&lt;b&gt;TradeRecordController&lt;/b&gt;&lt;/p&gt;&lt;hr size=&quot;1&quot;/&gt;&lt;p style=&quot;margin:0 0 0 4px;line-height:1.6;&quot;&gt;+ getTradeRecordByAccountID(String): Response&lt;br/&gt;+ getTradeRecordByRecordID(Integer): Response&lt;/p&gt;" style="verticalAlign=top;align=left;overflow=fill;fontSize=14;fontFamily=Helvetica;html=1;rounded=0;shadow=0;comic=0;labelBackgroundColor=none;strokeWidth=1;" parent="1" vertex="1">
          <mxGeometry x="2384" y="736" width="296" height="82" as="geometry" />
        </mxCell>
        <mxCell id="node50" value="&lt;p style=&quot;margin:0px;margin-top:4px;text-align:center;&quot;&gt;&lt;b&gt;TradeRecordDisp&lt;/b&gt;&lt;/p&gt;&lt;hr size=&quot;1&quot;/&gt;&lt;p style=&quot;margin:0 0 0 4px;line-height:1.6;&quot;&gt;+ functionID: Integer&lt;br/&gt;+ payeeAccountID: String&lt;br/&gt;+ recordID: String&lt;br/&gt;+ tradeAmount: BigDecimal&lt;br/&gt;+ functionName: String&lt;br/&gt;+ tradeTime: Date&lt;br/&gt;+ accountID: String&lt;/p&gt;&lt;hr size=&quot;1&quot;/&gt;&lt;p style=&quot;margin:0 0 0 4px;line-height:1.6;&quot;&gt;+ toString(): String&lt;br/&gt;+ canEqual(Object): boolean&lt;br/&gt;+ hashCode(): int&lt;br/&gt;+ equals(Object): boolean&lt;/p&gt;&lt;hr size=&quot;1&quot;/&gt;&lt;p style=&quot;margin:0 0 0 4px;line-height:1.6;&quot;&gt;+ accountID: String&lt;br/&gt;+ tradeAmount: BigDecimal&lt;br/&gt;+ tradeTime: Date&lt;br/&gt;+ payeeAccountID: String&lt;br/&gt;+ functionID: Integer&lt;br/&gt;+ functionName: String&lt;br/&gt;+ recordID: String&lt;/p&gt;" style="verticalAlign=top;align=left;overflow=fill;fontSize=14;fontFamily=Helvetica;html=1;rounded=0;shadow=0;comic=0;labelBackgroundColor=none;strokeWidth=1;" parent="1" vertex="1">
          <mxGeometry x="1369" y="907" width="185" height="432" as="geometry" />
        </mxCell>
        <mxCell id="node21" value="&lt;p style=&quot;margin:0px;margin-top:4px;text-align:center;&quot;&gt;&lt;i&gt;&amp;lt;&amp;lt;interface&amp;gt;&amp;gt;&lt;/i&gt;&lt;br/&gt;&lt;b&gt;TradeRecordMapper&lt;/b&gt;&lt;/p&gt;&lt;hr size=&quot;1&quot;/&gt;&lt;p style=&quot;margin:0 0 0 4px;line-height:1.6;&quot;&gt;+ getTradeRecordByRecordID(Integer): TradeRecord&lt;br/&gt;+ getTradeRecordByAccountID(String): List&amp;lt;TradeRecordDisp&amp;gt;&lt;br/&gt;+ addTradeRecord(TradeRecord): Integer&lt;/p&gt;" style="verticalAlign=top;align=left;overflow=fill;fontSize=14;fontFamily=Helvetica;html=1;rounded=0;shadow=0;comic=0;labelBackgroundColor=none;strokeWidth=1;" parent="1" vertex="1">
          <mxGeometry x="689" y="887" width="370" height="123" as="geometry" />
        </mxCell>
        <mxCell id="node68" value="&lt;p style=&quot;margin:0px;margin-top:4px;text-align:center;&quot;&gt;&lt;i&gt;&amp;lt;&amp;lt;interface&amp;gt;&amp;gt;&lt;/i&gt;&lt;br/&gt;&lt;b&gt;TradeRecordService&lt;/b&gt;&lt;/p&gt;&lt;hr size=&quot;1&quot;/&gt;&lt;p style=&quot;margin:0 0 0 4px;line-height:1.6;&quot;&gt;+ getTradeRecordByAccountID(String): List&amp;lt;TradeRecordDisp&amp;gt;&lt;br/&gt;+ addTradeRecord(TradeRecord): Integer&lt;br/&gt;+ getTradeRecordByRecordID(Integer): TradeRecord&lt;/p&gt;" style="verticalAlign=top;align=left;overflow=fill;fontSize=14;fontFamily=Helvetica;html=1;rounded=0;shadow=0;comic=0;labelBackgroundColor=none;strokeWidth=1;" parent="1" vertex="1">
          <mxGeometry x="2444" y="189" width="370" height="123" as="geometry" />
        </mxCell>
        <mxCell id="node30" value="&lt;p style=&quot;margin:0px;margin-top:4px;text-align:center;&quot;&gt;&lt;b&gt;TradeRecordServiceImpl&lt;/b&gt;&lt;/p&gt;&lt;hr size=&quot;1&quot;/&gt;&lt;p style=&quot;margin:0 0 0 4px;line-height:1.6;&quot;&gt;+ addTradeRecord(TradeRecord): Integer&lt;br/&gt;+ getTradeRecordByAccountID(String): List&amp;lt;TradeRecordDisp&amp;gt;&lt;br/&gt;+ getTradeRecordByRecordID(Integer): TradeRecord&lt;/p&gt;" style="verticalAlign=top;align=left;overflow=fill;fontSize=14;fontFamily=Helvetica;html=1;rounded=0;shadow=0;comic=0;labelBackgroundColor=none;strokeWidth=1;" parent="1" vertex="1">
          <mxGeometry x="2323" y="348" width="370" height="106" as="geometry" />
        </mxCell>
        <mxCell id="node14" value="&lt;p style=&quot;margin:0px;margin-top:4px;text-align:center;&quot;&gt;&lt;b&gt;UnityController&lt;/b&gt;&lt;/p&gt;&lt;hr size=&quot;1&quot;/&gt;&lt;p style=&quot;margin:0 0 0 4px;line-height:1.6;&quot;&gt;+ addUnity(String, String, String): Response&lt;br/&gt;+ verifyUnity(String): Response&lt;br/&gt;+ deleteUnity(String): Response&lt;/p&gt;" style="verticalAlign=top;align=left;overflow=fill;fontSize=14;fontFamily=Helvetica;html=1;rounded=0;shadow=0;comic=0;labelBackgroundColor=none;strokeWidth=1;" parent="1" vertex="1">
          <mxGeometry x="2255" y="1247" width="269" height="106" as="geometry" />
        </mxCell>
        <mxCell id="node60" value="&lt;p style=&quot;margin:0px;margin-top:4px;text-align:center;&quot;&gt;&lt;i&gt;&amp;lt;&amp;lt;interface&amp;gt;&amp;gt;&lt;/i&gt;&lt;br/&gt;&lt;b&gt;UnityMapper&lt;/b&gt;&lt;/p&gt;&lt;hr size=&quot;1&quot;/&gt;&lt;p style=&quot;margin:0 0 0 4px;line-height:1.6;&quot;&gt;+ addUnity(String, String, String): boolean&lt;br/&gt;+ deleteUnity(String): boolean&lt;br/&gt;+ checkUnity(String): int&lt;br/&gt;+ verifyUnity(String): boolean&lt;/p&gt;" style="verticalAlign=top;align=left;overflow=fill;fontSize=14;fontFamily=Helvetica;html=1;rounded=0;shadow=0;comic=0;labelBackgroundColor=none;strokeWidth=1;" parent="1" vertex="1">
          <mxGeometry x="999" y="1789" width="262" height="150" as="geometry" />
        </mxCell>
        <mxCell id="node57" value="&lt;p style=&quot;margin:0px;margin-top:4px;text-align:center;&quot;&gt;&lt;i&gt;&amp;lt;&amp;lt;interface&amp;gt;&amp;gt;&lt;/i&gt;&lt;br/&gt;&lt;b&gt;UnityService&lt;/b&gt;&lt;/p&gt;&lt;hr size=&quot;1&quot;/&gt;&lt;p style=&quot;margin:0 0 0 4px;line-height:1.6;&quot;&gt;+ addUnity(String, String, String): boolean&lt;br/&gt;+ verifyUnity(String): boolean&lt;br/&gt;+ deleteUnity(String): boolean&lt;/p&gt;" style="verticalAlign=top;align=left;overflow=fill;fontSize=14;fontFamily=Helvetica;html=1;rounded=0;shadow=0;comic=0;labelBackgroundColor=none;strokeWidth=1;" parent="1" vertex="1">
          <mxGeometry x="2304" y="524" width="262" height="123" as="geometry" />
        </mxCell>
        <mxCell id="node34" value="&lt;p style=&quot;margin:0px;margin-top:4px;text-align:center;&quot;&gt;&lt;b&gt;UnityServiceImpl&lt;/b&gt;&lt;/p&gt;&lt;hr size=&quot;1&quot;/&gt;&lt;p style=&quot;margin:0 0 0 4px;line-height:1.6;&quot;&gt;+ addUnity(String, String, String): boolean&lt;br/&gt;+ deleteUnity(String): boolean&lt;br/&gt;+ verifyUnity(String): boolean&lt;/p&gt;" style="verticalAlign=top;align=left;overflow=fill;fontSize=14;fontFamily=Helvetica;html=1;rounded=0;shadow=0;comic=0;labelBackgroundColor=none;strokeWidth=1;" parent="1" vertex="1">
          <mxGeometry x="1869" y="524" width="262" height="106" as="geometry" />
        </mxCell>
        <mxCell id="node11" value="&lt;p style=&quot;margin:0px;margin-top:4px;text-align:center;&quot;&gt;&lt;b&gt;UploadFile&lt;/b&gt;&lt;/p&gt;&lt;hr size=&quot;1&quot;/&gt;&lt;p style=&quot;margin:0 0 0 4px;line-height:1.6;&quot;&gt;+ uploadFile(MultipartFile, String, String): FileUploadResult&lt;/p&gt;" style="verticalAlign=top;align=left;overflow=fill;fontSize=14;fontFamily=Helvetica;html=1;rounded=0;shadow=0;comic=0;labelBackgroundColor=none;strokeWidth=1;" parent="1" vertex="1">
          <mxGeometry x="2101" y="1880" width="349" height="58" as="geometry" />
        </mxCell>
        <mxCell id="node28" value="&lt;p style=&quot;margin:0px;margin-top:4px;text-align:center;&quot;&gt;&lt;b&gt;User&lt;/b&gt;&lt;/p&gt;&lt;hr size=&quot;1&quot;/&gt;&lt;p style=&quot;margin:0 0 0 4px;line-height:1.6;&quot;&gt;+ userId: String&lt;br/&gt;+ isValid: int&lt;br/&gt;+ userName: String&lt;br/&gt;+ age: int&lt;br/&gt;+ userPassword: String&lt;br/&gt;+ gender: String&lt;/p&gt;&lt;hr size=&quot;1&quot;/&gt;&lt;p style=&quot;margin:0 0 0 4px;line-height:1.6;&quot;&gt;+ equals(Object): boolean&lt;br/&gt;+ hashCode(): int&lt;br/&gt;+ canEqual(Object): boolean&lt;br/&gt;+ toString(): String&lt;/p&gt;&lt;hr size=&quot;1&quot;/&gt;&lt;p style=&quot;margin:0 0 0 4px;line-height:1.6;&quot;&gt;+ age: int&lt;br/&gt;+ gender: String&lt;br/&gt;+ userPassword: String&lt;br/&gt;+ isValid: int&lt;br/&gt;+ userName: String&lt;br/&gt;+ userId: String&lt;/p&gt;" style="verticalAlign=top;align=left;overflow=fill;fontSize=14;fontFamily=Helvetica;html=1;rounded=0;shadow=0;comic=0;labelBackgroundColor=none;strokeWidth=1;" parent="1" vertex="1">
          <mxGeometry x="2986" y="1794" width="185" height="388" as="geometry" />
        </mxCell>
        <mxCell id="node31" value="&lt;p style=&quot;margin:0px;margin-top:4px;text-align:center;&quot;&gt;&lt;b&gt;UserConcierge&lt;/b&gt;&lt;/p&gt;&lt;hr size=&quot;1&quot;/&gt;&lt;p style=&quot;margin:0 0 0 4px;line-height:1.6;&quot;&gt;+ conciergeName: String&lt;br/&gt;+ userID: String&lt;/p&gt;&lt;hr size=&quot;1&quot;/&gt;&lt;p style=&quot;margin:0 0 0 4px;line-height:1.6;&quot;&gt;+ equals(Object): boolean&lt;br/&gt;+ canEqual(Object): boolean&lt;br/&gt;+ hashCode(): int&lt;br/&gt;+ toString(): String&lt;/p&gt;&lt;hr size=&quot;1&quot;/&gt;&lt;p style=&quot;margin:0 0 0 4px;line-height:1.6;&quot;&gt;+ bookTime: Date&lt;br/&gt;+ conciergeName: String&lt;br/&gt;+ userID: String&lt;/p&gt;" style="verticalAlign=top;align=left;overflow=fill;fontSize=14;fontFamily=Helvetica;html=1;rounded=0;shadow=0;comic=0;labelBackgroundColor=none;strokeWidth=1;" parent="1" vertex="1">
          <mxGeometry x="853" y="1489" width="185" height="234" as="geometry" />
        </mxCell>
        <mxCell id="node3" value="&lt;p style=&quot;margin:0px;margin-top:4px;text-align:center;&quot;&gt;&lt;b&gt;UserController&lt;/b&gt;&lt;/p&gt;&lt;hr size=&quot;1&quot;/&gt;&lt;p style=&quot;margin:0 0 0 4px;line-height:1.6;&quot;&gt;+ register(String, String, String, String, int): Response&lt;br/&gt;+ getUserById(String): Response&lt;br/&gt;+ deleteUser(String): Response&lt;br/&gt;+ getUserName(HttpServletRequest): Response&lt;br/&gt;+ login(String, String): Response&lt;/p&gt;" style="verticalAlign=top;align=left;overflow=fill;fontSize=14;fontFamily=Helvetica;html=1;rounded=0;shadow=0;comic=0;labelBackgroundColor=none;strokeWidth=1;" parent="1" vertex="1">
          <mxGeometry x="1710" y="1939" width="320" height="142" as="geometry" />
        </mxCell>
        <mxCell id="node22" value="&lt;p style=&quot;margin:0px;margin-top:4px;text-align:center;&quot;&gt;&lt;i&gt;&amp;lt;&amp;lt;interface&amp;gt;&amp;gt;&lt;/i&gt;&lt;br/&gt;&lt;b&gt;UserMapper&lt;/b&gt;&lt;/p&gt;&lt;hr size=&quot;1&quot;/&gt;&lt;p style=&quot;margin:0 0 0 4px;line-height:1.6;&quot;&gt;+ deleteUser(String): boolean&lt;br/&gt;+ getUserById(String): User&lt;br/&gt;+ insertUser(String, String, String, String, int): boolean&lt;/p&gt;" style="verticalAlign=top;align=left;overflow=fill;fontSize=14;fontFamily=Helvetica;html=1;rounded=0;shadow=0;comic=0;labelBackgroundColor=none;strokeWidth=1;" parent="1" vertex="1">
          <mxGeometry x="1321" y="1828" width="326" height="123" as="geometry" />
        </mxCell>
        <mxCell id="node56" value="&lt;p style=&quot;margin:0px;margin-top:4px;text-align:center;&quot;&gt;&lt;i&gt;&amp;lt;&amp;lt;interface&amp;gt;&amp;gt;&lt;/i&gt;&lt;br/&gt;&lt;b&gt;UserService&lt;/b&gt;&lt;/p&gt;&lt;hr size=&quot;1&quot;/&gt;&lt;p style=&quot;margin:0 0 0 4px;line-height:1.6;&quot;&gt;+ getUserById(String): User&lt;br/&gt;+ insertUser(String, String, String, String, int): boolean&lt;br/&gt;+ deleteUser(String): boolean&lt;/p&gt;" style="verticalAlign=top;align=left;overflow=fill;fontSize=14;fontFamily=Helvetica;html=1;rounded=0;shadow=0;comic=0;labelBackgroundColor=none;strokeWidth=1;" parent="1" vertex="1">
          <mxGeometry x="2966" y="362" width="326" height="123" as="geometry" />
        </mxCell>
        <mxCell id="node4" value="&lt;p style=&quot;margin:0px;margin-top:4px;text-align:center;&quot;&gt;&lt;b&gt;UserServiceImpl&lt;/b&gt;&lt;/p&gt;&lt;hr size=&quot;1&quot;/&gt;&lt;p style=&quot;margin:0 0 0 4px;line-height:1.6;&quot;&gt;+ getUserById(String): User&lt;br/&gt;+ insertUser(String, String, String, String, int): boolean&lt;br/&gt;+ deleteUser(String): boolean&lt;/p&gt;" style="verticalAlign=top;align=left;overflow=fill;fontSize=14;fontFamily=Helvetica;html=1;rounded=0;shadow=0;comic=0;labelBackgroundColor=none;strokeWidth=1;" parent="1" vertex="1">
          <mxGeometry x="3354" y="492" width="326" height="106" as="geometry" />
        </mxCell>
        <mxCell id="node55" value="&lt;p style=&quot;margin:0px;margin-top:4px;text-align:center;&quot;&gt;&lt;b&gt;UtilityAccount&lt;/b&gt;&lt;/p&gt;&lt;hr size=&quot;1&quot;/&gt;&lt;p style=&quot;margin:0 0 0 4px;line-height:1.6;&quot;&gt;+ userID: String&lt;br/&gt;+ accountID: String&lt;br/&gt;+ utilityID: int&lt;br/&gt;+ utilityBalance: float&lt;/p&gt;&lt;hr size=&quot;1&quot;/&gt;&lt;p style=&quot;margin:0 0 0 4px;line-height:1.6;&quot;&gt;+ accountID: String&lt;br/&gt;+ utilityBalance: float&lt;br/&gt;+ utilityID: int&lt;br/&gt;+ userID: String&lt;/p&gt;" style="verticalAlign=top;align=left;overflow=fill;fontSize=14;fontFamily=Helvetica;html=1;rounded=0;shadow=0;comic=0;labelBackgroundColor=none;strokeWidth=1;" parent="1" vertex="1">
          <mxGeometry x="3446" y="1158" width="147" height="210" as="geometry" />
        </mxCell>
        <mxCell id="node8" value="&lt;p style=&quot;margin:0px;margin-top:4px;text-align:center;&quot;&gt;&lt;b&gt;UtilityAccountDisp&lt;/b&gt;&lt;/p&gt;&lt;hr size=&quot;1&quot;/&gt;&lt;p style=&quot;margin:0 0 0 4px;line-height:1.6;&quot;&gt;+ accountID: String&lt;br/&gt;+ userID: String&lt;br/&gt;+ utilityBalance: float&lt;br/&gt;+ utilityName: String&lt;/p&gt;&lt;hr size=&quot;1&quot;/&gt;&lt;p style=&quot;margin:0 0 0 4px;line-height:1.6;&quot;&gt;+ accountID: String&lt;br/&gt;+ utilityBalance: float&lt;br/&gt;+ utilityName: String&lt;br/&gt;+ utilityID: String&lt;br/&gt;+ userID: String&lt;/p&gt;" style="verticalAlign=top;align=left;overflow=fill;fontSize=14;fontFamily=Helvetica;html=1;rounded=0;shadow=0;comic=0;labelBackgroundColor=none;strokeWidth=1;" parent="1" vertex="1">
          <mxGeometry x="3587" y="866" width="175" height="232" as="geometry" />
        </mxCell>
        <mxCell id="node71" value="&lt;p style=&quot;margin:0px;margin-top:4px;text-align:center;&quot;&gt;&lt;b&gt;UtilityController&lt;/b&gt;&lt;/p&gt;&lt;hr size=&quot;1&quot;/&gt;&lt;p style=&quot;margin:0 0 0 4px;line-height:1.6;&quot;&gt;+ addUtilityAccount(String, int, String, double): Response&lt;br/&gt;+ getUtilityAccountById(String): Response&lt;br/&gt;+ utilityPayment(String, double, int, String, String): Response&lt;/p&gt;&lt;hr size=&quot;1&quot;/&gt;&lt;p style=&quot;margin:0 0 0 4px;line-height:1.6;&quot;&gt;+ utilityAccount: Response&lt;br/&gt;+ utilityFunction: Response&lt;/p&gt;" style="verticalAlign=top;align=left;overflow=fill;fontSize=14;fontFamily=Helvetica;html=1;rounded=0;shadow=0;comic=0;labelBackgroundColor=none;strokeWidth=1;" parent="1" vertex="1">
          <mxGeometry x="1936" y="1567" width="363" height="144" as="geometry" />
        </mxCell>
        <mxCell id="node63" value="&lt;p style=&quot;margin:0px;margin-top:4px;text-align:center;&quot;&gt;&lt;i&gt;&amp;lt;&amp;lt;annotation&amp;gt;&amp;gt;&lt;/i&gt;&lt;br/&gt;&lt;b&gt;UtilityLog&lt;/b&gt;&lt;/p&gt;&lt;hr size=&quot;1&quot;/&gt;&lt;p style=&quot;margin:0 0 0 4px;line-height:1.6;&quot;&gt;+ desc(): String&lt;/p&gt;" style="verticalAlign=top;align=left;overflow=fill;fontSize=14;fontFamily=Helvetica;html=1;rounded=0;shadow=0;comic=0;labelBackgroundColor=none;strokeWidth=1;" parent="1" vertex="1">
          <mxGeometry x="1794" y="2141" width="117" height="68" as="geometry" />
        </mxCell>
        <mxCell id="node61" value="&lt;p style=&quot;margin:0px;margin-top:4px;text-align:center;&quot;&gt;&lt;b&gt;UtilityLogAspect&lt;/b&gt;&lt;/p&gt;&lt;hr size=&quot;1&quot;/&gt;&lt;p style=&quot;margin:0 0 0 4px;line-height:1.6;&quot;&gt;+ doBefore(JoinPoint): void&lt;br/&gt;+ utilityLog(): void&lt;br/&gt;+ doAround(ProceedingJoinPoint): Object&lt;/p&gt;" style="verticalAlign=top;align=left;overflow=fill;fontSize=14;fontFamily=Helvetica;html=1;rounded=0;shadow=0;comic=0;labelBackgroundColor=none;strokeWidth=1;" parent="1" vertex="1">
          <mxGeometry x="1176" y="1405" width="254" height="106" as="geometry" />
        </mxCell>
        <mxCell id="node35" value="&lt;p style=&quot;margin:0px;margin-top:4px;text-align:center;&quot;&gt;&lt;b&gt;UtilityManager&lt;/b&gt;&lt;/p&gt;&lt;hr size=&quot;1&quot;/&gt;&lt;p style=&quot;margin:0 0 0 4px;line-height:1.6;&quot;&gt;+ doAbnormal(): void&lt;br/&gt;+ doNormal(): void&lt;/p&gt;" style="verticalAlign=top;align=left;overflow=fill;fontSize=14;fontFamily=Helvetica;html=1;rounded=0;shadow=0;comic=0;labelBackgroundColor=none;strokeWidth=1;" parent="1" vertex="1">
          <mxGeometry x="1487" y="1576" width="150" height="82" as="geometry" />
        </mxCell>
        <mxCell id="node72" value="&lt;p style=&quot;margin:0px;margin-top:4px;text-align:center;&quot;&gt;&lt;i&gt;&amp;lt;&amp;lt;interface&amp;gt;&amp;gt;&lt;/i&gt;&lt;br/&gt;&lt;b&gt;UtilityMapper&lt;/b&gt;&lt;/p&gt;&lt;hr size=&quot;1&quot;/&gt;&lt;p style=&quot;margin:0 0 0 4px;line-height:1.6;&quot;&gt;+ deleteUtilityFunctionById(int): void&lt;br/&gt;+ utilityPayment(String, BigDecimal, int): void&lt;br/&gt;+ addUtilityAccount(String, int, String, double): void&lt;br/&gt;+ addUtilityFunction(int, String): void&lt;br/&gt;+ getUtilityAccountById(String): UtilityAccount&lt;/p&gt;&lt;hr size=&quot;1&quot;/&gt;&lt;p style=&quot;margin:0 0 0 4px;line-height:1.6;&quot;&gt;+ utilityFunction: List&amp;lt;SystemFunction&amp;gt;&lt;br/&gt;+ utilityAccount: List&amp;lt;UtilityAccountDisp&amp;gt;&lt;/p&gt;" style="verticalAlign=top;align=left;overflow=fill;fontSize=14;fontFamily=Helvetica;html=1;rounded=0;shadow=0;comic=0;labelBackgroundColor=none;strokeWidth=1;" parent="1" vertex="1">
          <mxGeometry x="2360" y="1606" width="314" height="188" as="geometry" />
        </mxCell>
        <mxCell id="node25" value="&lt;p style=&quot;margin:0px;margin-top:4px;text-align:center;&quot;&gt;&lt;i&gt;&amp;lt;&amp;lt;interface&amp;gt;&amp;gt;&lt;/i&gt;&lt;br/&gt;&lt;b&gt;UtilityService&lt;/b&gt;&lt;/p&gt;&lt;hr size=&quot;1&quot;/&gt;&lt;p style=&quot;margin:0 0 0 4px;line-height:1.6;&quot;&gt;+ getUtilityAccountById(String): UtilityAccount&lt;br/&gt;+ addUtilityAccount(String, int, String, double): boolean&lt;br/&gt;+ utilityPayment(String, BigDecimal, int, String): boolean&lt;/p&gt;&lt;hr size=&quot;1&quot;/&gt;&lt;p style=&quot;margin:0 0 0 4px;line-height:1.6;&quot;&gt;+ utilityFunction: List&amp;lt;SystemFunction&amp;gt;&lt;br/&gt;+ utilityAccount: List&amp;lt;UtilityAccountDisp&amp;gt;&lt;/p&gt;" style="verticalAlign=top;align=left;overflow=fill;fontSize=14;fontFamily=Helvetica;html=1;rounded=0;shadow=0;comic=0;labelBackgroundColor=none;strokeWidth=1;" parent="1" vertex="1">
          <mxGeometry x="898" y="12" width="340" height="144" as="geometry" />
        </mxCell>
        <mxCell id="node42" value="&lt;p style=&quot;margin:0px;margin-top:4px;text-align:center;&quot;&gt;&lt;b&gt;UtilityServiceImpl&lt;/b&gt;&lt;/p&gt;&lt;hr size=&quot;1&quot;/&gt;&lt;p style=&quot;margin:0 0 0 4px;line-height:1.6;&quot;&gt;+ getUtilityAccountById(String): UtilityAccount&lt;br/&gt;+ addUtilityAccount(String, int, String, double): boolean&lt;br/&gt;+ utilityPayment(String, BigDecimal, int, String): boolean&lt;/p&gt;&lt;hr size=&quot;1&quot;/&gt;&lt;p style=&quot;margin:0 0 0 4px;line-height:1.6;&quot;&gt;+ utilityFunction: List&amp;lt;SystemFunction&amp;gt;&lt;br/&gt;+ utilityAccount: List&amp;lt;UtilityAccountDisp&amp;gt;&lt;/p&gt;" style="verticalAlign=top;align=left;overflow=fill;fontSize=14;fontFamily=Helvetica;html=1;rounded=0;shadow=0;comic=0;labelBackgroundColor=none;strokeWidth=1;" parent="1" vertex="1">
          <mxGeometry x="1323" y="71" width="340" height="144" as="geometry" />
        </mxCell>
        <mxCell id="node10" value="&lt;p style=&quot;margin:0px;margin-top:4px;text-align:center;&quot;&gt;&lt;i&gt;&amp;lt;&amp;lt;annotation&amp;gt;&amp;gt;&lt;/i&gt;&lt;br/&gt;&lt;b&gt;WebLog&lt;/b&gt;&lt;/p&gt;&lt;hr size=&quot;1&quot;/&gt;&lt;p style=&quot;margin:0 0 0 4px;line-height:1.6;&quot;&gt;+ desc(): String&lt;/p&gt;" style="verticalAlign=top;align=left;overflow=fill;fontSize=14;fontFamily=Helvetica;html=1;rounded=0;shadow=0;comic=0;labelBackgroundColor=none;strokeWidth=1;" parent="1" vertex="1">
          <mxGeometry x="2525" y="1866" width="117" height="68" as="geometry" />
        </mxCell>
        <mxCell id="node64" value="&lt;p style=&quot;margin:0px;margin-top:4px;text-align:center;&quot;&gt;&lt;b&gt;WebLogAspect&lt;/b&gt;&lt;/p&gt;&lt;hr size=&quot;1&quot;/&gt;&lt;p style=&quot;margin:0 0 0 4px;line-height:1.6;&quot;&gt;+ doBefore(JoinPoint): void&lt;br/&gt;+ webLog(): void&lt;br/&gt;+ doAround(ProceedingJoinPoint): Object&lt;/p&gt;" style="verticalAlign=top;align=left;overflow=fill;fontSize=14;fontFamily=Helvetica;html=1;rounded=0;shadow=0;comic=0;labelBackgroundColor=none;strokeWidth=1;" parent="1" vertex="1">
          <mxGeometry x="2656" y="1186" width="254" height="106" as="geometry" />
        </mxCell>
        <mxCell id="node24" value="&lt;p style=&quot;margin:0px;margin-top:4px;text-align:center;&quot;&gt;&lt;b&gt;WebSocketConfig&lt;/b&gt;&lt;/p&gt;&lt;hr size=&quot;1&quot;/&gt;&lt;p style=&quot;margin:0 0 0 4px;line-height:1.6;&quot;&gt;+ registerStompEndpoints(StompEndpointRegistry): void&lt;br/&gt;+ configureMessageBroker(MessageBrokerRegistry): void&lt;/p&gt;" style="verticalAlign=top;align=left;overflow=fill;fontSize=14;fontFamily=Helvetica;html=1;rounded=0;shadow=0;comic=0;labelBackgroundColor=none;strokeWidth=1;" parent="1" vertex="1">
          <mxGeometry x="2617" y="1042" width="341" height="82" as="geometry" />
        </mxCell>
        <mxCell id="node73" value="&lt;p style=&quot;margin:0px;margin-top:4px;text-align:center;&quot;&gt;&lt;b&gt;WebSocketService&lt;/b&gt;&lt;/p&gt;&lt;hr size=&quot;1&quot;/&gt;&lt;p style=&quot;margin:0 0 0 4px;line-height:1.6;&quot;&gt;+ sendMsg(String): void&lt;br/&gt;+ sendToUser(String, String): void&lt;/p&gt;" style="verticalAlign=top;align=left;overflow=fill;fontSize=14;fontFamily=Helvetica;html=1;rounded=0;shadow=0;comic=0;labelBackgroundColor=none;strokeWidth=1;" parent="1" vertex="1">
          <mxGeometry x="2059" y="1044" width="217" height="82" as="geometry" />
        </mxCell>
        <mxCell id="node1" value="&lt;p style=&quot;margin:0px;margin-top:4px;text-align:center;&quot;&gt;&lt;b&gt;generateBankAccount&lt;/b&gt;&lt;/p&gt;&lt;hr size=&quot;1&quot;/&gt;&lt;p style=&quot;margin:0 0 0 4px;line-height:1.6;&quot;&gt;+ main(String[]): void&lt;br/&gt;+ getBankNumber(String): String?&lt;br/&gt;+ checkBankCard(String): boolean&lt;br/&gt;+ getBankCardCheckCode(String): char&lt;/p&gt;&lt;hr size=&quot;1&quot;/&gt;&lt;p style=&quot;margin:0 0 0 4px;line-height:1.6;&quot;&gt;+ unixTime: String&lt;/p&gt;" style="verticalAlign=top;align=left;overflow=fill;fontSize=14;fontFamily=Helvetica;html=1;rounded=0;shadow=0;comic=0;labelBackgroundColor=none;strokeWidth=1;" parent="1" vertex="1">
          <mxGeometry x="3676" y="650" width="244" height="144" as="geometry" />
        </mxCell>
        <mxCell id="node51" value="&lt;p style=&quot;margin:0px;margin-top:4px;text-align:center;&quot;&gt;&lt;b&gt;unityUser&lt;/b&gt;&lt;/p&gt;&lt;hr size=&quot;1&quot;/&gt;&lt;p style=&quot;margin:0 0 0 4px;line-height:1.6;&quot;&gt;+ authorization: int&lt;br/&gt;+ unityID: String&lt;/p&gt;&lt;hr size=&quot;1&quot;/&gt;&lt;p style=&quot;margin:0 0 0 4px;line-height:1.6;&quot;&gt;+ unityID: String&lt;br/&gt;+ authorization: int&lt;/p&gt;" style="verticalAlign=top;align=left;overflow=fill;fontSize=14;fontFamily=Helvetica;html=1;rounded=0;shadow=0;comic=0;labelBackgroundColor=none;strokeWidth=1;" parent="1" vertex="1">
          <mxGeometry x="1435" y="1986" width="137" height="132" as="geometry" />
        </mxCell>
        <mxCell id="edge1" value="" style="html=1;rounded=1;edgeStyle=orthogonalEdgeStyle;dashed=1;startArrow=none;endArrow=block;endSize=12;strokeColor=#008200;exitX=0.000;exitY=0.307;exitDx=0;exitDy=0;entryX=1.000;entryY=0.500;entryDx=0;entryDy=0;" parent="1" source="node54" target="node2" edge="1">
          <mxGeometry width="50" height="50" relative="1" as="geometry">
            <Array as="points" />
          </mxGeometry>
        </mxCell>
        <mxCell id="edge2" value="" style="html=1;rounded=1;edgeStyle=orthogonalEdgeStyle;dashed=1;startArrow=none;endArrow=block;endSize=12;strokeColor=#008200;exitX=0.024;exitY=0.000;exitDx=0;exitDy=0;entryX=0.714;entryY=1.000;entryDx=0;entryDy=0;" parent="1" source="node58" target="node39" edge="1">
          <mxGeometry width="50" height="50" relative="1" as="geometry">
            <Array as="points" />
          </mxGeometry>
        </mxCell>
        <mxCell id="edge6" value="" style="html=1;rounded=1;edgeStyle=orthogonalEdgeStyle;dashed=1;startArrow=none;endArrow=block;endSize=12;strokeColor=#008200;exitX=0.400;exitY=0.000;exitDx=0;exitDy=0;entryX=0.000;entryY=0.500;entryDx=0;entryDy=0;" parent="1" source="node6" target="node59" edge="1">
          <mxGeometry width="50" height="50" relative="1" as="geometry">
            <Array as="points">
              <mxPoint x="21" y="734" />
            </Array>
          </mxGeometry>
        </mxCell>
        <mxCell id="edge0" value="" style="html=1;rounded=1;edgeStyle=orthogonalEdgeStyle;dashed=1;startArrow=none;endArrow=block;endSize=12;strokeColor=#008200;exitX=1.000;exitY=0.732;exitDx=0;exitDy=0;entryX=0.500;entryY=1.000;entryDx=0;entryDy=0;" parent="1" source="node37" target="node0" edge="1">
          <mxGeometry width="50" height="50" relative="1" as="geometry">
            <Array as="points">
              <mxPoint x="888" y="845" />
            </Array>
          </mxGeometry>
        </mxCell>
        <mxCell id="edge7" value="" style="html=1;rounded=1;edgeStyle=orthogonalEdgeStyle;dashed=1;startArrow=none;endArrow=block;endSize=12;strokeColor=#008200;exitX=0.826;exitY=0.000;exitDx=0;exitDy=0;entryX=0.500;entryY=1.000;entryDx=0;entryDy=0;" parent="1" source="node30" target="node68" edge="1">
          <mxGeometry width="50" height="50" relative="1" as="geometry">
            <Array as="points" />
          </mxGeometry>
        </mxCell>
        <mxCell id="edge3" value="" style="html=1;rounded=1;edgeStyle=orthogonalEdgeStyle;dashed=1;startArrow=none;endArrow=block;endSize=12;strokeColor=#008200;exitX=1.000;exitY=0.504;exitDx=0;exitDy=0;entryX=0.000;entryY=0.500;entryDx=0;entryDy=0;" parent="1" source="node34" target="node57" edge="1">
          <mxGeometry width="50" height="50" relative="1" as="geometry">
            <Array as="points" />
          </mxGeometry>
        </mxCell>
        <mxCell id="edge4" value="" style="html=1;rounded=1;edgeStyle=orthogonalEdgeStyle;dashed=1;startArrow=none;endArrow=block;endSize=12;strokeColor=#008200;exitX=0.500;exitY=0.000;exitDx=0;exitDy=0;entryX=1.000;entryY=0.500;entryDx=0;entryDy=0;" parent="1" source="node4" target="node56" edge="1">
          <mxGeometry width="50" height="50" relative="1" as="geometry">
            <Array as="points">
              <mxPoint x="3517" y="411" />
            </Array>
          </mxGeometry>
        </mxCell>
        <mxCell id="edge5" value="" style="html=1;rounded=1;edgeStyle=orthogonalEdgeStyle;dashed=1;startArrow=none;endArrow=block;endSize=12;strokeColor=#008200;exitX=0.000;exitY=0.089;exitDx=0;exitDy=0;entryX=1.000;entryY=0.500;entryDx=0;entryDy=0;" parent="1" source="node42" target="node25" edge="1">
          <mxGeometry width="50" height="50" relative="1" as="geometry">
            <Array as="points" />
          </mxGeometry>
        </mxCell>
        <mxCell id="R-M30CxggkiC4CBZBjgB-1" value="&lt;p style=&quot;margin:0px;margin-top:4px;text-align:center;&quot;&gt;&lt;b&gt;NavMenu.vue&lt;/b&gt;&lt;/p&gt;&lt;hr size=&quot;1&quot;/&gt;" style="verticalAlign=top;align=left;overflow=fill;fontSize=14;fontFamily=Helvetica;html=1;rounded=0;shadow=0;comic=0;labelBackgroundColor=none;strokeWidth=1;" parent="1" vertex="1">
          <mxGeometry x="-629" y="1161" width="109" height="33" as="geometry" />
        </mxCell>
        <mxCell id="R-M30CxggkiC4CBZBjgB-2" value="&lt;p style=&quot;margin:0px;margin-top:4px;text-align:center;&quot;&gt;&lt;b&gt;Register&lt;/b&gt;&lt;/p&gt;&lt;hr size=&quot;1&quot;/&gt;" style="verticalAlign=top;align=left;overflow=fill;fontSize=14;fontFamily=Helvetica;html=1;rounded=0;shadow=0;comic=0;labelBackgroundColor=none;strokeWidth=1;" parent="1" vertex="1">
          <mxGeometry x="-1754" y="155" width="72" height="33" as="geometry" />
        </mxCell>
        <mxCell id="R-M30CxggkiC4CBZBjgB-3" value="&lt;p style=&quot;margin:0px;margin-top:4px;text-align:center;&quot;&gt;&lt;b&gt;Unity&lt;/b&gt;&lt;/p&gt;&lt;hr size=&quot;1&quot;/&gt;" style="verticalAlign=top;align=left;overflow=fill;fontSize=14;fontFamily=Helvetica;html=1;rounded=0;shadow=0;comic=0;labelBackgroundColor=none;strokeWidth=1;" parent="1" vertex="1">
          <mxGeometry x="-1597" y="199" width="53" height="33" as="geometry" />
        </mxCell>
        <mxCell id="R-M30CxggkiC4CBZBjgB-4" value="&lt;p style=&quot;margin:0px;margin-top:4px;text-align:center;&quot;&gt;&lt;b&gt;Unityverify&lt;/b&gt;&lt;/p&gt;&lt;hr size=&quot;1&quot;/&gt;" style="verticalAlign=top;align=left;overflow=fill;fontSize=14;fontFamily=Helvetica;html=1;rounded=0;shadow=0;comic=0;labelBackgroundColor=none;strokeWidth=1;" parent="1" vertex="1">
          <mxGeometry x="-1895" y="137" width="89" height="33" as="geometry" />
        </mxCell>
        <mxCell id="R-M30CxggkiC4CBZBjgB-5" value="&lt;p style=&quot;margin:0px;margin-top:4px;text-align:center;&quot;&gt;&lt;b&gt;assistanceFunction/assistanceManagement.vue&lt;/b&gt;&lt;/p&gt;&lt;hr size=&quot;1&quot;/&gt;&lt;p style=&quot;margin:0 0 0 4px;line-height:1.6;&quot;&gt; assistanceTable: &lt;br/&gt; utilityAccountTable: &lt;/p&gt;" style="verticalAlign=top;align=left;overflow=fill;fontSize=14;fontFamily=Helvetica;html=1;rounded=0;shadow=0;comic=0;labelBackgroundColor=none;strokeWidth=1;" parent="1" vertex="1">
          <mxGeometry x="-968" y="593" width="350" height="84" as="geometry" />
        </mxCell>
        <mxCell id="R-M30CxggkiC4CBZBjgB-6" value="&lt;p style=&quot;margin:0px;margin-top:4px;text-align:center;&quot;&gt;&lt;b&gt;assistanceFunction/initAccountAssistance.vue&lt;/b&gt;&lt;/p&gt;&lt;hr size=&quot;1&quot;/&gt;&lt;p style=&quot;margin:0 0 0 4px;line-height:1.6;&quot;&gt; Decrypt: &lt;br/&gt; Encrypt: &lt;/p&gt;" style="verticalAlign=top;align=left;overflow=fill;fontSize=14;fontFamily=Helvetica;html=1;rounded=0;shadow=0;comic=0;labelBackgroundColor=none;strokeWidth=1;" parent="1" vertex="1">
          <mxGeometry x="-1494" y="372" width="339" height="84" as="geometry" />
        </mxCell>
        <mxCell id="R-M30CxggkiC4CBZBjgB-7" value="&lt;p style=&quot;margin:0px;margin-top:4px;text-align:center;&quot;&gt;&lt;b&gt;assistanceFunction/initAssistance.vue&lt;/b&gt;&lt;/p&gt;&lt;hr size=&quot;1&quot;/&gt;&lt;p style=&quot;margin:0 0 0 4px;line-height:1.6;&quot;&gt; initAccountAssistance: &lt;br/&gt; initTransferAssistance: &lt;br/&gt; initUtilityAssistance: &lt;/p&gt;" style="verticalAlign=top;align=left;overflow=fill;fontSize=14;fontFamily=Helvetica;html=1;rounded=0;shadow=0;comic=0;labelBackgroundColor=none;strokeWidth=1;" parent="1" vertex="1">
          <mxGeometry x="-1402" y="555" width="284" height="108" as="geometry" />
        </mxCell>
        <mxCell id="R-M30CxggkiC4CBZBjgB-8" value="&lt;p style=&quot;margin:0px;margin-top:4px;text-align:center;&quot;&gt;&lt;b&gt;assistanceFunction/initAssistance2.vue&lt;/b&gt;&lt;/p&gt;&lt;hr size=&quot;1&quot;/&gt;&lt;p style=&quot;margin:0 0 0 4px;line-height:1.6;&quot;&gt; initAccountAssistance: &lt;br/&gt; initTransferAssistance: &lt;br/&gt; initUtilityAssistance: &lt;/p&gt;" style="verticalAlign=top;align=left;overflow=fill;fontSize=14;fontFamily=Helvetica;html=1;rounded=0;shadow=0;comic=0;labelBackgroundColor=none;strokeWidth=1;" parent="1" vertex="1">
          <mxGeometry x="-1751" y="501" width="292" height="108" as="geometry" />
        </mxCell>
        <mxCell id="R-M30CxggkiC4CBZBjgB-9" value="&lt;p style=&quot;margin:0px;margin-top:4px;text-align:center;&quot;&gt;&lt;b&gt;assistanceFunction/initAssistance3.vue&lt;/b&gt;&lt;/p&gt;&lt;hr size=&quot;1&quot;/&gt;&lt;p style=&quot;margin:0 0 0 4px;line-height:1.6;&quot;&gt; initAccountAssistance: &lt;br/&gt; initTransferAssistance: &lt;br/&gt; initUtilityAssistance: &lt;/p&gt;" style="verticalAlign=top;align=left;overflow=fill;fontSize=14;fontFamily=Helvetica;html=1;rounded=0;shadow=0;comic=0;labelBackgroundColor=none;strokeWidth=1;" parent="1" vertex="1">
          <mxGeometry x="-1126" y="1015" width="292" height="108" as="geometry" />
        </mxCell>
        <mxCell id="R-M30CxggkiC4CBZBjgB-10" value="&lt;p style=&quot;margin:0px;margin-top:4px;text-align:center;&quot;&gt;&lt;b&gt;assistanceFunction/initTransferAssistance.vue&lt;/b&gt;&lt;/p&gt;&lt;hr size=&quot;1&quot;/&gt;&lt;p style=&quot;margin:0 0 0 4px;line-height:1.6;&quot;&gt; Decrypt: &lt;br/&gt; Encrypt: &lt;/p&gt;" style="verticalAlign=top;align=left;overflow=fill;fontSize=14;fontFamily=Helvetica;html=1;rounded=0;shadow=0;comic=0;labelBackgroundColor=none;strokeWidth=1;" parent="1" vertex="1">
          <mxGeometry x="-1630" y="1289" width="337" height="84" as="geometry" />
        </mxCell>
        <mxCell id="R-M30CxggkiC4CBZBjgB-11" value="&lt;p style=&quot;margin:0px;margin-top:4px;text-align:center;&quot;&gt;&lt;b&gt;assistanceFunction/initUtilityAssistance.vue&lt;/b&gt;&lt;/p&gt;&lt;hr size=&quot;1&quot;/&gt;&lt;p style=&quot;margin:0 0 0 4px;line-height:1.6;&quot;&gt; Decrypt: &lt;br/&gt; Encrypt: &lt;/p&gt;" style="verticalAlign=top;align=left;overflow=fill;fontSize=14;fontFamily=Helvetica;html=1;rounded=0;shadow=0;comic=0;labelBackgroundColor=none;strokeWidth=1;" parent="1" vertex="1">
          <mxGeometry x="-1442" y="844" width="323" height="84" as="geometry" />
        </mxCell>
        <mxCell id="R-M30CxggkiC4CBZBjgB-12" value="&lt;p style=&quot;margin:0px;margin-top:4px;text-align:center;&quot;&gt;&lt;b&gt;assistanceFunction/newInitAssistance.vue&lt;/b&gt;&lt;/p&gt;&lt;hr size=&quot;1&quot;/&gt;" style="verticalAlign=top;align=left;overflow=fill;fontSize=14;fontFamily=Helvetica;html=1;rounded=0;shadow=0;comic=0;labelBackgroundColor=none;strokeWidth=1;" parent="1" vertex="1">
          <mxGeometry x="-1201" y="712" width="310" height="33" as="geometry" />
        </mxCell>
        <mxCell id="R-M30CxggkiC4CBZBjgB-13" value="&lt;p style=&quot;margin:0px;margin-top:4px;text-align:center;&quot;&gt;&lt;b&gt;assistanceFunction/processAssistance.vue&lt;/b&gt;&lt;/p&gt;&lt;hr size=&quot;1&quot;/&gt;" style="verticalAlign=top;align=left;overflow=fill;fontSize=14;fontFamily=Helvetica;html=1;rounded=0;shadow=0;comic=0;labelBackgroundColor=none;strokeWidth=1;" parent="1" vertex="1">
          <mxGeometry x="-1705" y="41" width="313" height="33" as="geometry" />
        </mxCell>
        <mxCell id="R-M30CxggkiC4CBZBjgB-14" value="&lt;p style=&quot;margin:0px;margin-top:4px;text-align:center;&quot;&gt;&lt;b&gt;assistanceFunction/viewAssistance.vue&lt;/b&gt;&lt;/p&gt;&lt;hr size=&quot;1&quot;/&gt;" style="verticalAlign=top;align=left;overflow=fill;fontSize=14;fontFamily=Helvetica;html=1;rounded=0;shadow=0;comic=0;labelBackgroundColor=none;strokeWidth=1;" parent="1" vertex="1">
          <mxGeometry x="-1841" y="1644" width="291" height="33" as="geometry" />
        </mxCell>
        <mxCell id="R-M30CxggkiC4CBZBjgB-15" value="&lt;p style=&quot;margin:0px;margin-top:4px;text-align:center;&quot;&gt;&lt;b&gt;assistanceTable.vue&lt;/b&gt;&lt;/p&gt;&lt;hr size=&quot;1&quot;/&gt;" style="verticalAlign=top;align=left;overflow=fill;fontSize=14;fontFamily=Helvetica;html=1;rounded=0;shadow=0;comic=0;labelBackgroundColor=none;strokeWidth=1;" parent="1" vertex="1">
          <mxGeometry x="-771" y="411" width="148" height="33" as="geometry" />
        </mxCell>
        <mxCell id="R-M30CxggkiC4CBZBjgB-16" value="&lt;p style=&quot;margin:0px;margin-top:4px;text-align:center;&quot;&gt;&lt;b&gt;axios/index.d.ts&lt;/b&gt;&lt;/p&gt;&lt;hr size=&quot;1&quot;/&gt;" style="verticalAlign=top;align=left;overflow=fill;fontSize=14;fontFamily=Helvetica;html=1;rounded=0;shadow=0;comic=0;labelBackgroundColor=none;strokeWidth=1;" parent="1" vertex="1">
          <mxGeometry x="-2306" y="674" width="139" height="33" as="geometry" />
        </mxCell>
        <mxCell id="R-M30CxggkiC4CBZBjgB-17" value="&lt;p style=&quot;margin:0px;margin-top:4px;text-align:center;&quot;&gt;&lt;b&gt;components/Home.vue&lt;/b&gt;&lt;/p&gt;&lt;hr size=&quot;1&quot;/&gt;&lt;p style=&quot;margin:0 0 0 4px;line-height:1.6;&quot;&gt; SockJS: &lt;br/&gt; Stomp: &lt;/p&gt;" style="verticalAlign=top;align=left;overflow=fill;fontSize=14;fontFamily=Helvetica;html=1;rounded=0;shadow=0;comic=0;labelBackgroundColor=none;strokeWidth=1;" parent="1" vertex="1">
          <mxGeometry x="-1496" y="1565" width="195" height="84" as="geometry" />
        </mxCell>
        <mxCell id="R-M30CxggkiC4CBZBjgB-18" value="&lt;p style=&quot;margin:0px;margin-top:4px;text-align:center;&quot;&gt;&lt;b&gt;components/PostCard.vue&lt;/b&gt;&lt;/p&gt;&lt;hr size=&quot;1&quot;/&gt;" style="verticalAlign=top;align=left;overflow=fill;fontSize=14;fontFamily=Helvetica;html=1;rounded=0;shadow=0;comic=0;labelBackgroundColor=none;strokeWidth=1;" parent="1" vertex="1">
          <mxGeometry x="-986" y="902" width="213" height="33" as="geometry" />
        </mxCell>
        <mxCell id="R-M30CxggkiC4CBZBjgB-19" value="&lt;p style=&quot;margin:0px;margin-top:4px;text-align:center;&quot;&gt;&lt;b&gt;conciergeService/RealViewConcierge.vue&lt;/b&gt;&lt;/p&gt;&lt;hr size=&quot;1&quot;/&gt;" style="verticalAlign=top;align=left;overflow=fill;fontSize=14;fontFamily=Helvetica;html=1;rounded=0;shadow=0;comic=0;labelBackgroundColor=none;strokeWidth=1;" parent="1" vertex="1">
          <mxGeometry x="-1157" y="1174" width="308" height="33" as="geometry" />
        </mxCell>
        <mxCell id="R-M30CxggkiC4CBZBjgB-20" value="&lt;p style=&quot;margin:0px;margin-top:4px;text-align:center;&quot;&gt;&lt;b&gt;conciergeService/conciergePlaceHolder.vue&lt;/b&gt;&lt;/p&gt;&lt;hr size=&quot;1&quot;/&gt;" style="verticalAlign=top;align=left;overflow=fill;fontSize=14;fontFamily=Helvetica;html=1;rounded=0;shadow=0;comic=0;labelBackgroundColor=none;strokeWidth=1;" parent="1" vertex="1">
          <mxGeometry x="-2165" y="1572" width="325" height="33" as="geometry" />
        </mxCell>
        <mxCell id="R-M30CxggkiC4CBZBjgB-21" value="&lt;p style=&quot;margin:0px;margin-top:4px;text-align:center;&quot;&gt;&lt;b&gt;conciergeService/viewConcierge.vue&lt;/b&gt;&lt;/p&gt;&lt;hr size=&quot;1&quot;/&gt;&lt;p style=&quot;margin:0 0 0 4px;line-height:1.6;&quot;&gt; NavMenu: &lt;br/&gt; webTop: &lt;/p&gt;" style="verticalAlign=top;align=left;overflow=fill;fontSize=14;fontFamily=Helvetica;html=1;rounded=0;shadow=0;comic=0;labelBackgroundColor=none;strokeWidth=1;" parent="1" vertex="1">
          <mxGeometry x="-943" y="1246" width="280" height="84" as="geometry" />
        </mxCell>
        <mxCell id="R-M30CxggkiC4CBZBjgB-22" value="&lt;p style=&quot;margin:0px;margin-top:4px;text-align:center;&quot;&gt;&lt;b&gt;coreFunction/Corefunc.vue&lt;/b&gt;&lt;/p&gt;&lt;hr size=&quot;1&quot;/&gt;&lt;p style=&quot;margin:0 0 0 4px;line-height:1.6;&quot;&gt; Decrypt: &lt;br/&gt; Encrypt: &lt;/p&gt;" style="verticalAlign=top;align=left;overflow=fill;fontSize=14;fontFamily=Helvetica;html=1;rounded=0;shadow=0;comic=0;labelBackgroundColor=none;strokeWidth=1;" parent="1" vertex="1">
          <mxGeometry x="-1923" y="1050" width="218" height="84" as="geometry" />
        </mxCell>
        <mxCell id="R-M30CxggkiC4CBZBjgB-23" value="&lt;p style=&quot;margin:0px;margin-top:4px;text-align:center;&quot;&gt;&lt;b&gt;coreFunction/Record.vue&lt;/b&gt;&lt;/p&gt;&lt;hr size=&quot;1&quot;/&gt;" style="verticalAlign=top;align=left;overflow=fill;fontSize=14;fontFamily=Helvetica;html=1;rounded=0;shadow=0;comic=0;labelBackgroundColor=none;strokeWidth=1;" parent="1" vertex="1">
          <mxGeometry x="-1154" y="275" width="203" height="33" as="geometry" />
        </mxCell>
        <mxCell id="R-M30CxggkiC4CBZBjgB-24" value="&lt;p style=&quot;margin:0px;margin-top:4px;text-align:center;&quot;&gt;&lt;b&gt;coreFunction/openAccount.vue&lt;/b&gt;&lt;/p&gt;&lt;hr size=&quot;1&quot;/&gt;&lt;p style=&quot;margin:0 0 0 4px;line-height:1.6;&quot;&gt; Decrypt: &lt;br/&gt; Encrypt: &lt;/p&gt;" style="verticalAlign=top;align=left;overflow=fill;fontSize=14;fontFamily=Helvetica;html=1;rounded=0;shadow=0;comic=0;labelBackgroundColor=none;strokeWidth=1;" parent="1" vertex="1">
          <mxGeometry x="-2171" y="505" width="247" height="84" as="geometry" />
        </mxCell>
        <mxCell id="R-M30CxggkiC4CBZBjgB-25" value="&lt;p style=&quot;margin:0px;margin-top:4px;text-align:center;&quot;&gt;&lt;b&gt;crypto-js/crypto-js.js&lt;/b&gt;&lt;/p&gt;&lt;hr size=&quot;1&quot;/&gt;" style="verticalAlign=top;align=left;overflow=fill;fontSize=14;fontFamily=Helvetica;html=1;rounded=0;shadow=0;comic=0;labelBackgroundColor=none;strokeWidth=1;" parent="1" vertex="1">
          <mxGeometry x="-2750" y="1866" width="173" height="33" as="geometry" />
        </mxCell>
        <mxCell id="R-M30CxggkiC4CBZBjgB-26" value="&lt;p style=&quot;margin:0px;margin-top:4px;text-align:center;&quot;&gt;&lt;b&gt;element-ui/.../index.css&lt;/b&gt;&lt;/p&gt;&lt;hr size=&quot;1&quot;/&gt;" style="verticalAlign=top;align=left;overflow=fill;fontSize=14;fontFamily=Helvetica;html=1;rounded=0;shadow=0;comic=0;labelBackgroundColor=none;strokeWidth=1;" parent="1" vertex="1">
          <mxGeometry x="-2563" y="1191" width="190" height="33" as="geometry" />
        </mxCell>
        <mxCell id="R-M30CxggkiC4CBZBjgB-27" value="&lt;p style=&quot;margin:0px;margin-top:4px;text-align:center;&quot;&gt;&lt;b&gt;element-ui/.../index.d.ts&lt;/b&gt;&lt;/p&gt;&lt;hr size=&quot;1&quot;/&gt;" style="verticalAlign=top;align=left;overflow=fill;fontSize=14;fontFamily=Helvetica;html=1;rounded=0;shadow=0;comic=0;labelBackgroundColor=none;strokeWidth=1;" parent="1" vertex="1">
          <mxGeometry x="-2750" y="734" width="194" height="33" as="geometry" />
        </mxCell>
        <mxCell id="R-M30CxggkiC4CBZBjgB-28" value="&lt;p style=&quot;margin:0px;margin-top:4px;text-align:center;&quot;&gt;&lt;b&gt;encryption&lt;/b&gt;&lt;/p&gt;&lt;hr size=&quot;1&quot;/&gt;&lt;p style=&quot;margin:0 0 0 4px;line-height:1.6;&quot;&gt; Decrypt: &lt;br/&gt; Encrypt: &lt;/p&gt;" style="verticalAlign=top;align=left;overflow=fill;fontSize=14;fontFamily=Helvetica;html=1;rounded=0;shadow=0;comic=0;labelBackgroundColor=none;strokeWidth=1;" parent="1" vertex="1">
          <mxGeometry x="-1860" y="812" width="91" height="84" as="geometry" />
        </mxCell>
        <mxCell id="R-M30CxggkiC4CBZBjgB-29" value="&lt;p style=&quot;margin:0px;margin-top:4px;text-align:center;&quot;&gt;&lt;b&gt;loginFunction/Login.vue&lt;/b&gt;&lt;/p&gt;&lt;hr size=&quot;1&quot;/&gt;&lt;p style=&quot;margin:0 0 0 4px;line-height:1.6;&quot;&gt; Decrypt: &lt;br/&gt; Encrypt: &lt;br/&gt; Register: &lt;br/&gt; Unity: &lt;br/&gt; Unityverify: &lt;/p&gt;" style="verticalAlign=top;align=left;overflow=fill;fontSize=14;fontFamily=Helvetica;html=1;rounded=0;shadow=0;comic=0;labelBackgroundColor=none;strokeWidth=1;" parent="1" vertex="1">
          <mxGeometry x="-1829" y="274" width="199" height="144" as="geometry" />
        </mxCell>
        <mxCell id="R-M30CxggkiC4CBZBjgB-30" value="&lt;p style=&quot;margin:0px;margin-top:4px;text-align:center;&quot;&gt;&lt;b&gt;loginFunction/Register.vue&lt;/b&gt;&lt;/p&gt;&lt;hr size=&quot;1&quot;/&gt;&lt;p style=&quot;margin:0 0 0 4px;line-height:1.6;&quot;&gt; Decrypt: &lt;br/&gt; Encrypt: &lt;/p&gt;" style="verticalAlign=top;align=left;overflow=fill;fontSize=14;fontFamily=Helvetica;html=1;rounded=0;shadow=0;comic=0;labelBackgroundColor=none;strokeWidth=1;" parent="1" vertex="1">
          <mxGeometry x="-2089" y="685" width="216" height="84" as="geometry" />
        </mxCell>
        <mxCell id="R-M30CxggkiC4CBZBjgB-31" value="&lt;p style=&quot;margin:0px;margin-top:4px;text-align:center;&quot;&gt;&lt;b&gt;loginFunction/Unity.vue&lt;/b&gt;&lt;/p&gt;&lt;hr size=&quot;1&quot;/&gt;&lt;p style=&quot;margin:0 0 0 4px;line-height:1.6;&quot;&gt; Decrypt: &lt;br/&gt; Encrypt: &lt;/p&gt;" style="verticalAlign=top;align=left;overflow=fill;fontSize=14;fontFamily=Helvetica;html=1;rounded=0;shadow=0;comic=0;labelBackgroundColor=none;strokeWidth=1;" parent="1" vertex="1">
          <mxGeometry x="-2161" y="1005" width="197" height="84" as="geometry" />
        </mxCell>
        <mxCell id="R-M30CxggkiC4CBZBjgB-32" value="&lt;p style=&quot;margin:0px;margin-top:4px;text-align:center;&quot;&gt;&lt;b&gt;loginFunction/Unityverify.vue&lt;/b&gt;&lt;/p&gt;&lt;hr size=&quot;1&quot;/&gt;&lt;p style=&quot;margin:0 0 0 4px;line-height:1.6;&quot;&gt; Decrypt: &lt;br/&gt; Encrypt: &lt;/p&gt;" style="verticalAlign=top;align=left;overflow=fill;fontSize=14;fontFamily=Helvetica;html=1;rounded=0;shadow=0;comic=0;labelBackgroundColor=none;strokeWidth=1;" parent="1" vertex="1">
          <mxGeometry x="-2439" y="1058" width="233" height="84" as="geometry" />
        </mxCell>
        <mxCell id="R-M30CxggkiC4CBZBjgB-33" value="&lt;p style=&quot;margin:0px;margin-top:4px;text-align:center;&quot;&gt;&lt;b&gt;router/index.js&lt;/b&gt;&lt;/p&gt;&lt;hr size=&quot;1&quot;/&gt;&lt;p style=&quot;margin:0 0 0 4px;line-height:1.6;&quot;&gt; Corefunc: &lt;br/&gt; Home: &lt;br/&gt; Login: &lt;br/&gt; PostCard: &lt;br/&gt; RealViewConcierge: &lt;br/&gt; Record: &lt;br/&gt; Register: &lt;br/&gt; Router: &lt;br/&gt; Unity: &lt;br/&gt; Vue: &lt;br/&gt; VueRouter: &lt;br/&gt; assistanceManagement: &lt;br/&gt; conciergePlaceHolder: &lt;br/&gt; initAssistance: &lt;br/&gt; initAssistance2: &lt;br/&gt; initAssistance3: &lt;br/&gt; initTransferAssistance: &lt;br/&gt; newInitAssistance: &lt;br/&gt; newUtilityFee: &lt;br/&gt; openAccount: &lt;br/&gt; payUtilityFee: &lt;br/&gt; processAssistance: &lt;br/&gt; utilityManagement: &lt;br/&gt; utilityRecord: &lt;br/&gt; viewAssistance: &lt;br/&gt; viewConcierge: &lt;/p&gt;" style="verticalAlign=top;align=left;overflow=fill;fontSize=14;fontFamily=Helvetica;html=1;rounded=0;shadow=0;comic=0;labelBackgroundColor=none;strokeWidth=1;" parent="1" vertex="1">
          <mxGeometry x="-1664" y="642" width="181" height="606" as="geometry" />
        </mxCell>
        <mxCell id="R-M30CxggkiC4CBZBjgB-34" value="&lt;p style=&quot;margin:0px;margin-top:4px;text-align:center;&quot;&gt;&lt;b&gt;sockjs-client&lt;/b&gt;&lt;/p&gt;&lt;hr size=&quot;1&quot;/&gt;" style="verticalAlign=top;align=left;overflow=fill;fontSize=14;fontFamily=Helvetica;html=1;rounded=0;shadow=0;comic=0;labelBackgroundColor=none;strokeWidth=1;" parent="1" vertex="1">
          <mxGeometry x="-1511" y="1790" width="100" height="33" as="geometry" />
        </mxCell>
        <mxCell id="R-M30CxggkiC4CBZBjgB-35" value="&lt;p style=&quot;margin:0px;margin-top:4px;text-align:center;&quot;&gt;&lt;b&gt;src/App.vue&lt;/b&gt;&lt;/p&gt;&lt;hr size=&quot;1&quot;/&gt;" style="verticalAlign=top;align=left;overflow=fill;fontSize=14;fontFamily=Helvetica;html=1;rounded=0;shadow=0;comic=0;labelBackgroundColor=none;strokeWidth=1;" parent="1" vertex="1">
          <mxGeometry x="-2651" y="1015" width="115" height="33" as="geometry" />
        </mxCell>
        <mxCell id="R-M30CxggkiC4CBZBjgB-36" value="&lt;p style=&quot;margin:0px;margin-top:4px;text-align:center;&quot;&gt;&lt;b&gt;src/main.js&lt;/b&gt;&lt;/p&gt;&lt;hr size=&quot;1&quot;/&gt;&lt;p style=&quot;margin:0 0 0 4px;line-height:1.6;&quot;&gt; App: &lt;br/&gt; ElementUI: &lt;br/&gt; Vue: &lt;br/&gt; VueAxios: &lt;br/&gt; axios: &lt;br/&gt; index.css: &lt;br/&gt; request: &lt;br/&gt; router: &lt;/p&gt;" style="verticalAlign=top;align=left;overflow=fill;fontSize=14;fontFamily=Helvetica;html=1;rounded=0;shadow=0;comic=0;labelBackgroundColor=none;strokeWidth=1;" parent="1" vertex="1">
          <mxGeometry x="-2381" y="746" width="111" height="210" as="geometry" />
        </mxCell>
        <mxCell id="R-M30CxggkiC4CBZBjgB-37" value="&lt;p style=&quot;margin:0px;margin-top:4px;text-align:center;&quot;&gt;&lt;b&gt;stompjs/index.js&lt;/b&gt;&lt;/p&gt;&lt;hr size=&quot;1&quot;/&gt;" style="verticalAlign=top;align=left;overflow=fill;fontSize=14;fontFamily=Helvetica;html=1;rounded=0;shadow=0;comic=0;labelBackgroundColor=none;strokeWidth=1;" parent="1" vertex="1">
          <mxGeometry x="-1280" y="1767" width="144" height="33" as="geometry" />
        </mxCell>
        <mxCell id="R-M30CxggkiC4CBZBjgB-38" value="&lt;p style=&quot;margin:0px;margin-top:4px;text-align:center;&quot;&gt;&lt;b&gt;store/index.js&lt;/b&gt;&lt;/p&gt;&lt;hr size=&quot;1&quot;/&gt;&lt;p style=&quot;margin:0 0 0 4px;line-height:1.6;&quot;&gt; Vue: &lt;br/&gt; Vuex: &lt;/p&gt;" style="verticalAlign=top;align=left;overflow=fill;fontSize=14;fontFamily=Helvetica;html=1;rounded=0;shadow=0;comic=0;labelBackgroundColor=none;strokeWidth=1;" parent="1" vertex="1">
          <mxGeometry x="-2095" y="217" width="127" height="84" as="geometry" />
        </mxCell>
        <mxCell id="R-M30CxggkiC4CBZBjgB-39" value="&lt;p style=&quot;margin:0px;margin-top:4px;text-align:center;&quot;&gt;&lt;b&gt;store/store.js&lt;/b&gt;&lt;/p&gt;&lt;hr size=&quot;1&quot;/&gt;&lt;p style=&quot;margin:0 0 0 4px;line-height:1.6;&quot;&gt; Vue: &lt;br/&gt; Vuex: &lt;/p&gt;" style="verticalAlign=top;align=left;overflow=fill;fontSize=14;fontFamily=Helvetica;html=1;rounded=0;shadow=0;comic=0;labelBackgroundColor=none;strokeWidth=1;" parent="1" vertex="1">
          <mxGeometry x="-2344" y="265" width="125" height="84" as="geometry" />
        </mxCell>
        <mxCell id="R-M30CxggkiC4CBZBjgB-40" value="&lt;p style=&quot;margin:0px;margin-top:4px;text-align:center;&quot;&gt;&lt;b&gt;utilityAccountTable&lt;/b&gt;&lt;/p&gt;&lt;hr size=&quot;1&quot;/&gt;" style="verticalAlign=top;align=left;overflow=fill;fontSize=14;fontFamily=Helvetica;html=1;rounded=0;shadow=0;comic=0;labelBackgroundColor=none;strokeWidth=1;" parent="1" vertex="1">
          <mxGeometry x="-700" y="749" width="145" height="33" as="geometry" />
        </mxCell>
        <mxCell id="R-M30CxggkiC4CBZBjgB-41" value="&lt;p style=&quot;margin:0px;margin-top:4px;text-align:center;&quot;&gt;&lt;b&gt;utilityFunction/newUtilityFee.vue&lt;/b&gt;&lt;/p&gt;&lt;hr size=&quot;1&quot;/&gt;&lt;p style=&quot;margin:0 0 0 4px;line-height:1.6;&quot;&gt; Decrypt: &lt;br/&gt; Encrypt: &lt;/p&gt;" style="verticalAlign=top;align=left;overflow=fill;fontSize=14;fontFamily=Helvetica;html=1;rounded=0;shadow=0;comic=0;labelBackgroundColor=none;strokeWidth=1;" parent="1" vertex="1">
          <mxGeometry x="-2045" y="1189" width="255" height="84" as="geometry" />
        </mxCell>
        <mxCell id="R-M30CxggkiC4CBZBjgB-42" value="&lt;p style=&quot;margin:0px;margin-top:4px;text-align:center;&quot;&gt;&lt;b&gt;utilityFunction/payUtilityFee.vue&lt;/b&gt;&lt;/p&gt;&lt;hr size=&quot;1&quot;/&gt;" style="verticalAlign=top;align=left;overflow=fill;fontSize=14;fontFamily=Helvetica;html=1;rounded=0;shadow=0;comic=0;labelBackgroundColor=none;strokeWidth=1;" parent="1" vertex="1">
          <mxGeometry x="-1182" y="1524" width="249" height="33" as="geometry" />
        </mxCell>
        <mxCell id="R-M30CxggkiC4CBZBjgB-43" value="&lt;p style=&quot;margin:0px;margin-top:4px;text-align:center;&quot;&gt;&lt;b&gt;utilityFunction/utilityAccountTable.vue&lt;/b&gt;&lt;/p&gt;&lt;hr size=&quot;1&quot;/&gt;" style="verticalAlign=top;align=left;overflow=fill;fontSize=14;fontFamily=Helvetica;html=1;rounded=0;shadow=0;comic=0;labelBackgroundColor=none;strokeWidth=1;" parent="1" vertex="1">
          <mxGeometry x="-1088" y="65" width="290" height="33" as="geometry" />
        </mxCell>
        <mxCell id="R-M30CxggkiC4CBZBjgB-44" value="&lt;p style=&quot;margin:0px;margin-top:4px;text-align:center;&quot;&gt;&lt;b&gt;utilityFunction/utilityManagement.vue&lt;/b&gt;&lt;/p&gt;&lt;hr size=&quot;1&quot;/&gt;&lt;p style=&quot;margin:0 0 0 4px;line-height:1.6;&quot;&gt; utilityAccountTable: &lt;br/&gt; utilityTable: &lt;/p&gt;" style="verticalAlign=top;align=left;overflow=fill;fontSize=14;fontFamily=Helvetica;html=1;rounded=0;shadow=0;comic=0;labelBackgroundColor=none;strokeWidth=1;" parent="1" vertex="1">
          <mxGeometry x="-1415" y="137" width="290" height="84" as="geometry" />
        </mxCell>
        <mxCell id="R-M30CxggkiC4CBZBjgB-45" value="&lt;p style=&quot;margin:0px;margin-top:4px;text-align:center;&quot;&gt;&lt;b&gt;utilityFunction/utilityRecord.vue&lt;/b&gt;&lt;/p&gt;&lt;hr size=&quot;1&quot;/&gt;" style="verticalAlign=top;align=left;overflow=fill;fontSize=14;fontFamily=Helvetica;html=1;rounded=0;shadow=0;comic=0;labelBackgroundColor=none;strokeWidth=1;" parent="1" vertex="1">
          <mxGeometry x="-1885" y="1443" width="247" height="33" as="geometry" />
        </mxCell>
        <mxCell id="R-M30CxggkiC4CBZBjgB-46" value="&lt;p style=&quot;margin:0px;margin-top:4px;text-align:center;&quot;&gt;&lt;b&gt;utilityTable.vue&lt;/b&gt;&lt;/p&gt;&lt;hr size=&quot;1&quot;/&gt;" style="verticalAlign=top;align=left;overflow=fill;fontSize=14;fontFamily=Helvetica;html=1;rounded=0;shadow=0;comic=0;labelBackgroundColor=none;strokeWidth=1;" parent="1" vertex="1">
          <mxGeometry x="-1291" y="-60" width="118" height="33" as="geometry" />
        </mxCell>
        <mxCell id="R-M30CxggkiC4CBZBjgB-47" value="&lt;p style=&quot;margin:0px;margin-top:4px;text-align:center;&quot;&gt;&lt;b&gt;utils/encryption.js&lt;/b&gt;&lt;/p&gt;&lt;hr size=&quot;1&quot;/&gt;&lt;p style=&quot;margin:0 0 0 4px;line-height:1.6;&quot;&gt; CryptoJS: &lt;/p&gt;" style="verticalAlign=top;align=left;overflow=fill;fontSize=14;fontFamily=Helvetica;html=1;rounded=0;shadow=0;comic=0;labelBackgroundColor=none;strokeWidth=1;" parent="1" vertex="1">
          <mxGeometry x="-2728" y="2001" width="156" height="60" as="geometry" />
        </mxCell>
        <mxCell id="R-M30CxggkiC4CBZBjgB-48" value="&lt;p style=&quot;margin:0px;margin-top:4px;text-align:center;&quot;&gt;&lt;b&gt;utils/request.js&lt;/b&gt;&lt;/p&gt;&lt;hr size=&quot;1&quot;/&gt;&lt;p style=&quot;margin:0 0 0 4px;line-height:1.6;&quot;&gt; axios: &lt;br/&gt; router: &lt;/p&gt;" style="verticalAlign=top;align=left;overflow=fill;fontSize=14;fontFamily=Helvetica;html=1;rounded=0;shadow=0;comic=0;labelBackgroundColor=none;strokeWidth=1;" parent="1" vertex="1">
          <mxGeometry x="-2144" y="851" width="135" height="84" as="geometry" />
        </mxCell>
        <mxCell id="R-M30CxggkiC4CBZBjgB-49" value="&lt;p style=&quot;margin:0px;margin-top:4px;text-align:center;&quot;&gt;&lt;b&gt;vue-axios/index.d.ts&lt;/b&gt;&lt;/p&gt;&lt;hr size=&quot;1&quot;/&gt;" style="verticalAlign=top;align=left;overflow=fill;fontSize=14;fontFamily=Helvetica;html=1;rounded=0;shadow=0;comic=0;labelBackgroundColor=none;strokeWidth=1;" parent="1" vertex="1">
          <mxGeometry x="-2560" y="541" width="169" height="33" as="geometry" />
        </mxCell>
        <mxCell id="R-M30CxggkiC4CBZBjgB-50" value="&lt;p style=&quot;margin:0px;margin-top:4px;text-align:center;&quot;&gt;&lt;b&gt;vue-router/.../index.d.ts&lt;/b&gt;&lt;/p&gt;&lt;hr size=&quot;1&quot;/&gt;" style="verticalAlign=top;align=left;overflow=fill;fontSize=14;fontFamily=Helvetica;html=1;rounded=0;shadow=0;comic=0;labelBackgroundColor=none;strokeWidth=1;" parent="1" vertex="1">
          <mxGeometry x="-1338" y="1439" width="192" height="33" as="geometry" />
        </mxCell>
        <mxCell id="R-M30CxggkiC4CBZBjgB-51" value="&lt;p style=&quot;margin:0px;margin-top:4px;text-align:center;&quot;&gt;&lt;b&gt;vue/.../index.d.ts&lt;/b&gt;&lt;/p&gt;&lt;hr size=&quot;1&quot;/&gt;" style="verticalAlign=top;align=left;overflow=fill;fontSize=14;fontFamily=Helvetica;html=1;rounded=0;shadow=0;comic=0;labelBackgroundColor=none;strokeWidth=1;" parent="1" vertex="1">
          <mxGeometry x="-2223" y="433" width="146" height="33" as="geometry" />
        </mxCell>
        <mxCell id="R-M30CxggkiC4CBZBjgB-52" value="&lt;p style=&quot;margin:0px;margin-top:4px;text-align:center;&quot;&gt;&lt;b&gt;vuex/.../index.d.ts&lt;/b&gt;&lt;/p&gt;&lt;hr size=&quot;1&quot;/&gt;" style="verticalAlign=top;align=left;overflow=fill;fontSize=14;fontFamily=Helvetica;html=1;rounded=0;shadow=0;comic=0;labelBackgroundColor=none;strokeWidth=1;" parent="1" vertex="1">
          <mxGeometry x="-2233" y="113" width="153" height="33" as="geometry" />
        </mxCell>
        <mxCell id="R-M30CxggkiC4CBZBjgB-53" value="&lt;p style=&quot;margin:0px;margin-top:4px;text-align:center;&quot;&gt;&lt;b&gt;webTop.vue&lt;/b&gt;&lt;/p&gt;&lt;hr size=&quot;1&quot;/&gt;" style="verticalAlign=top;align=left;overflow=fill;fontSize=14;fontFamily=Helvetica;html=1;rounded=0;shadow=0;comic=0;labelBackgroundColor=none;strokeWidth=1;" parent="1" vertex="1">
          <mxGeometry x="-785" y="1482" width="99" height="33" as="geometry" />
        </mxCell>
        <mxCell id="R-M30CxggkiC4CBZBjgB-54" value="" style="html=1;rounded=1;;dashed=0;startArrow=classic;startSize=12;endArrow=none;strokeColor=#595959;exitX=0.552;exitY=0.000;exitDx=0;exitDy=0;entryX=0.451;entryY=1.000;entryDx=0;entryDy=0;" parent="1" source="R-M30CxggkiC4CBZBjgB-5" target="R-M30CxggkiC4CBZBjgB-15" edge="1">
          <mxGeometry width="50" height="50" relative="1" as="geometry">
            <Array as="points" />
          </mxGeometry>
        </mxCell>
        <mxCell id="R-M30CxggkiC4CBZBjgB-55" value="" style="html=1;rounded=1;;dashed=0;startArrow=classic;startSize=12;endArrow=none;strokeColor=#595959;exitX=0.639;exitY=1.000;exitDx=0;exitDy=0;entryX=0.366;entryY=0.000;entryDx=0;entryDy=0;" parent="1" source="R-M30CxggkiC4CBZBjgB-5" target="R-M30CxggkiC4CBZBjgB-40" edge="1">
          <mxGeometry width="50" height="50" relative="1" as="geometry">
            <Array as="points" />
          </mxGeometry>
        </mxCell>
        <mxCell id="R-M30CxggkiC4CBZBjgB-56" value="" style="html=1;rounded=1;;dashed=0;startArrow=classic;startSize=12;endArrow=none;strokeColor=#595959;exitX=0.394;exitY=1.000;exitDx=0;exitDy=0;entryX=1.000;entryY=0.062;entryDx=0;entryDy=0;" parent="1" source="R-M30CxggkiC4CBZBjgB-6" target="R-M30CxggkiC4CBZBjgB-28" edge="1">
          <mxGeometry width="50" height="50" relative="1" as="geometry">
            <Array as="points" />
          </mxGeometry>
        </mxCell>
        <mxCell id="R-M30CxggkiC4CBZBjgB-57" value="" style="html=1;rounded=1;;dashed=0;startArrow=classic;startSize=12;endArrow=none;strokeColor=#595959;exitX=0.350;exitY=1.000;exitDx=0;exitDy=0;entryX=0.895;entryY=0.000;entryDx=0;entryDy=0;" parent="1" source="R-M30CxggkiC4CBZBjgB-6" target="R-M30CxggkiC4CBZBjgB-28" edge="1">
          <mxGeometry width="50" height="50" relative="1" as="geometry">
            <Array as="points" />
          </mxGeometry>
        </mxCell>
        <mxCell id="R-M30CxggkiC4CBZBjgB-58" value="" style="html=1;rounded=1;;dashed=0;startArrow=classic;startSize=12;endArrow=none;strokeColor=#595959;exitX=0.442;exitY=0.000;exitDx=0;exitDy=0;entryX=0.538;entryY=1.000;entryDx=0;entryDy=0;" parent="1" source="R-M30CxggkiC4CBZBjgB-7" target="R-M30CxggkiC4CBZBjgB-6" edge="1">
          <mxGeometry width="50" height="50" relative="1" as="geometry">
            <Array as="points" />
          </mxGeometry>
        </mxCell>
        <mxCell id="R-M30CxggkiC4CBZBjgB-59" value="" style="html=1;rounded=1;;dashed=0;startArrow=classic;startSize=12;endArrow=none;strokeColor=#595959;exitX=0.451;exitY=1.000;exitDx=0;exitDy=0;entryX=0.532;entryY=0.000;entryDx=0;entryDy=0;" parent="1" source="R-M30CxggkiC4CBZBjgB-7" target="R-M30CxggkiC4CBZBjgB-10" edge="1">
          <mxGeometry width="50" height="50" relative="1" as="geometry">
            <Array as="points" />
          </mxGeometry>
        </mxCell>
        <mxCell id="R-M30CxggkiC4CBZBjgB-60" value="" style="html=1;rounded=1;;dashed=0;startArrow=classic;startSize=12;endArrow=none;strokeColor=#595959;exitX=0.487;exitY=1.000;exitDx=0;exitDy=0;entryX=0.509;entryY=0.000;entryDx=0;entryDy=0;" parent="1" source="R-M30CxggkiC4CBZBjgB-7" target="R-M30CxggkiC4CBZBjgB-11" edge="1">
          <mxGeometry width="50" height="50" relative="1" as="geometry">
            <Array as="points" />
          </mxGeometry>
        </mxCell>
        <mxCell id="R-M30CxggkiC4CBZBjgB-61" value="" style="html=1;rounded=1;;dashed=0;startArrow=classic;startSize=12;endArrow=none;strokeColor=#595959;exitX=0.843;exitY=0.000;exitDx=0;exitDy=0;entryX=0.269;entryY=1.000;entryDx=0;entryDy=0;" parent="1" source="R-M30CxggkiC4CBZBjgB-8" target="R-M30CxggkiC4CBZBjgB-6" edge="1">
          <mxGeometry width="50" height="50" relative="1" as="geometry">
            <Array as="points" />
          </mxGeometry>
        </mxCell>
        <mxCell id="R-M30CxggkiC4CBZBjgB-62" value="" style="html=1;rounded=1;;dashed=0;startArrow=classic;startSize=12;endArrow=none;strokeColor=#595959;exitX=0.532;exitY=1.000;exitDx=0;exitDy=0;entryX=0.479;entryY=0.000;entryDx=0;entryDy=0;" parent="1" source="R-M30CxggkiC4CBZBjgB-8" target="R-M30CxggkiC4CBZBjgB-10" edge="1">
          <mxGeometry width="50" height="50" relative="1" as="geometry">
            <Array as="points" />
          </mxGeometry>
        </mxCell>
        <mxCell id="R-M30CxggkiC4CBZBjgB-63" value="" style="html=1;rounded=1;;dashed=0;startArrow=classic;startSize=12;endArrow=none;strokeColor=#595959;exitX=0.667;exitY=1.000;exitDx=0;exitDy=0;entryX=0.382;entryY=0.000;entryDx=0;entryDy=0;" parent="1" source="R-M30CxggkiC4CBZBjgB-8" target="R-M30CxggkiC4CBZBjgB-11" edge="1">
          <mxGeometry width="50" height="50" relative="1" as="geometry">
            <Array as="points" />
          </mxGeometry>
        </mxCell>
        <mxCell id="R-M30CxggkiC4CBZBjgB-64" value="" style="html=1;rounded=1;;dashed=0;startArrow=classic;startSize=12;endArrow=none;strokeColor=#595959;exitX=0.410;exitY=0.000;exitDx=0;exitDy=0;entryX=0.561;entryY=1.000;entryDx=0;entryDy=0;" parent="1" source="R-M30CxggkiC4CBZBjgB-9" target="R-M30CxggkiC4CBZBjgB-6" edge="1">
          <mxGeometry width="50" height="50" relative="1" as="geometry">
            <Array as="points" />
          </mxGeometry>
        </mxCell>
        <mxCell id="R-M30CxggkiC4CBZBjgB-65" value="" style="html=1;rounded=1;;dashed=0;startArrow=classic;startSize=12;endArrow=none;strokeColor=#595959;exitX=0.186;exitY=1.000;exitDx=0;exitDy=0;entryX=0.712;entryY=0.000;entryDx=0;entryDy=0;" parent="1" source="R-M30CxggkiC4CBZBjgB-9" target="R-M30CxggkiC4CBZBjgB-10" edge="1">
          <mxGeometry width="50" height="50" relative="1" as="geometry">
            <Array as="points" />
          </mxGeometry>
        </mxCell>
        <mxCell id="R-M30CxggkiC4CBZBjgB-66" value="" style="html=1;rounded=1;;dashed=0;startArrow=classic;startSize=12;endArrow=none;strokeColor=#595959;exitX=0.217;exitY=0.000;exitDx=0;exitDy=0;entryX=0.699;entryY=1.000;entryDx=0;entryDy=0;" parent="1" source="R-M30CxggkiC4CBZBjgB-9" target="R-M30CxggkiC4CBZBjgB-11" edge="1">
          <mxGeometry width="50" height="50" relative="1" as="geometry">
            <Array as="points" />
          </mxGeometry>
        </mxCell>
        <mxCell id="R-M30CxggkiC4CBZBjgB-67" value="" style="html=1;rounded=1;;dashed=0;startArrow=classic;startSize=12;endArrow=none;strokeColor=#595959;exitX=0.396;exitY=0.000;exitDx=0;exitDy=0;entryX=0.749;entryY=1.000;entryDx=0;entryDy=0;" parent="1" source="R-M30CxggkiC4CBZBjgB-10" target="R-M30CxggkiC4CBZBjgB-28" edge="1">
          <mxGeometry width="50" height="50" relative="1" as="geometry">
            <Array as="points" />
          </mxGeometry>
        </mxCell>
        <mxCell id="R-M30CxggkiC4CBZBjgB-68" value="" style="html=1;rounded=1;;dashed=0;startArrow=classic;startSize=12;endArrow=none;strokeColor=#595959;exitX=0.433;exitY=0.000;exitDx=0;exitDy=0;entryX=0.886;entryY=1.000;entryDx=0;entryDy=0;" parent="1" source="R-M30CxggkiC4CBZBjgB-10" target="R-M30CxggkiC4CBZBjgB-28" edge="1">
          <mxGeometry width="50" height="50" relative="1" as="geometry">
            <Array as="points" />
          </mxGeometry>
        </mxCell>
        <mxCell id="R-M30CxggkiC4CBZBjgB-69" value="" style="html=1;rounded=1;;dashed=0;startArrow=classic;startSize=12;endArrow=none;strokeColor=#595959;exitX=0.000;exitY=0.440;exitDx=0;exitDy=0;entryX=1.000;entryY=0.599;entryDx=0;entryDy=0;" parent="1" source="R-M30CxggkiC4CBZBjgB-11" target="R-M30CxggkiC4CBZBjgB-28" edge="1">
          <mxGeometry width="50" height="50" relative="1" as="geometry">
            <Array as="points" />
          </mxGeometry>
        </mxCell>
        <mxCell id="R-M30CxggkiC4CBZBjgB-70" value="" style="html=1;rounded=1;;dashed=0;startArrow=classic;startSize=12;endArrow=none;strokeColor=#595959;exitX=0.000;exitY=0.312;exitDx=0;exitDy=0;entryX=1.000;entryY=0.471;entryDx=0;entryDy=0;" parent="1" source="R-M30CxggkiC4CBZBjgB-11" target="R-M30CxggkiC4CBZBjgB-28" edge="1">
          <mxGeometry width="50" height="50" relative="1" as="geometry">
            <Array as="points" />
          </mxGeometry>
        </mxCell>
        <mxCell id="R-M30CxggkiC4CBZBjgB-71" value="" style="html=1;rounded=1;;dashed=0;startArrow=classic;startSize=12;endArrow=none;strokeColor=#595959;exitX=0.438;exitY=1.000;exitDx=0;exitDy=0;entryX=0.548;entryY=0.000;entryDx=0;entryDy=0;" parent="1" source="R-M30CxggkiC4CBZBjgB-17" target="R-M30CxggkiC4CBZBjgB-34" edge="1">
          <mxGeometry width="50" height="50" relative="1" as="geometry">
            <Array as="points" />
          </mxGeometry>
        </mxCell>
        <mxCell id="R-M30CxggkiC4CBZBjgB-72" value="" style="html=1;rounded=1;;dashed=0;startArrow=classic;startSize=12;endArrow=none;strokeColor=#595959;exitX=0.713;exitY=1.000;exitDx=0;exitDy=0;entryX=0.385;entryY=0.000;entryDx=0;entryDy=0;" parent="1" source="R-M30CxggkiC4CBZBjgB-17" target="R-M30CxggkiC4CBZBjgB-37" edge="1">
          <mxGeometry width="50" height="50" relative="1" as="geometry">
            <Array as="points" />
          </mxGeometry>
        </mxCell>
        <mxCell id="R-M30CxggkiC4CBZBjgB-73" value="" style="html=1;rounded=1;;dashed=0;startArrow=classic;startSize=12;endArrow=none;strokeColor=#595959;exitX=0.793;exitY=0.000;exitDx=0;exitDy=0;entryX=0.201;entryY=1.000;entryDx=0;entryDy=0;" parent="1" source="R-M30CxggkiC4CBZBjgB-21" target="R-M30CxggkiC4CBZBjgB-1" edge="1">
          <mxGeometry width="50" height="50" relative="1" as="geometry">
            <Array as="points" />
          </mxGeometry>
        </mxCell>
        <mxCell id="R-M30CxggkiC4CBZBjgB-74" value="" style="html=1;rounded=1;;dashed=0;startArrow=classic;startSize=12;endArrow=none;strokeColor=#595959;exitX=0.544;exitY=1.000;exitDx=0;exitDy=0;entryX=0.450;entryY=0.001;entryDx=0;entryDy=0;" parent="1" source="R-M30CxggkiC4CBZBjgB-21" target="R-M30CxggkiC4CBZBjgB-53" edge="1">
          <mxGeometry width="50" height="50" relative="1" as="geometry">
            <Array as="points" />
          </mxGeometry>
        </mxCell>
        <mxCell id="R-M30CxggkiC4CBZBjgB-75" value="" style="html=1;rounded=1;;dashed=0;startArrow=classic;startSize=12;endArrow=none;strokeColor=#595959;exitX=0.477;exitY=0.000;exitDx=0;exitDy=0;entryX=0.446;entryY=1.000;entryDx=0;entryDy=0;" parent="1" source="R-M30CxggkiC4CBZBjgB-22" target="R-M30CxggkiC4CBZBjgB-28" edge="1">
          <mxGeometry width="50" height="50" relative="1" as="geometry">
            <Array as="points" />
          </mxGeometry>
        </mxCell>
        <mxCell id="R-M30CxggkiC4CBZBjgB-76" value="" style="html=1;rounded=1;;dashed=0;startArrow=classic;startSize=12;endArrow=none;strokeColor=#595959;exitX=0.523;exitY=0.000;exitDx=0;exitDy=0;entryX=0.556;entryY=1.000;entryDx=0;entryDy=0;" parent="1" source="R-M30CxggkiC4CBZBjgB-22" target="R-M30CxggkiC4CBZBjgB-28" edge="1">
          <mxGeometry width="50" height="50" relative="1" as="geometry">
            <Array as="points" />
          </mxGeometry>
        </mxCell>
        <mxCell id="R-M30CxggkiC4CBZBjgB-77" value="" style="html=1;rounded=1;;dashed=0;startArrow=classic;startSize=12;endArrow=none;strokeColor=#595959;exitX=0.645;exitY=1.000;exitDx=0;exitDy=0;entryX=0.243;entryY=0.000;entryDx=0;entryDy=0;" parent="1" source="R-M30CxggkiC4CBZBjgB-24" target="R-M30CxggkiC4CBZBjgB-28" edge="1">
          <mxGeometry width="50" height="50" relative="1" as="geometry">
            <Array as="points" />
          </mxGeometry>
        </mxCell>
        <mxCell id="R-M30CxggkiC4CBZBjgB-78" value="" style="html=1;rounded=1;;dashed=0;startArrow=classic;startSize=12;endArrow=none;strokeColor=#595959;exitX=0.594;exitY=1.000;exitDx=0;exitDy=0;entryX=0.106;entryY=0.000;entryDx=0;entryDy=0;" parent="1" source="R-M30CxggkiC4CBZBjgB-24" target="R-M30CxggkiC4CBZBjgB-28" edge="1">
          <mxGeometry width="50" height="50" relative="1" as="geometry">
            <Array as="points" />
          </mxGeometry>
        </mxCell>
        <mxCell id="R-M30CxggkiC4CBZBjgB-79" value="" style="html=1;rounded=1;;dashed=0;startArrow=classic;startSize=12;endArrow=none;strokeColor=#595959;exitX=0.524;exitY=0.000;exitDx=0;exitDy=0;entryX=0.486;entryY=1.000;entryDx=0;entryDy=0;" parent="1" source="R-M30CxggkiC4CBZBjgB-29" target="R-M30CxggkiC4CBZBjgB-2" edge="1">
          <mxGeometry width="50" height="50" relative="1" as="geometry">
            <Array as="points" />
          </mxGeometry>
        </mxCell>
        <mxCell id="R-M30CxggkiC4CBZBjgB-80" value="" style="html=1;rounded=1;;dashed=0;startArrow=classic;startSize=12;endArrow=none;strokeColor=#595959;exitX=0.937;exitY=0.000;exitDx=0;exitDy=0;entryX=0.147;entryY=1.000;entryDx=0;entryDy=0;" parent="1" source="R-M30CxggkiC4CBZBjgB-29" target="R-M30CxggkiC4CBZBjgB-3" edge="1">
          <mxGeometry width="50" height="50" relative="1" as="geometry">
            <Array as="points" />
          </mxGeometry>
        </mxCell>
        <mxCell id="R-M30CxggkiC4CBZBjgB-81" value="" style="html=1;rounded=1;;dashed=0;startArrow=classic;startSize=12;endArrow=none;strokeColor=#595959;exitX=0.274;exitY=0.000;exitDx=0;exitDy=0;entryX=0.609;entryY=1.000;entryDx=0;entryDy=0;" parent="1" source="R-M30CxggkiC4CBZBjgB-29" target="R-M30CxggkiC4CBZBjgB-4" edge="1">
          <mxGeometry width="50" height="50" relative="1" as="geometry">
            <Array as="points" />
          </mxGeometry>
        </mxCell>
        <mxCell id="R-M30CxggkiC4CBZBjgB-82" value="" style="html=1;rounded=1;;dashed=0;startArrow=classic;startSize=12;endArrow=none;strokeColor=#595959;exitX=0.465;exitY=1.000;exitDx=0;exitDy=0;entryX=0.628;entryY=0.000;entryDx=0;entryDy=0;" parent="1" source="R-M30CxggkiC4CBZBjgB-29" target="R-M30CxggkiC4CBZBjgB-28" edge="1">
          <mxGeometry width="50" height="50" relative="1" as="geometry">
            <Array as="points" />
          </mxGeometry>
        </mxCell>
        <mxCell id="R-M30CxggkiC4CBZBjgB-83" value="" style="html=1;rounded=1;;dashed=0;startArrow=classic;startSize=12;endArrow=none;strokeColor=#595959;exitX=0.414;exitY=1.000;exitDx=0;exitDy=0;entryX=0.516;entryY=0.000;entryDx=0;entryDy=0;" parent="1" source="R-M30CxggkiC4CBZBjgB-29" target="R-M30CxggkiC4CBZBjgB-28" edge="1">
          <mxGeometry width="50" height="50" relative="1" as="geometry">
            <Array as="points" />
          </mxGeometry>
        </mxCell>
        <mxCell id="R-M30CxggkiC4CBZBjgB-84" value="" style="html=1;rounded=1;;dashed=0;startArrow=classic;startSize=12;endArrow=none;strokeColor=#595959;exitX=0.775;exitY=1.000;exitDx=0;exitDy=0;entryX=0.029;entryY=0.000;entryDx=0;entryDy=0;" parent="1" source="R-M30CxggkiC4CBZBjgB-30" target="R-M30CxggkiC4CBZBjgB-28" edge="1">
          <mxGeometry width="50" height="50" relative="1" as="geometry">
            <Array as="points" />
          </mxGeometry>
        </mxCell>
        <mxCell id="R-M30CxggkiC4CBZBjgB-85" value="" style="html=1;rounded=1;;dashed=0;startArrow=classic;startSize=12;endArrow=none;strokeColor=#595959;exitX=0.699;exitY=1.000;exitDx=0;exitDy=0;entryX=0.000;entryY=0.136;entryDx=0;entryDy=0;" parent="1" source="R-M30CxggkiC4CBZBjgB-30" target="R-M30CxggkiC4CBZBjgB-28" edge="1">
          <mxGeometry width="50" height="50" relative="1" as="geometry">
            <Array as="points" />
          </mxGeometry>
        </mxCell>
        <mxCell id="R-M30CxggkiC4CBZBjgB-86" value="" style="html=1;rounded=1;;dashed=0;startArrow=classic;startSize=12;endArrow=none;strokeColor=#595959;exitX=0.713;exitY=0.000;exitDx=0;exitDy=0;entryX=0.000;entryY=0.873;entryDx=0;entryDy=0;" parent="1" source="R-M30CxggkiC4CBZBjgB-31" target="R-M30CxggkiC4CBZBjgB-28" edge="1">
          <mxGeometry width="50" height="50" relative="1" as="geometry">
            <Array as="points" />
          </mxGeometry>
        </mxCell>
        <mxCell id="R-M30CxggkiC4CBZBjgB-87" value="" style="html=1;rounded=1;;dashed=0;startArrow=classic;startSize=12;endArrow=none;strokeColor=#595959;exitX=0.796;exitY=0.000;exitDx=0;exitDy=0;entryX=0.039;entryY=1.000;entryDx=0;entryDy=0;" parent="1" source="R-M30CxggkiC4CBZBjgB-31" target="R-M30CxggkiC4CBZBjgB-28" edge="1">
          <mxGeometry width="50" height="50" relative="1" as="geometry">
            <Array as="points" />
          </mxGeometry>
        </mxCell>
        <mxCell id="R-M30CxggkiC4CBZBjgB-88" value="" style="html=1;rounded=1;;dashed=0;startArrow=classic;startSize=12;endArrow=none;strokeColor=#595959;exitX=0.796;exitY=0.000;exitDx=0;exitDy=0;entryX=0.000;entryY=0.711;entryDx=0;entryDy=0;" parent="1" source="R-M30CxggkiC4CBZBjgB-32" target="R-M30CxggkiC4CBZBjgB-28" edge="1">
          <mxGeometry width="50" height="50" relative="1" as="geometry">
            <Array as="points" />
          </mxGeometry>
        </mxCell>
        <mxCell id="R-M30CxggkiC4CBZBjgB-89" value="" style="html=1;rounded=1;;dashed=0;startArrow=classic;startSize=12;endArrow=none;strokeColor=#595959;exitX=0.895;exitY=0.000;exitDx=0;exitDy=0;entryX=0.000;entryY=0.854;entryDx=0;entryDy=0;" parent="1" source="R-M30CxggkiC4CBZBjgB-32" target="R-M30CxggkiC4CBZBjgB-28" edge="1">
          <mxGeometry width="50" height="50" relative="1" as="geometry">
            <Array as="points" />
          </mxGeometry>
        </mxCell>
        <mxCell id="R-M30CxggkiC4CBZBjgB-90" value="" style="html=1;rounded=1;;dashed=0;startArrow=classic;startSize=12;endArrow=none;strokeColor=#595959;exitX=1.000;exitY=0.440;exitDx=0;exitDy=0;entryX=0.222;entryY=1.000;entryDx=0;entryDy=0;" parent="1" source="R-M30CxggkiC4CBZBjgB-33" target="R-M30CxggkiC4CBZBjgB-5" edge="1">
          <mxGeometry width="50" height="50" relative="1" as="geometry">
            <Array as="points" />
          </mxGeometry>
        </mxCell>
        <mxCell id="R-M30CxggkiC4CBZBjgB-91" value="" style="html=1;rounded=1;;dashed=0;startArrow=classic;startSize=12;endArrow=none;strokeColor=#595959;exitX=1.000;exitY=0.338;exitDx=0;exitDy=0;entryX=0.338;entryY=1.000;entryDx=0;entryDy=0;" parent="1" source="R-M30CxggkiC4CBZBjgB-33" target="R-M30CxggkiC4CBZBjgB-7" edge="1">
          <mxGeometry width="50" height="50" relative="1" as="geometry">
            <Array as="points" />
          </mxGeometry>
        </mxCell>
        <mxCell id="R-M30CxggkiC4CBZBjgB-92" value="" style="html=1;rounded=1;;dashed=0;startArrow=classic;startSize=12;endArrow=none;strokeColor=#595959;exitX=0.366;exitY=0.000;exitDx=0;exitDy=0;entryX=0.514;entryY=1.000;entryDx=0;entryDy=0;" parent="1" source="R-M30CxggkiC4CBZBjgB-33" target="R-M30CxggkiC4CBZBjgB-8" edge="1">
          <mxGeometry width="50" height="50" relative="1" as="geometry">
            <Array as="points" />
          </mxGeometry>
        </mxCell>
        <mxCell id="R-M30CxggkiC4CBZBjgB-93" value="" style="html=1;rounded=1;;dashed=0;startArrow=classic;startSize=12;endArrow=none;strokeColor=#595959;exitX=1.000;exitY=0.530;exitDx=0;exitDy=0;entryX=0.000;entryY=0.205;entryDx=0;entryDy=0;" parent="1" source="R-M30CxggkiC4CBZBjgB-33" target="R-M30CxggkiC4CBZBjgB-9" edge="1">
          <mxGeometry width="50" height="50" relative="1" as="geometry">
            <Array as="points" />
          </mxGeometry>
        </mxCell>
        <mxCell id="R-M30CxggkiC4CBZBjgB-94" value="" style="html=1;rounded=1;;dashed=0;startArrow=classic;startSize=12;endArrow=none;strokeColor=#595959;exitX=0.990;exitY=1.000;exitDx=0;exitDy=0;entryX=0.466;entryY=0.000;entryDx=0;entryDy=0;" parent="1" source="R-M30CxggkiC4CBZBjgB-33" target="R-M30CxggkiC4CBZBjgB-10" edge="1">
          <mxGeometry width="50" height="50" relative="1" as="geometry">
            <Array as="points" />
          </mxGeometry>
        </mxCell>
        <mxCell id="R-M30CxggkiC4CBZBjgB-95" value="" style="html=1;rounded=1;;dashed=0;startArrow=classic;startSize=12;endArrow=none;strokeColor=#595959;exitX=1.000;exitY=0.438;exitDx=0;exitDy=0;entryX=0.379;entryY=1.000;entryDx=0;entryDy=0;" parent="1" source="R-M30CxggkiC4CBZBjgB-33" target="R-M30CxggkiC4CBZBjgB-12" edge="1">
          <mxGeometry width="50" height="50" relative="1" as="geometry">
            <Array as="points" />
          </mxGeometry>
        </mxCell>
        <mxCell id="R-M30CxggkiC4CBZBjgB-96" value="" style="html=1;rounded=1;;dashed=0;startArrow=classic;startSize=12;endArrow=none;strokeColor=#595959;exitX=0.547;exitY=0.000;exitDx=0;exitDy=0;entryX=0.499;entryY=0.999;entryDx=0;entryDy=0;" parent="1" source="R-M30CxggkiC4CBZBjgB-33" target="R-M30CxggkiC4CBZBjgB-13" edge="1">
          <mxGeometry width="50" height="50" relative="1" as="geometry">
            <Array as="points" />
          </mxGeometry>
        </mxCell>
        <mxCell id="R-M30CxggkiC4CBZBjgB-97" value="" style="html=1;rounded=1;;dashed=0;startArrow=classic;startSize=12;endArrow=none;strokeColor=#595959;exitX=0.214;exitY=1.000;exitDx=0;exitDy=0;entryX=0.509;entryY=0.000;entryDx=0;entryDy=0;" parent="1" source="R-M30CxggkiC4CBZBjgB-33" target="R-M30CxggkiC4CBZBjgB-14" edge="1">
          <mxGeometry width="50" height="50" relative="1" as="geometry">
            <Array as="points" />
          </mxGeometry>
        </mxCell>
        <mxCell id="R-M30CxggkiC4CBZBjgB-98" value="" style="html=1;rounded=1;;dashed=0;startArrow=classic;startSize=12;endArrow=none;strokeColor=#595959;exitX=0.945;exitY=1.000;exitDx=0;exitDy=0;entryX=0.447;entryY=0.000;entryDx=0;entryDy=0;" parent="1" source="R-M30CxggkiC4CBZBjgB-33" target="R-M30CxggkiC4CBZBjgB-17" edge="1">
          <mxGeometry width="50" height="50" relative="1" as="geometry">
            <Array as="points" />
          </mxGeometry>
        </mxCell>
        <mxCell id="R-M30CxggkiC4CBZBjgB-99" value="" style="html=1;rounded=1;;dashed=0;startArrow=classic;startSize=12;endArrow=none;strokeColor=#595959;exitX=1.000;exitY=0.494;exitDx=0;exitDy=0;entryX=0.000;entryY=0.636;entryDx=0;entryDy=0;" parent="1" source="R-M30CxggkiC4CBZBjgB-33" target="R-M30CxggkiC4CBZBjgB-18" edge="1">
          <mxGeometry width="50" height="50" relative="1" as="geometry">
            <Array as="points" />
          </mxGeometry>
        </mxCell>
        <mxCell id="R-M30CxggkiC4CBZBjgB-100" value="" style="html=1;rounded=1;;dashed=0;startArrow=classic;startSize=12;endArrow=none;strokeColor=#595959;exitX=1.000;exitY=0.564;exitDx=0;exitDy=0;entryX=0.383;entryY=0.000;entryDx=0;entryDy=0;" parent="1" source="R-M30CxggkiC4CBZBjgB-33" target="R-M30CxggkiC4CBZBjgB-19" edge="1">
          <mxGeometry width="50" height="50" relative="1" as="geometry">
            <Array as="points" />
          </mxGeometry>
        </mxCell>
        <mxCell id="R-M30CxggkiC4CBZBjgB-101" value="" style="html=1;rounded=1;;dashed=0;startArrow=classic;startSize=12;endArrow=none;strokeColor=#595959;exitX=0.000;exitY=0.724;exitDx=0;exitDy=0;entryX=0.532;entryY=0.000;entryDx=0;entryDy=0;" parent="1" source="R-M30CxggkiC4CBZBjgB-33" target="R-M30CxggkiC4CBZBjgB-20" edge="1">
          <mxGeometry width="50" height="50" relative="1" as="geometry">
            <Array as="points" />
          </mxGeometry>
        </mxCell>
        <mxCell id="R-M30CxggkiC4CBZBjgB-102" value="" style="html=1;rounded=1;;dashed=0;startArrow=classic;startSize=12;endArrow=none;strokeColor=#595959;exitX=1.000;exitY=0.566;exitDx=0;exitDy=0;entryX=0.184;entryY=0.000;entryDx=0;entryDy=0;" parent="1" source="R-M30CxggkiC4CBZBjgB-33" target="R-M30CxggkiC4CBZBjgB-21" edge="1">
          <mxGeometry width="50" height="50" relative="1" as="geometry">
            <Array as="points" />
          </mxGeometry>
        </mxCell>
        <mxCell id="R-M30CxggkiC4CBZBjgB-103" value="" style="html=1;rounded=1;;dashed=0;startArrow=classic;startSize=12;endArrow=none;strokeColor=#595959;exitX=0.000;exitY=0.589;exitDx=0;exitDy=0;entryX=0.799;entryY=0.000;entryDx=0;entryDy=0;" parent="1" source="R-M30CxggkiC4CBZBjgB-33" target="R-M30CxggkiC4CBZBjgB-22" edge="1">
          <mxGeometry width="50" height="50" relative="1" as="geometry">
            <Array as="points" />
          </mxGeometry>
        </mxCell>
        <mxCell id="R-M30CxggkiC4CBZBjgB-104" value="" style="html=1;rounded=1;;dashed=0;startArrow=classic;startSize=12;endArrow=none;strokeColor=#595959;exitX=1.000;exitY=0.312;exitDx=0;exitDy=0;entryX=0.439;entryY=0.999;entryDx=0;entryDy=0;" parent="1" source="R-M30CxggkiC4CBZBjgB-33" target="R-M30CxggkiC4CBZBjgB-23" edge="1">
          <mxGeometry width="50" height="50" relative="1" as="geometry">
            <Array as="points" />
          </mxGeometry>
        </mxCell>
        <mxCell id="R-M30CxggkiC4CBZBjgB-105" value="" style="html=1;rounded=1;;dashed=0;startArrow=classic;startSize=12;endArrow=none;strokeColor=#595959;exitX=0.000;exitY=0.374;exitDx=0;exitDy=0;entryX=0.687;entryY=1.000;entryDx=0;entryDy=0;" parent="1" source="R-M30CxggkiC4CBZBjgB-33" target="R-M30CxggkiC4CBZBjgB-24" edge="1">
          <mxGeometry width="50" height="50" relative="1" as="geometry">
            <Array as="points" />
          </mxGeometry>
        </mxCell>
        <mxCell id="R-M30CxggkiC4CBZBjgB-106" value="" style="html=1;rounded=1;;dashed=0;startArrow=classic;startSize=12;endArrow=none;strokeColor=#595959;exitX=0.064;exitY=0.000;exitDx=0;exitDy=0;entryX=0.594;entryY=1.000;entryDx=0;entryDy=0;" parent="1" source="R-M30CxggkiC4CBZBjgB-33" target="R-M30CxggkiC4CBZBjgB-29" edge="1">
          <mxGeometry width="50" height="50" relative="1" as="geometry">
            <Array as="points" />
          </mxGeometry>
        </mxCell>
        <mxCell id="R-M30CxggkiC4CBZBjgB-107" value="" style="html=1;rounded=1;;dashed=0;startArrow=classic;startSize=12;endArrow=none;strokeColor=#595959;exitX=0.000;exitY=0.419;exitDx=0;exitDy=0;entryX=0.833;entryY=1.000;entryDx=0;entryDy=0;" parent="1" source="R-M30CxggkiC4CBZBjgB-33" target="R-M30CxggkiC4CBZBjgB-30" edge="1">
          <mxGeometry width="50" height="50" relative="1" as="geometry">
            <Array as="points" />
          </mxGeometry>
        </mxCell>
        <mxCell id="R-M30CxggkiC4CBZBjgB-108" value="" style="html=1;rounded=1;;dashed=0;startArrow=classic;startSize=12;endArrow=none;strokeColor=#595959;exitX=0.000;exitY=0.530;exitDx=0;exitDy=0;entryX=1.000;entryY=0.244;entryDx=0;entryDy=0;" parent="1" source="R-M30CxggkiC4CBZBjgB-33" target="R-M30CxggkiC4CBZBjgB-31" edge="1">
          <mxGeometry width="50" height="50" relative="1" as="geometry">
            <Array as="points" />
          </mxGeometry>
        </mxCell>
        <mxCell id="R-M30CxggkiC4CBZBjgB-109" value="" style="html=1;rounded=1;;dashed=0;startArrow=classic;startSize=12;endArrow=none;strokeColor=#595959;exitX=0.000;exitY=0.623;exitDx=0;exitDy=0;entryX=0.686;entryY=0.000;entryDx=0;entryDy=0;" parent="1" source="R-M30CxggkiC4CBZBjgB-33" target="R-M30CxggkiC4CBZBjgB-41" edge="1">
          <mxGeometry width="50" height="50" relative="1" as="geometry">
            <Array as="points" />
          </mxGeometry>
        </mxCell>
        <mxCell id="R-M30CxggkiC4CBZBjgB-110" value="" style="html=1;rounded=1;;dashed=0;startArrow=classic;startSize=12;endArrow=none;strokeColor=#595959;exitX=1.000;exitY=0.672;exitDx=0;exitDy=0;entryX=0.446;entryY=0.001;entryDx=0;entryDy=0;" parent="1" source="R-M30CxggkiC4CBZBjgB-33" target="R-M30CxggkiC4CBZBjgB-42" edge="1">
          <mxGeometry width="50" height="50" relative="1" as="geometry">
            <Array as="points" />
          </mxGeometry>
        </mxCell>
        <mxCell id="R-M30CxggkiC4CBZBjgB-111" value="" style="html=1;rounded=1;;dashed=0;startArrow=classic;startSize=12;endArrow=none;strokeColor=#595959;exitX=1.000;exitY=0.122;exitDx=0;exitDy=0;entryX=0.447;entryY=1.000;entryDx=0;entryDy=0;" parent="1" source="R-M30CxggkiC4CBZBjgB-33" target="R-M30CxggkiC4CBZBjgB-44" edge="1">
          <mxGeometry width="50" height="50" relative="1" as="geometry">
            <Array as="points" />
          </mxGeometry>
        </mxCell>
        <mxCell id="R-M30CxggkiC4CBZBjgB-112" value="" style="html=1;rounded=1;;dashed=0;startArrow=classic;startSize=12;endArrow=none;strokeColor=#595959;exitX=0.000;exitY=0.908;exitDx=0;exitDy=0;entryX=0.523;entryY=0.000;entryDx=0;entryDy=0;" parent="1" source="R-M30CxggkiC4CBZBjgB-33" target="R-M30CxggkiC4CBZBjgB-45" edge="1">
          <mxGeometry width="50" height="50" relative="1" as="geometry">
            <Array as="points" />
          </mxGeometry>
        </mxCell>
        <mxCell id="R-M30CxggkiC4CBZBjgB-113" value="" style="html=1;rounded=1;;dashed=0;startArrow=classic;startSize=12;endArrow=none;strokeColor=#595959;exitX=1.000;exitY=0.714;exitDx=0;exitDy=0;entryX=0.479;entryY=0.000;entryDx=0;entryDy=0;" parent="1" source="R-M30CxggkiC4CBZBjgB-33" target="R-M30CxggkiC4CBZBjgB-50" edge="1">
          <mxGeometry width="50" height="50" relative="1" as="geometry">
            <Array as="points" />
          </mxGeometry>
        </mxCell>
        <mxCell id="R-M30CxggkiC4CBZBjgB-114" value="" style="html=1;rounded=1;;dashed=0;startArrow=classic;startSize=12;endArrow=none;strokeColor=#595959;exitX=1.000;exitY=0.745;exitDx=0;exitDy=0;entryX=0.416;entryY=0.000;entryDx=0;entryDy=0;" parent="1" source="R-M30CxggkiC4CBZBjgB-33" target="R-M30CxggkiC4CBZBjgB-50" edge="1">
          <mxGeometry width="50" height="50" relative="1" as="geometry">
            <Array as="points" />
          </mxGeometry>
        </mxCell>
        <mxCell id="R-M30CxggkiC4CBZBjgB-115" value="" style="html=1;rounded=1;;dashed=0;startArrow=classic;startSize=12;endArrow=none;strokeColor=#595959;exitX=0.000;exitY=0.371;exitDx=0;exitDy=0;entryX=0.623;entryY=1.000;entryDx=0;entryDy=0;" parent="1" source="R-M30CxggkiC4CBZBjgB-33" target="R-M30CxggkiC4CBZBjgB-51" edge="1">
          <mxGeometry width="50" height="50" relative="1" as="geometry">
            <Array as="points" />
          </mxGeometry>
        </mxCell>
        <mxCell id="R-M30CxggkiC4CBZBjgB-116" value="" style="html=1;rounded=1;;dashed=0;startArrow=classic;startSize=12;endArrow=none;strokeColor=#595959;exitX=1.000;exitY=0.020;exitDx=0;exitDy=0;entryX=0.438;entryY=1.001;entryDx=0;entryDy=0;" parent="1" source="R-M30CxggkiC4CBZBjgB-36" target="R-M30CxggkiC4CBZBjgB-16" edge="1">
          <mxGeometry width="50" height="50" relative="1" as="geometry">
            <Array as="points" />
          </mxGeometry>
        </mxCell>
        <mxCell id="R-M30CxggkiC4CBZBjgB-117" value="" style="html=1;rounded=1;;dashed=0;startArrow=classic;startSize=12;endArrow=none;strokeColor=#595959;exitX=0.121;exitY=1.000;exitDx=0;exitDy=0;entryX=0.533;entryY=0.000;entryDx=0;entryDy=0;" parent="1" source="R-M30CxggkiC4CBZBjgB-36" target="R-M30CxggkiC4CBZBjgB-26" edge="1">
          <mxGeometry width="50" height="50" relative="1" as="geometry">
            <Array as="points" />
          </mxGeometry>
        </mxCell>
        <mxCell id="R-M30CxggkiC4CBZBjgB-118" value="" style="html=1;rounded=1;;dashed=0;startArrow=classic;startSize=12;endArrow=none;strokeColor=#595959;exitX=0.000;exitY=0.418;exitDx=0;exitDy=0;entryX=0.758;entryY=1.000;entryDx=0;entryDy=0;" parent="1" source="R-M30CxggkiC4CBZBjgB-36" target="R-M30CxggkiC4CBZBjgB-27" edge="1">
          <mxGeometry width="50" height="50" relative="1" as="geometry">
            <Array as="points" />
          </mxGeometry>
        </mxCell>
        <mxCell id="R-M30CxggkiC4CBZBjgB-119" value="" style="html=1;rounded=1;;dashed=0;startArrow=classic;startSize=12;endArrow=none;strokeColor=#595959;exitX=1.000;exitY=0.533;exitDx=0;exitDy=0;entryX=0.000;entryY=0.481;entryDx=0;entryDy=0;" parent="1" source="R-M30CxggkiC4CBZBjgB-36" target="R-M30CxggkiC4CBZBjgB-33" edge="1">
          <mxGeometry width="50" height="50" relative="1" as="geometry">
            <Array as="points" />
          </mxGeometry>
        </mxCell>
        <mxCell id="R-M30CxggkiC4CBZBjgB-120" value="" style="html=1;rounded=1;;dashed=0;startArrow=classic;startSize=12;endArrow=none;strokeColor=#595959;exitX=0.000;exitY=0.677;exitDx=0;exitDy=0;entryX=0.701;entryY=0.000;entryDx=0;entryDy=0;" parent="1" source="R-M30CxggkiC4CBZBjgB-36" target="R-M30CxggkiC4CBZBjgB-35" edge="1">
          <mxGeometry width="50" height="50" relative="1" as="geometry">
            <Array as="points" />
          </mxGeometry>
        </mxCell>
        <mxCell id="R-M30CxggkiC4CBZBjgB-121" value="" style="html=1;rounded=1;;dashed=0;startArrow=classic;startSize=12;endArrow=none;strokeColor=#595959;exitX=1.000;exitY=0.541;exitDx=0;exitDy=0;entryX=0.000;entryY=0.364;entryDx=0;entryDy=0;" parent="1" source="R-M30CxggkiC4CBZBjgB-36" target="R-M30CxggkiC4CBZBjgB-48" edge="1">
          <mxGeometry width="50" height="50" relative="1" as="geometry">
            <Array as="points" />
          </mxGeometry>
        </mxCell>
        <mxCell id="R-M30CxggkiC4CBZBjgB-122" value="" style="html=1;rounded=1;;dashed=0;startArrow=classic;startSize=12;endArrow=none;strokeColor=#595959;exitX=0.018;exitY=0.000;exitDx=0;exitDy=0;entryX=0.547;entryY=1.001;entryDx=0;entryDy=0;" parent="1" source="R-M30CxggkiC4CBZBjgB-36" target="R-M30CxggkiC4CBZBjgB-49" edge="1">
          <mxGeometry width="50" height="50" relative="1" as="geometry">
            <Array as="points" />
          </mxGeometry>
        </mxCell>
        <mxCell id="R-M30CxggkiC4CBZBjgB-123" value="" style="html=1;rounded=1;;dashed=0;startArrow=classic;startSize=12;endArrow=none;strokeColor=#595959;exitX=0.913;exitY=0.000;exitDx=0;exitDy=0;entryX=0.454;entryY=1.000;entryDx=0;entryDy=0;" parent="1" source="R-M30CxggkiC4CBZBjgB-36" target="R-M30CxggkiC4CBZBjgB-51" edge="1">
          <mxGeometry width="50" height="50" relative="1" as="geometry">
            <Array as="points" />
          </mxGeometry>
        </mxCell>
        <mxCell id="R-M30CxggkiC4CBZBjgB-124" value="" style="html=1;rounded=1;;dashed=0;startArrow=classic;startSize=12;endArrow=none;strokeColor=#595959;exitX=0.311;exitY=1.000;exitDx=0;exitDy=0;entryX=0.565;entryY=0.001;entryDx=0;entryDy=0;" parent="1" source="R-M30CxggkiC4CBZBjgB-38" target="R-M30CxggkiC4CBZBjgB-51" edge="1">
          <mxGeometry width="50" height="50" relative="1" as="geometry">
            <Array as="points" />
          </mxGeometry>
        </mxCell>
        <mxCell id="R-M30CxggkiC4CBZBjgB-125" value="" style="html=1;rounded=1;;dashed=0;startArrow=classic;startSize=12;endArrow=none;strokeColor=#595959;exitX=0.199;exitY=0.000;exitDx=0;exitDy=0;entryX=0.599;entryY=1.000;entryDx=0;entryDy=0;" parent="1" source="R-M30CxggkiC4CBZBjgB-38" target="R-M30CxggkiC4CBZBjgB-52" edge="1">
          <mxGeometry width="50" height="50" relative="1" as="geometry">
            <Array as="points" />
          </mxGeometry>
        </mxCell>
        <mxCell id="R-M30CxggkiC4CBZBjgB-126" value="" style="html=1;rounded=1;;dashed=0;startArrow=classic;startSize=12;endArrow=none;strokeColor=#595959;exitX=0.784;exitY=1.000;exitDx=0;exitDy=0;entryX=0.403;entryY=0.001;entryDx=0;entryDy=0;" parent="1" source="R-M30CxggkiC4CBZBjgB-39" target="R-M30CxggkiC4CBZBjgB-51" edge="1">
          <mxGeometry width="50" height="50" relative="1" as="geometry">
            <Array as="points" />
          </mxGeometry>
        </mxCell>
        <mxCell id="R-M30CxggkiC4CBZBjgB-127" value="" style="html=1;rounded=1;;dashed=0;startArrow=classic;startSize=12;endArrow=none;strokeColor=#595959;exitX=0.722;exitY=0.000;exitDx=0;exitDy=0;entryX=0.428;entryY=1.000;entryDx=0;entryDy=0;" parent="1" source="R-M30CxggkiC4CBZBjgB-39" target="R-M30CxggkiC4CBZBjgB-52" edge="1">
          <mxGeometry width="50" height="50" relative="1" as="geometry">
            <Array as="points" />
          </mxGeometry>
        </mxCell>
        <mxCell id="R-M30CxggkiC4CBZBjgB-128" value="" style="html=1;rounded=1;;dashed=0;startArrow=classic;startSize=12;endArrow=none;strokeColor=#595959;exitX=0.521;exitY=0.000;exitDx=0;exitDy=0;entryX=0.326;entryY=1.000;entryDx=0;entryDy=0;" parent="1" source="R-M30CxggkiC4CBZBjgB-41" target="R-M30CxggkiC4CBZBjgB-28" edge="1">
          <mxGeometry width="50" height="50" relative="1" as="geometry">
            <Array as="points" />
          </mxGeometry>
        </mxCell>
        <mxCell id="R-M30CxggkiC4CBZBjgB-129" value="" style="html=1;rounded=1;;dashed=0;startArrow=classic;startSize=12;endArrow=none;strokeColor=#595959;exitX=0.562;exitY=0.000;exitDx=0;exitDy=0;entryX=0.440;entryY=1.000;entryDx=0;entryDy=0;" parent="1" source="R-M30CxggkiC4CBZBjgB-41" target="R-M30CxggkiC4CBZBjgB-28" edge="1">
          <mxGeometry width="50" height="50" relative="1" as="geometry">
            <Array as="points" />
          </mxGeometry>
        </mxCell>
        <mxCell id="R-M30CxggkiC4CBZBjgB-130" value="" style="html=1;rounded=1;;dashed=0;startArrow=classic;startSize=12;endArrow=none;strokeColor=#595959;exitX=0.960;exitY=0.000;exitDx=0;exitDy=0;entryX=0.317;entryY=1.000;entryDx=0;entryDy=0;" parent="1" source="R-M30CxggkiC4CBZBjgB-44" target="R-M30CxggkiC4CBZBjgB-43" edge="1">
          <mxGeometry width="50" height="50" relative="1" as="geometry">
            <Array as="points" />
          </mxGeometry>
        </mxCell>
        <mxCell id="R-M30CxggkiC4CBZBjgB-131" value="" style="html=1;rounded=1;;dashed=0;startArrow=classic;startSize=12;endArrow=none;strokeColor=#595959;exitX=0.523;exitY=0.000;exitDx=0;exitDy=0;entryX=0.477;entryY=0.999;entryDx=0;entryDy=0;" parent="1" source="R-M30CxggkiC4CBZBjgB-44" target="R-M30CxggkiC4CBZBjgB-46" edge="1">
          <mxGeometry width="50" height="50" relative="1" as="geometry">
            <Array as="points" />
          </mxGeometry>
        </mxCell>
        <mxCell id="R-M30CxggkiC4CBZBjgB-132" value="" style="html=1;rounded=1;;dashed=0;startArrow=classic;startSize=12;endArrow=none;strokeColor=#595959;exitX=0.484;exitY=0.000;exitDx=0;exitDy=0;entryX=0.508;entryY=1.000;entryDx=0;entryDy=0;" parent="1" source="R-M30CxggkiC4CBZBjgB-47" target="R-M30CxggkiC4CBZBjgB-25" edge="1">
          <mxGeometry width="50" height="50" relative="1" as="geometry">
            <Array as="points" />
          </mxGeometry>
        </mxCell>
        <mxCell id="R-M30CxggkiC4CBZBjgB-133" value="" style="html=1;rounded=1;;dashed=0;startArrow=classic;startSize=12;endArrow=none;strokeColor=#595959;exitX=0.270;exitY=0.000;exitDx=0;exitDy=0;entryX=0.589;entryY=1.001;entryDx=0;entryDy=0;" parent="1" source="R-M30CxggkiC4CBZBjgB-48" target="R-M30CxggkiC4CBZBjgB-16" edge="1">
          <mxGeometry width="50" height="50" relative="1" as="geometry">
            <Array as="points" />
          </mxGeometry>
        </mxCell>
        <mxCell id="R-M30CxggkiC4CBZBjgB-134" value="" style="html=1;rounded=1;;dashed=0;startArrow=classic;startSize=12;endArrow=none;strokeColor=#595959;exitX=1.000;exitY=0.595;exitDx=0;exitDy=0;entryX=0.000;entryY=0.484;entryDx=0;entryDy=0;" parent="1" source="R-M30CxggkiC4CBZBjgB-48" target="R-M30CxggkiC4CBZBjgB-33" edge="1">
          <mxGeometry width="50" height="50" relative="1" as="geometry">
            <Array as="points" />
          </mxGeometry>
        </mxCell>
        <mxCell id="KCkjolmOv0YKm-Dr6y_E-1" value="&lt;p style=&quot;margin:0px;margin-top:4px;text-align:center;&quot;&gt;&lt;b&gt;AssistanceRequest&lt;/b&gt;&lt;/p&gt;&lt;hr size=&quot;1&quot;/&gt;&lt;p style=&quot;margin:0 0 0 4px;line-height:1.6;&quot;&gt;+ assistanceID: String&lt;br/&gt;+ assistanceDate: Date&lt;br/&gt;+ amount: BigDecimal&lt;br/&gt;+ accountID: String&lt;br/&gt;+ functionID: int&lt;br/&gt;+ isFinished: int&lt;br/&gt;+ userID: String&lt;br/&gt;+ payeeAccountID: String&lt;/p&gt;&lt;hr size=&quot;1&quot;/&gt;&lt;p style=&quot;margin:0 0 0 4px;line-height:1.6;&quot;&gt;+ accountID: String&lt;br/&gt;+ payeeAccountID: String&lt;br/&gt;+ functionID: int&lt;br/&gt;+ amount: BigDecimal&lt;br/&gt;+ assistanceDate: Date&lt;br/&gt;+ isFinished: int&lt;br/&gt;+ assistanceID: String&lt;br/&gt;+ userID: String&lt;/p&gt;" style="verticalAlign=top;align=left;overflow=fill;fontSize=14;fontFamily=Helvetica;html=1;rounded=0;shadow=0;comic=0;labelBackgroundColor=none;strokeWidth=1;" vertex="1" parent="1">
          <mxGeometry x="3520" y="1413" width="175" height="386" as="geometry" />
        </mxCell>
        <mxCell id="KCkjolmOv0YKm-Dr6y_E-51" style="edgeStyle=orthogonalEdgeStyle;rounded=0;orthogonalLoop=1;jettySize=auto;html=1;exitX=0.5;exitY=0;exitDx=0;exitDy=0;entryX=0.75;entryY=1;entryDx=0;entryDy=0;fontSize=36;" edge="1" parent="1" source="KCkjolmOv0YKm-Dr6y_E-2" target="KCkjolmOv0YKm-Dr6y_E-42">
          <mxGeometry relative="1" as="geometry" />
        </mxCell>
        <mxCell id="KCkjolmOv0YKm-Dr6y_E-2" value="&lt;p style=&quot;margin:0px;margin-top:4px;text-align:center;&quot;&gt;&lt;b&gt;MessageController&lt;/b&gt;&lt;/p&gt;&lt;hr size=&quot;1&quot;/&gt;&lt;p style=&quot;margin:0 0 0 4px;line-height:1.6;&quot;&gt;+ consumer: Consumer&lt;br/&gt;+ producer: Producer&lt;/p&gt;&lt;hr size=&quot;1&quot;/&gt;&lt;p style=&quot;margin:0 0 0 4px;line-height:1.6;&quot;&gt;+ getMessage(HttpServletRequest): Response&lt;br/&gt;+ send(String, String): Response&lt;/p&gt;&lt;hr size=&quot;1&quot;/&gt;&lt;p style=&quot;margin:0 0 0 4px;line-height:1.6;&quot;&gt;+ producer: Producer&lt;br/&gt;+ consumer: Consumer&lt;/p&gt;" style="verticalAlign=top;align=left;overflow=fill;fontSize=14;fontFamily=Helvetica;html=1;rounded=0;shadow=0;comic=0;labelBackgroundColor=none;strokeWidth=1;" vertex="1" parent="1">
          <mxGeometry x="5310" y="2770" width="275" height="217" as="geometry" />
        </mxCell>
        <mxCell id="KCkjolmOv0YKm-Dr6y_E-21" style="edgeStyle=orthogonalEdgeStyle;rounded=0;orthogonalLoop=1;jettySize=auto;html=1;exitX=0.5;exitY=0;exitDx=0;exitDy=0;entryX=0.5;entryY=1;entryDx=0;entryDy=0;" edge="1" parent="1" source="KCkjolmOv0YKm-Dr6y_E-3">
          <mxGeometry relative="1" as="geometry">
            <mxPoint x="3960" y="2847" as="targetPoint" />
          </mxGeometry>
        </mxCell>
        <mxCell id="KCkjolmOv0YKm-Dr6y_E-3" value="&lt;p style=&quot;margin:0px;margin-top:4px;text-align:center;&quot;&gt;&lt;b&gt;MessageRecv&lt;/b&gt;&lt;/p&gt;&lt;hr size=&quot;1&quot;/&gt;&lt;p style=&quot;margin:0 0 0 4px;line-height:1.6;&quot;&gt;+ message: String&lt;/p&gt;&lt;hr size=&quot;1&quot;/&gt;&lt;p style=&quot;margin:0 0 0 4px;line-height:1.6;&quot;&gt;+ message: String&lt;/p&gt;" style="verticalAlign=top;align=left;overflow=fill;fontSize=14;fontFamily=Helvetica;html=1;rounded=0;shadow=0;comic=0;labelBackgroundColor=none;strokeWidth=1;" vertex="1" parent="1">
          <mxGeometry x="3890" y="2963" width="142" height="134" as="geometry" />
        </mxCell>
        <mxCell id="KCkjolmOv0YKm-Dr6y_E-20" style="edgeStyle=orthogonalEdgeStyle;rounded=0;orthogonalLoop=1;jettySize=auto;html=1;exitX=0.5;exitY=0;exitDx=0;exitDy=0;entryX=0.5;entryY=1;entryDx=0;entryDy=0;" edge="1" parent="1" source="KCkjolmOv0YKm-Dr6y_E-4">
          <mxGeometry relative="1" as="geometry">
            <mxPoint x="3960" y="2847" as="targetPoint" />
          </mxGeometry>
        </mxCell>
        <mxCell id="KCkjolmOv0YKm-Dr6y_E-4" value="&lt;p style=&quot;margin:0px;margin-top:4px;text-align:center;&quot;&gt;&lt;b&gt;MessageResp&lt;/b&gt;&lt;/p&gt;&lt;hr size=&quot;1&quot;/&gt;&lt;p style=&quot;margin:0 0 0 4px;line-height:1.6;&quot;&gt;+ message: String&lt;/p&gt;&lt;hr size=&quot;1&quot;/&gt;&lt;p style=&quot;margin:0 0 0 4px;line-height:1.6;&quot;&gt;+ message: String&lt;/p&gt;" style="verticalAlign=top;align=left;overflow=fill;fontSize=14;fontFamily=Helvetica;html=1;rounded=0;shadow=0;comic=0;labelBackgroundColor=none;strokeWidth=1;" vertex="1" parent="1">
          <mxGeometry x="3610" y="2963" width="200" height="114" as="geometry" />
        </mxCell>
        <mxCell id="KCkjolmOv0YKm-Dr6y_E-49" style="edgeStyle=orthogonalEdgeStyle;rounded=0;orthogonalLoop=1;jettySize=auto;html=1;exitX=0.5;exitY=0;exitDx=0;exitDy=0;entryX=0.5;entryY=1;entryDx=0;entryDy=0;fontSize=36;" edge="1" parent="1" source="KCkjolmOv0YKm-Dr6y_E-5" target="KCkjolmOv0YKm-Dr6y_E-42">
          <mxGeometry relative="1" as="geometry" />
        </mxCell>
        <mxCell id="KCkjolmOv0YKm-Dr6y_E-5" value="&lt;p style=&quot;margin:0px;margin-top:4px;text-align:center;&quot;&gt;&lt;b&gt;UnityController&lt;/b&gt;&lt;/p&gt;&lt;hr size=&quot;1&quot;/&gt;&lt;p style=&quot;margin:0 0 0 4px;line-height:1.6;&quot;&gt;+ addUnity(String, String, String): Response&lt;br/&gt;+ verifyUnity(String): Response&lt;br/&gt;+ deleteUnity(String): Response&lt;/p&gt;" style="verticalAlign=top;align=left;overflow=fill;fontSize=14;fontFamily=Helvetica;html=1;rounded=0;shadow=0;comic=0;labelBackgroundColor=none;strokeWidth=1;" vertex="1" parent="1">
          <mxGeometry x="4260" y="2770" width="269" height="106" as="geometry" />
        </mxCell>
        <mxCell id="KCkjolmOv0YKm-Dr6y_E-16" style="edgeStyle=orthogonalEdgeStyle;rounded=0;orthogonalLoop=1;jettySize=auto;html=1;exitX=0.5;exitY=0;exitDx=0;exitDy=0;entryX=0.5;entryY=1;entryDx=0;entryDy=0;" edge="1" parent="1" source="KCkjolmOv0YKm-Dr6y_E-6" target="KCkjolmOv0YKm-Dr6y_E-8">
          <mxGeometry relative="1" as="geometry" />
        </mxCell>
        <mxCell id="KCkjolmOv0YKm-Dr6y_E-6" value="&lt;p style=&quot;margin:0px;margin-top:4px;text-align:center;&quot;&gt;&lt;i&gt;&amp;lt;&amp;lt;interface&amp;gt;&amp;gt;&lt;/i&gt;&lt;br/&gt;&lt;b&gt;UnityMapper&lt;/b&gt;&lt;/p&gt;&lt;hr size=&quot;1&quot;/&gt;&lt;p style=&quot;margin:0 0 0 4px;line-height:1.6;&quot;&gt;+ addUnity(String, String, String): boolean&lt;br/&gt;+ deleteUnity(String): boolean&lt;br/&gt;+ checkUnity(String): int&lt;br/&gt;+ verifyUnity(String): boolean&lt;/p&gt;" style="verticalAlign=top;align=left;overflow=fill;fontSize=14;fontFamily=Helvetica;html=1;rounded=0;shadow=0;comic=0;labelBackgroundColor=none;strokeWidth=1;" vertex="1" parent="1">
          <mxGeometry x="4203" y="3393.5" width="287" height="150" as="geometry" />
        </mxCell>
        <mxCell id="KCkjolmOv0YKm-Dr6y_E-19" style="edgeStyle=orthogonalEdgeStyle;rounded=0;orthogonalLoop=1;jettySize=auto;html=1;exitX=0.5;exitY=0;exitDx=0;exitDy=0;entryX=0.5;entryY=1;entryDx=0;entryDy=0;" edge="1" parent="1" source="KCkjolmOv0YKm-Dr6y_E-7" target="KCkjolmOv0YKm-Dr6y_E-5">
          <mxGeometry relative="1" as="geometry" />
        </mxCell>
        <mxCell id="KCkjolmOv0YKm-Dr6y_E-7" value="&lt;p style=&quot;margin:0px;margin-top:4px;text-align:center;&quot;&gt;&lt;i&gt;&amp;lt;&amp;lt;interface&amp;gt;&amp;gt;&lt;/i&gt;&lt;br/&gt;&lt;b&gt;UnityService&lt;/b&gt;&lt;/p&gt;&lt;hr size=&quot;1&quot;/&gt;&lt;p style=&quot;margin:0 0 0 4px;line-height:1.6;&quot;&gt;+ addUnity(String, String, String): boolean&lt;br/&gt;+ verifyUnity(String): boolean&lt;br/&gt;+ deleteUnity(String): boolean&lt;/p&gt;" style="verticalAlign=top;align=left;overflow=fill;fontSize=14;fontFamily=Helvetica;html=1;rounded=0;shadow=0;comic=0;labelBackgroundColor=none;strokeWidth=1;" vertex="1" parent="1">
          <mxGeometry x="4231" y="2987" width="280" height="140" as="geometry" />
        </mxCell>
        <mxCell id="KCkjolmOv0YKm-Dr6y_E-17" style="edgeStyle=orthogonalEdgeStyle;rounded=0;orthogonalLoop=1;jettySize=auto;html=1;exitX=0.5;exitY=0;exitDx=0;exitDy=0;entryX=0.5;entryY=1;entryDx=0;entryDy=0;" edge="1" parent="1" source="KCkjolmOv0YKm-Dr6y_E-8" target="KCkjolmOv0YKm-Dr6y_E-7">
          <mxGeometry relative="1" as="geometry" />
        </mxCell>
        <mxCell id="KCkjolmOv0YKm-Dr6y_E-8" value="&lt;p style=&quot;margin:0px;margin-top:4px;text-align:center;&quot;&gt;&lt;b&gt;UnityServiceImpl&lt;/b&gt;&lt;/p&gt;&lt;hr size=&quot;1&quot;/&gt;&lt;p style=&quot;margin:0 0 0 4px;line-height:1.6;&quot;&gt;+ addUnity(String, String, String): boolean&lt;br/&gt;+ deleteUnity(String): boolean&lt;br/&gt;+ verifyUnity(String): boolean&lt;/p&gt;" style="verticalAlign=top;align=left;overflow=fill;fontSize=14;fontFamily=Helvetica;html=1;rounded=0;shadow=0;comic=0;labelBackgroundColor=none;strokeWidth=1;" vertex="1" parent="1">
          <mxGeometry x="4230" y="3207.5" width="272" height="106" as="geometry" />
        </mxCell>
        <mxCell id="KCkjolmOv0YKm-Dr6y_E-38" style="edgeStyle=orthogonalEdgeStyle;rounded=0;orthogonalLoop=1;jettySize=auto;html=1;exitX=1;exitY=0.5;exitDx=0;exitDy=0;entryX=0;entryY=0.5;entryDx=0;entryDy=0;" edge="1" parent="1" source="KCkjolmOv0YKm-Dr6y_E-22" target="KCkjolmOv0YKm-Dr6y_E-36">
          <mxGeometry relative="1" as="geometry" />
        </mxCell>
        <mxCell id="KCkjolmOv0YKm-Dr6y_E-22" value="&lt;p style=&quot;margin:0px;margin-top:4px;text-align:center;&quot;&gt;&lt;i&gt;&amp;lt;&amp;lt;interface&amp;gt;&amp;gt;&lt;/i&gt;&lt;br/&gt;&lt;b&gt;BankAccountService&lt;/b&gt;&lt;/p&gt;&lt;hr size=&quot;1&quot;/&gt;&lt;p style=&quot;margin:0 0 0 4px;line-height:1.6;&quot;&gt;+ getAccountPassword(String): String&lt;br/&gt;+ getMoney(String, BigDecimal): void&lt;br/&gt;+ getBankAccountInfoById(String): BankAccount&lt;br/&gt;+ getAllAccountByUserId(String): List&amp;lt;BankAccount&amp;gt;&lt;br/&gt;+ transferMoney(String, String, BigDecimal): void&lt;br/&gt;+ saveMoney(String, BigDecimal): void&lt;br/&gt;+ openAccount(String, String): String&lt;/p&gt;" style="verticalAlign=top;align=left;overflow=fill;fontSize=14;fontFamily=Helvetica;html=1;rounded=0;shadow=0;comic=0;labelBackgroundColor=none;strokeWidth=1;" vertex="1" parent="1">
          <mxGeometry x="5930" y="3540" width="360" height="230" as="geometry" />
        </mxCell>
        <mxCell id="KCkjolmOv0YKm-Dr6y_E-23" value="&lt;p style=&quot;margin:0px;margin-top:4px;text-align:center;&quot;&gt;&lt;b&gt;BankAccountServiceImpl&lt;/b&gt;&lt;/p&gt;&lt;hr size=&quot;1&quot;/&gt;&lt;p style=&quot;margin:0 0 0 4px;line-height:1.6;&quot;&gt;+ openAccount(String, String): String&lt;br/&gt;+ getAccountPassword(String): String&lt;br/&gt;+ saveMoney(String, BigDecimal): void&lt;br/&gt;+ getMoney(String, BigDecimal): void&lt;br/&gt;+ getAllAccountByUserId(String): List&amp;lt;BankAccount&amp;gt;&lt;br/&gt;+ getBankAccountInfoById(String): BankAccount&lt;br/&gt;+ transferMoney(String, String, BigDecimal): void&lt;/p&gt;" style="verticalAlign=top;align=left;overflow=fill;fontSize=14;fontFamily=Helvetica;html=1;rounded=0;shadow=0;comic=0;labelBackgroundColor=none;strokeWidth=1;" vertex="1" parent="1">
          <mxGeometry x="4502" y="1495" width="318" height="186" as="geometry" />
        </mxCell>
        <mxCell id="KCkjolmOv0YKm-Dr6y_E-24" value="&lt;p style=&quot;margin:0px;margin-top:4px;text-align:center;&quot;&gt;&lt;i&gt;&amp;lt;&amp;lt;interface&amp;gt;&amp;gt;&lt;/i&gt;&lt;br/&gt;&lt;b&gt;TradeRecordService&lt;/b&gt;&lt;/p&gt;&lt;hr size=&quot;1&quot;/&gt;&lt;p style=&quot;margin:0 0 0 4px;line-height:1.6;&quot;&gt;+ getTradeRecordByAccountID(String): List&amp;lt;TradeRecordDisp&amp;gt;&lt;br/&gt;+ addTradeRecord(TradeRecord): Integer&lt;br/&gt;+ getTradeRecordByRecordID(Integer): TradeRecord&lt;/p&gt;" style="verticalAlign=top;align=left;overflow=fill;fontSize=14;fontFamily=Helvetica;html=1;rounded=0;shadow=0;comic=0;labelBackgroundColor=none;strokeWidth=1;" vertex="1" parent="1">
          <mxGeometry x="5003" y="1407" width="370" height="123" as="geometry" />
        </mxCell>
        <mxCell id="KCkjolmOv0YKm-Dr6y_E-25" value="&lt;p style=&quot;margin:0px;margin-top:4px;text-align:center;&quot;&gt;&lt;b&gt;TradeRecordServiceImpl&lt;/b&gt;&lt;/p&gt;&lt;hr size=&quot;1&quot;/&gt;&lt;p style=&quot;margin:0 0 0 4px;line-height:1.6;&quot;&gt;+ addTradeRecord(TradeRecord): Integer&lt;br/&gt;+ getTradeRecordByAccountID(String): List&amp;lt;TradeRecordDisp&amp;gt;&lt;br/&gt;+ getTradeRecordByRecordID(Integer): TradeRecord&lt;/p&gt;" style="verticalAlign=top;align=left;overflow=fill;fontSize=14;fontFamily=Helvetica;html=1;rounded=0;shadow=0;comic=0;labelBackgroundColor=none;strokeWidth=1;" vertex="1" parent="1">
          <mxGeometry x="4882" y="1566" width="370" height="106" as="geometry" />
        </mxCell>
        <mxCell id="KCkjolmOv0YKm-Dr6y_E-39" style="edgeStyle=orthogonalEdgeStyle;rounded=0;orthogonalLoop=1;jettySize=auto;html=1;exitX=1;exitY=0.5;exitDx=0;exitDy=0;entryX=0;entryY=0.25;entryDx=0;entryDy=0;" edge="1" parent="1" source="KCkjolmOv0YKm-Dr6y_E-26" target="KCkjolmOv0YKm-Dr6y_E-36">
          <mxGeometry relative="1" as="geometry" />
        </mxCell>
        <mxCell id="KCkjolmOv0YKm-Dr6y_E-26" value="&lt;p style=&quot;margin:0px;margin-top:4px;text-align:center;&quot;&gt;&lt;i&gt;&amp;lt;&amp;lt;interface&amp;gt;&amp;gt;&lt;/i&gt;&lt;br/&gt;&lt;b&gt;UtilityService&lt;/b&gt;&lt;/p&gt;&lt;hr size=&quot;1&quot;/&gt;&lt;p style=&quot;margin:0 0 0 4px;line-height:1.6;&quot;&gt;+ getUtilityAccountById(String): UtilityAccount&lt;br/&gt;+ addUtilityAccount(String, int, String, double): boolean&lt;br/&gt;+ utilityPayment(String, BigDecimal, int, String): boolean&lt;/p&gt;&lt;hr size=&quot;1&quot;/&gt;&lt;p style=&quot;margin:0 0 0 4px;line-height:1.6;&quot;&gt;+ utilityFunction: List&amp;lt;SystemFunction&amp;gt;&lt;br/&gt;+ utilityAccount: List&amp;lt;UtilityAccountDisp&amp;gt;&lt;/p&gt;" style="verticalAlign=top;align=left;overflow=fill;fontSize=14;fontFamily=Helvetica;html=1;rounded=0;shadow=0;comic=0;labelBackgroundColor=none;strokeWidth=1;" vertex="1" parent="1">
          <mxGeometry x="5930" y="3270" width="380" height="225.5" as="geometry" />
        </mxCell>
        <mxCell id="KCkjolmOv0YKm-Dr6y_E-27" value="&lt;p style=&quot;margin:0px;margin-top:4px;text-align:center;&quot;&gt;&lt;b&gt;UtilityServiceImpl&lt;/b&gt;&lt;/p&gt;&lt;hr size=&quot;1&quot;/&gt;&lt;p style=&quot;margin:0 0 0 4px;line-height:1.6;&quot;&gt;+ getUtilityAccountById(String): UtilityAccount&lt;br/&gt;+ addUtilityAccount(String, int, String, double): boolean&lt;br/&gt;+ utilityPayment(String, BigDecimal, int, String): boolean&lt;/p&gt;&lt;hr size=&quot;1&quot;/&gt;&lt;p style=&quot;margin:0 0 0 4px;line-height:1.6;&quot;&gt;+ utilityFunction: List&amp;lt;SystemFunction&amp;gt;&lt;br/&gt;+ utilityAccount: List&amp;lt;UtilityAccountDisp&amp;gt;&lt;/p&gt;" style="verticalAlign=top;align=left;overflow=fill;fontSize=14;fontFamily=Helvetica;html=1;rounded=0;shadow=0;comic=0;labelBackgroundColor=none;strokeWidth=1;" vertex="1" parent="1">
          <mxGeometry x="3882" y="1289" width="340" height="144" as="geometry" />
        </mxCell>
        <mxCell id="KCkjolmOv0YKm-Dr6y_E-29" value="&lt;p style=&quot;margin:0px;margin-top:4px;text-align:center;&quot;&gt;&lt;i&gt;&amp;lt;&amp;lt;interface&amp;gt;&amp;gt;&lt;/i&gt;&lt;br/&gt;&lt;b&gt;UtilityService&lt;/b&gt;&lt;/p&gt;&lt;hr size=&quot;1&quot;/&gt;&lt;p style=&quot;margin:0 0 0 4px;line-height:1.6;&quot;&gt;+ getUtilityAccountById(String): UtilityAccount&lt;br/&gt;+ addUtilityAccount(String, int, String, double): boolean&lt;br/&gt;+ utilityPayment(String, BigDecimal, int, String): boolean&lt;/p&gt;&lt;hr size=&quot;1&quot;/&gt;&lt;p style=&quot;margin:0 0 0 4px;line-height:1.6;&quot;&gt;+ utilityFunction: List&amp;lt;SystemFunction&amp;gt;&lt;br/&gt;+ utilityAccount: List&amp;lt;UtilityAccountDisp&amp;gt;&lt;/p&gt;" style="verticalAlign=top;align=left;overflow=fill;fontSize=14;fontFamily=Helvetica;html=1;rounded=0;shadow=0;comic=0;labelBackgroundColor=none;strokeWidth=1;" vertex="1" parent="1">
          <mxGeometry x="4335.5" y="1127" width="340" height="144" as="geometry" />
        </mxCell>
        <mxCell id="KCkjolmOv0YKm-Dr6y_E-30" value="&lt;p style=&quot;margin:0px;margin-top:4px;text-align:center;&quot;&gt;&lt;b&gt;UtilityServiceImpl&lt;/b&gt;&lt;/p&gt;&lt;hr size=&quot;1&quot;/&gt;&lt;p style=&quot;margin:0 0 0 4px;line-height:1.6;&quot;&gt;+ getUtilityAccountById(String): UtilityAccount&lt;br/&gt;+ addUtilityAccount(String, int, String, double): boolean&lt;br/&gt;+ utilityPayment(String, BigDecimal, int, String): boolean&lt;/p&gt;&lt;hr size=&quot;1&quot;/&gt;&lt;p style=&quot;margin:0 0 0 4px;line-height:1.6;&quot;&gt;+ utilityFunction: List&amp;lt;SystemFunction&amp;gt;&lt;br/&gt;+ utilityAccount: List&amp;lt;UtilityAccountDisp&amp;gt;&lt;/p&gt;" style="verticalAlign=top;align=left;overflow=fill;fontSize=14;fontFamily=Helvetica;html=1;rounded=0;shadow=0;comic=0;labelBackgroundColor=none;strokeWidth=1;" vertex="1" parent="1">
          <mxGeometry x="4760.5" y="1186" width="340" height="144" as="geometry" />
        </mxCell>
        <mxCell id="KCkjolmOv0YKm-Dr6y_E-31" value="" style="html=1;rounded=1;edgeStyle=orthogonalEdgeStyle;dashed=1;startArrow=none;endArrow=block;endSize=12;strokeColor=#008200;exitX=0.000;exitY=0.089;exitDx=0;exitDy=0;entryX=1.000;entryY=0.500;entryDx=0;entryDy=0;" edge="1" parent="1" source="KCkjolmOv0YKm-Dr6y_E-30" target="KCkjolmOv0YKm-Dr6y_E-29">
          <mxGeometry width="50" height="50" relative="1" as="geometry">
            <Array as="points" />
          </mxGeometry>
        </mxCell>
        <mxCell id="KCkjolmOv0YKm-Dr6y_E-40" style="edgeStyle=orthogonalEdgeStyle;rounded=0;orthogonalLoop=1;jettySize=auto;html=1;exitX=1;exitY=0.5;exitDx=0;exitDy=0;entryX=0;entryY=0.75;entryDx=0;entryDy=0;" edge="1" parent="1" source="KCkjolmOv0YKm-Dr6y_E-32" target="KCkjolmOv0YKm-Dr6y_E-36">
          <mxGeometry relative="1" as="geometry" />
        </mxCell>
        <mxCell id="KCkjolmOv0YKm-Dr6y_E-32" value="&lt;p style=&quot;margin:0px;margin-top:4px;text-align:center;&quot;&gt;&lt;i&gt;&amp;lt;&amp;lt;interface&amp;gt;&amp;gt;&lt;/i&gt;&lt;br/&gt;&lt;b&gt;UtilityService&lt;/b&gt;&lt;/p&gt;&lt;hr size=&quot;1&quot;/&gt;&lt;p style=&quot;margin:0 0 0 4px;line-height:1.6;&quot;&gt;+ getUtilityAccountById(String): UtilityAccount&lt;br/&gt;+ addUtilityAccount(String, int, String, double): boolean&lt;br/&gt;+ utilityPayment(String, BigDecimal, int, String): boolean&lt;/p&gt;&lt;hr size=&quot;1&quot;/&gt;&lt;p style=&quot;margin:0 0 0 4px;line-height:1.6;&quot;&gt;+ utilityFunction: List&amp;lt;SystemFunction&amp;gt;&lt;br/&gt;+ utilityAccount: List&amp;lt;UtilityAccountDisp&amp;gt;&lt;/p&gt;" style="verticalAlign=top;align=left;overflow=fill;fontSize=14;fontFamily=Helvetica;html=1;rounded=0;shadow=0;comic=0;labelBackgroundColor=none;strokeWidth=1;" vertex="1" parent="1">
          <mxGeometry x="5930" y="3810" width="370" height="220" as="geometry" />
        </mxCell>
        <mxCell id="KCkjolmOv0YKm-Dr6y_E-36" value="" style="rounded=0;whiteSpace=wrap;html=1;fillColor=#f0a30a;strokeColor=#BD7000;fontColor=#000000;" vertex="1" parent="1">
          <mxGeometry x="6370" y="3050" width="30" height="1210" as="geometry" />
        </mxCell>
        <mxCell id="KCkjolmOv0YKm-Dr6y_E-42" value="" style="rounded=0;whiteSpace=wrap;html=1;fillColor=#1ba1e2;strokeColor=#006EAF;fontColor=#ffffff;" vertex="1" parent="1">
          <mxGeometry x="3710" y="2650" width="2010" height="30" as="geometry" />
        </mxCell>
        <mxCell id="KCkjolmOv0YKm-Dr6y_E-44" value="&lt;font style=&quot;font-size: 36px;&quot;&gt;Front End User Interface&lt;/font&gt;" style="rounded=1;whiteSpace=wrap;html=1;fillColor=#1ba1e2;strokeColor=#006EAF;fontColor=#ffffff;" vertex="1" parent="1">
          <mxGeometry x="4260" y="2490" width="870" height="60" as="geometry" />
        </mxCell>
        <mxCell id="KCkjolmOv0YKm-Dr6y_E-55" value="" style="shape=flexArrow;endArrow=classic;startArrow=classic;html=1;rounded=0;fontSize=36;entryX=0.483;entryY=1.014;entryDx=0;entryDy=0;entryPerimeter=0;fillColor=#ffcd28;strokeColor=#d79b00;gradientColor=#ffa500;" edge="1" parent="1" target="KCkjolmOv0YKm-Dr6y_E-44">
          <mxGeometry width="100" height="100" relative="1" as="geometry">
            <mxPoint x="4680" y="2650" as="sourcePoint" />
            <mxPoint x="4700" y="2550" as="targetPoint" />
          </mxGeometry>
        </mxCell>
        <mxCell id="KCkjolmOv0YKm-Dr6y_E-57" value="Bank Service" style="rounded=0;whiteSpace=wrap;html=1;fontSize=36;fillColor=#f0a30a;strokeColor=#BD7000;fontColor=#000000;" vertex="1" parent="1">
          <mxGeometry x="6550" y="3210" width="210" height="750" as="geometry" />
        </mxCell>
        <mxCell id="KCkjolmOv0YKm-Dr6y_E-59" value="" style="shape=flexArrow;endArrow=classic;startArrow=classic;html=1;rounded=0;fontSize=36;entryX=0;entryY=0.5;entryDx=0;entryDy=0;exitX=1.041;exitY=0.442;exitDx=0;exitDy=0;exitPerimeter=0;fillColor=#ffcd28;strokeColor=#d79b00;gradientColor=#ffa500;" edge="1" parent="1" source="KCkjolmOv0YKm-Dr6y_E-36" target="KCkjolmOv0YKm-Dr6y_E-57">
          <mxGeometry width="100" height="100" relative="1" as="geometry">
            <mxPoint x="6420" y="3590" as="sourcePoint" />
            <mxPoint x="6520" y="3490" as="targetPoint" />
          </mxGeometry>
        </mxCell>
        <mxCell id="KCkjolmOv0YKm-Dr6y_E-62" value="" style="rounded=0;whiteSpace=wrap;html=1;fontSize=36;fillColor=none;fontColor=#ffffff;strokeColor=#B20000;strokeWidth=8;" vertex="1" parent="1">
          <mxGeometry x="5120" y="3210" width="1210" height="860" as="geometry" />
        </mxCell>
      </root>
    </mxGraphModel>
  </diagram>
</mxfile>
